G04 #@! TF.FileFunction,Legend,Top*
%FSLAX46Y46*%
G04 Gerber Fmt 4.6, Leading zero omitted, Abs format (unit mm)*
G04 Created by KiCad (PCBNEW (2015-12-28 BZR 6407, Git 3dff6c0)-product) date Sun 24 Jan 2016 05:08:26 PM EST*
%MOMM*%
G01*
G04 APERTURE LIST*
%ADD10C,0.100000*%
%ADD11C,0.300000*%
%ADD12C,0.150000*%
G04 APERTURE END LIST*
D10*
D11*
X72780144Y-90213571D02*
X72780144Y-88713571D01*
X73351572Y-88713571D01*
X73494430Y-88785000D01*
X73565858Y-88856429D01*
X73637287Y-88999286D01*
X73637287Y-89213571D01*
X73565858Y-89356429D01*
X73494430Y-89427857D01*
X73351572Y-89499286D01*
X72780144Y-89499286D01*
X74137287Y-89213571D02*
X74494430Y-90213571D01*
X74851572Y-89213571D02*
X74494430Y-90213571D01*
X74351572Y-90570714D01*
X74280144Y-90642143D01*
X74137287Y-90713571D01*
X75423001Y-90213571D02*
X75423001Y-89213571D01*
X75423001Y-89499286D02*
X75494429Y-89356429D01*
X75565858Y-89285000D01*
X75708715Y-89213571D01*
X75851572Y-89213571D01*
X76565858Y-90213571D02*
X76423000Y-90142143D01*
X76351572Y-90070714D01*
X76280143Y-89927857D01*
X76280143Y-89499286D01*
X76351572Y-89356429D01*
X76423000Y-89285000D01*
X76565858Y-89213571D01*
X76780143Y-89213571D01*
X76923000Y-89285000D01*
X76994429Y-89356429D01*
X77065858Y-89499286D01*
X77065858Y-89927857D01*
X76994429Y-90070714D01*
X76923000Y-90142143D01*
X76780143Y-90213571D01*
X76565858Y-90213571D01*
X77637286Y-89785000D02*
X78351572Y-89785000D01*
X77494429Y-90213571D02*
X77994429Y-88713571D01*
X78494429Y-90213571D01*
X78780143Y-88713571D02*
X79280143Y-90213571D01*
X79780143Y-88713571D01*
X81137286Y-90213571D02*
X80637286Y-89499286D01*
X80280143Y-90213571D02*
X80280143Y-88713571D01*
X80851571Y-88713571D01*
X80994429Y-88785000D01*
X81065857Y-88856429D01*
X81137286Y-88999286D01*
X81137286Y-89213571D01*
X81065857Y-89356429D01*
X80994429Y-89427857D01*
X80851571Y-89499286D01*
X80280143Y-89499286D01*
X82851571Y-88642143D02*
X81565857Y-90570714D01*
X83351572Y-90213571D02*
X83351572Y-88713571D01*
X83708715Y-88713571D01*
X83923000Y-88785000D01*
X84065858Y-88927857D01*
X84137286Y-89070714D01*
X84208715Y-89356429D01*
X84208715Y-89570714D01*
X84137286Y-89856429D01*
X84065858Y-89999286D01*
X83923000Y-90142143D01*
X83708715Y-90213571D01*
X83351572Y-90213571D01*
X84851572Y-90213571D02*
X84851572Y-88713571D01*
X85351572Y-89785000D01*
X85851572Y-88713571D01*
X85851572Y-90213571D01*
X87351572Y-88785000D02*
X87208715Y-88713571D01*
X86994429Y-88713571D01*
X86780144Y-88785000D01*
X86637286Y-88927857D01*
X86565858Y-89070714D01*
X86494429Y-89356429D01*
X86494429Y-89570714D01*
X86565858Y-89856429D01*
X86637286Y-89999286D01*
X86780144Y-90142143D01*
X86994429Y-90213571D01*
X87137286Y-90213571D01*
X87351572Y-90142143D01*
X87423001Y-90070714D01*
X87423001Y-89570714D01*
X87137286Y-89570714D01*
X88065858Y-89642143D02*
X89208715Y-89642143D01*
X89780144Y-88713571D02*
X90708715Y-88713571D01*
X90208715Y-89285000D01*
X90423001Y-89285000D01*
X90565858Y-89356429D01*
X90637287Y-89427857D01*
X90708715Y-89570714D01*
X90708715Y-89927857D01*
X90637287Y-90070714D01*
X90565858Y-90142143D01*
X90423001Y-90213571D01*
X89994429Y-90213571D01*
X89851572Y-90142143D01*
X89780144Y-90070714D01*
X91280143Y-88856429D02*
X91351572Y-88785000D01*
X91494429Y-88713571D01*
X91851572Y-88713571D01*
X91994429Y-88785000D01*
X92065858Y-88856429D01*
X92137286Y-88999286D01*
X92137286Y-89142143D01*
X92065858Y-89356429D01*
X91208715Y-90213571D01*
X92137286Y-90213571D01*
X63026286Y-90999571D02*
X63312000Y-90999571D01*
X63454858Y-91071000D01*
X63597715Y-91213857D01*
X63669143Y-91499571D01*
X63669143Y-91999571D01*
X63597715Y-92285286D01*
X63454858Y-92428143D01*
X63312000Y-92499571D01*
X63026286Y-92499571D01*
X62883429Y-92428143D01*
X62740572Y-92285286D01*
X62669143Y-91999571D01*
X62669143Y-91499571D01*
X62740572Y-91213857D01*
X62883429Y-91071000D01*
X63026286Y-90999571D01*
X64312001Y-91499571D02*
X64312001Y-92999571D01*
X64312001Y-91571000D02*
X64454858Y-91499571D01*
X64740572Y-91499571D01*
X64883429Y-91571000D01*
X64954858Y-91642429D01*
X65026287Y-91785286D01*
X65026287Y-92213857D01*
X64954858Y-92356714D01*
X64883429Y-92428143D01*
X64740572Y-92499571D01*
X64454858Y-92499571D01*
X64312001Y-92428143D01*
X66240572Y-92428143D02*
X66097715Y-92499571D01*
X65812001Y-92499571D01*
X65669144Y-92428143D01*
X65597715Y-92285286D01*
X65597715Y-91713857D01*
X65669144Y-91571000D01*
X65812001Y-91499571D01*
X66097715Y-91499571D01*
X66240572Y-91571000D01*
X66312001Y-91713857D01*
X66312001Y-91856714D01*
X65597715Y-91999571D01*
X66954858Y-91499571D02*
X66954858Y-92499571D01*
X66954858Y-91642429D02*
X67026286Y-91571000D01*
X67169144Y-91499571D01*
X67383429Y-91499571D01*
X67526286Y-91571000D01*
X67597715Y-91713857D01*
X67597715Y-92499571D01*
X69383429Y-92428143D02*
X69597715Y-92499571D01*
X69954858Y-92499571D01*
X70097715Y-92428143D01*
X70169144Y-92356714D01*
X70240572Y-92213857D01*
X70240572Y-92071000D01*
X70169144Y-91928143D01*
X70097715Y-91856714D01*
X69954858Y-91785286D01*
X69669144Y-91713857D01*
X69526286Y-91642429D01*
X69454858Y-91571000D01*
X69383429Y-91428143D01*
X69383429Y-91285286D01*
X69454858Y-91142429D01*
X69526286Y-91071000D01*
X69669144Y-90999571D01*
X70026286Y-90999571D01*
X70240572Y-91071000D01*
X71097715Y-92499571D02*
X70954857Y-92428143D01*
X70883429Y-92356714D01*
X70812000Y-92213857D01*
X70812000Y-91785286D01*
X70883429Y-91642429D01*
X70954857Y-91571000D01*
X71097715Y-91499571D01*
X71312000Y-91499571D01*
X71454857Y-91571000D01*
X71526286Y-91642429D01*
X71597715Y-91785286D01*
X71597715Y-92213857D01*
X71526286Y-92356714D01*
X71454857Y-92428143D01*
X71312000Y-92499571D01*
X71097715Y-92499571D01*
X72883429Y-91499571D02*
X72883429Y-92499571D01*
X72240572Y-91499571D02*
X72240572Y-92285286D01*
X72312000Y-92428143D01*
X72454858Y-92499571D01*
X72669143Y-92499571D01*
X72812000Y-92428143D01*
X72883429Y-92356714D01*
X73597715Y-92499571D02*
X73597715Y-91499571D01*
X73597715Y-91785286D02*
X73669143Y-91642429D01*
X73740572Y-91571000D01*
X73883429Y-91499571D01*
X74026286Y-91499571D01*
X75169143Y-92428143D02*
X75026286Y-92499571D01*
X74740572Y-92499571D01*
X74597714Y-92428143D01*
X74526286Y-92356714D01*
X74454857Y-92213857D01*
X74454857Y-91785286D01*
X74526286Y-91642429D01*
X74597714Y-91571000D01*
X74740572Y-91499571D01*
X75026286Y-91499571D01*
X75169143Y-91571000D01*
X76383428Y-92428143D02*
X76240571Y-92499571D01*
X75954857Y-92499571D01*
X75812000Y-92428143D01*
X75740571Y-92285286D01*
X75740571Y-91713857D01*
X75812000Y-91571000D01*
X75954857Y-91499571D01*
X76240571Y-91499571D01*
X76383428Y-91571000D01*
X76454857Y-91713857D01*
X76454857Y-91856714D01*
X75740571Y-91999571D01*
X78240571Y-92499571D02*
X78240571Y-90999571D01*
X78240571Y-91713857D02*
X79097714Y-91713857D01*
X79097714Y-92499571D02*
X79097714Y-90999571D01*
X80454857Y-92499571D02*
X80454857Y-91713857D01*
X80383428Y-91571000D01*
X80240571Y-91499571D01*
X79954857Y-91499571D01*
X79812000Y-91571000D01*
X80454857Y-92428143D02*
X80312000Y-92499571D01*
X79954857Y-92499571D01*
X79812000Y-92428143D01*
X79740571Y-92285286D01*
X79740571Y-92142429D01*
X79812000Y-91999571D01*
X79954857Y-91928143D01*
X80312000Y-91928143D01*
X80454857Y-91856714D01*
X81169143Y-92499571D02*
X81169143Y-91499571D01*
X81169143Y-91785286D02*
X81240571Y-91642429D01*
X81312000Y-91571000D01*
X81454857Y-91499571D01*
X81597714Y-91499571D01*
X82740571Y-92499571D02*
X82740571Y-90999571D01*
X82740571Y-92428143D02*
X82597714Y-92499571D01*
X82312000Y-92499571D01*
X82169142Y-92428143D01*
X82097714Y-92356714D01*
X82026285Y-92213857D01*
X82026285Y-91785286D01*
X82097714Y-91642429D01*
X82169142Y-91571000D01*
X82312000Y-91499571D01*
X82597714Y-91499571D01*
X82740571Y-91571000D01*
X83312000Y-91499571D02*
X83597714Y-92499571D01*
X83883428Y-91785286D01*
X84169143Y-92499571D01*
X84454857Y-91499571D01*
X85669143Y-92499571D02*
X85669143Y-91713857D01*
X85597714Y-91571000D01*
X85454857Y-91499571D01*
X85169143Y-91499571D01*
X85026286Y-91571000D01*
X85669143Y-92428143D02*
X85526286Y-92499571D01*
X85169143Y-92499571D01*
X85026286Y-92428143D01*
X84954857Y-92285286D01*
X84954857Y-92142429D01*
X85026286Y-91999571D01*
X85169143Y-91928143D01*
X85526286Y-91928143D01*
X85669143Y-91856714D01*
X86383429Y-92499571D02*
X86383429Y-91499571D01*
X86383429Y-91785286D02*
X86454857Y-91642429D01*
X86526286Y-91571000D01*
X86669143Y-91499571D01*
X86812000Y-91499571D01*
X87883428Y-92428143D02*
X87740571Y-92499571D01*
X87454857Y-92499571D01*
X87312000Y-92428143D01*
X87240571Y-92285286D01*
X87240571Y-91713857D01*
X87312000Y-91571000D01*
X87454857Y-91499571D01*
X87740571Y-91499571D01*
X87883428Y-91571000D01*
X87954857Y-91713857D01*
X87954857Y-91856714D01*
X87240571Y-91999571D01*
X90383428Y-92499571D02*
X90383428Y-91713857D01*
X90311999Y-91571000D01*
X90169142Y-91499571D01*
X89883428Y-91499571D01*
X89740571Y-91571000D01*
X90383428Y-92428143D02*
X90240571Y-92499571D01*
X89883428Y-92499571D01*
X89740571Y-92428143D01*
X89669142Y-92285286D01*
X89669142Y-92142429D01*
X89740571Y-91999571D01*
X89883428Y-91928143D01*
X90240571Y-91928143D01*
X90383428Y-91856714D01*
X91097714Y-91499571D02*
X91097714Y-92499571D01*
X91097714Y-91642429D02*
X91169142Y-91571000D01*
X91312000Y-91499571D01*
X91526285Y-91499571D01*
X91669142Y-91571000D01*
X91740571Y-91713857D01*
X91740571Y-92499571D01*
X93097714Y-92499571D02*
X93097714Y-90999571D01*
X93097714Y-92428143D02*
X92954857Y-92499571D01*
X92669143Y-92499571D01*
X92526285Y-92428143D01*
X92454857Y-92356714D01*
X92383428Y-92213857D01*
X92383428Y-91785286D01*
X92454857Y-91642429D01*
X92526285Y-91571000D01*
X92669143Y-91499571D01*
X92954857Y-91499571D01*
X93097714Y-91571000D01*
X94883428Y-92428143D02*
X95097714Y-92499571D01*
X95454857Y-92499571D01*
X95597714Y-92428143D01*
X95669143Y-92356714D01*
X95740571Y-92213857D01*
X95740571Y-92071000D01*
X95669143Y-91928143D01*
X95597714Y-91856714D01*
X95454857Y-91785286D01*
X95169143Y-91713857D01*
X95026285Y-91642429D01*
X94954857Y-91571000D01*
X94883428Y-91428143D01*
X94883428Y-91285286D01*
X94954857Y-91142429D01*
X95026285Y-91071000D01*
X95169143Y-90999571D01*
X95526285Y-90999571D01*
X95740571Y-91071000D01*
X96597714Y-92499571D02*
X96454856Y-92428143D01*
X96383428Y-92356714D01*
X96311999Y-92213857D01*
X96311999Y-91785286D01*
X96383428Y-91642429D01*
X96454856Y-91571000D01*
X96597714Y-91499571D01*
X96811999Y-91499571D01*
X96954856Y-91571000D01*
X97026285Y-91642429D01*
X97097714Y-91785286D01*
X97097714Y-92213857D01*
X97026285Y-92356714D01*
X96954856Y-92428143D01*
X96811999Y-92499571D01*
X96597714Y-92499571D01*
X97526285Y-91499571D02*
X98097714Y-91499571D01*
X97740571Y-92499571D02*
X97740571Y-91213857D01*
X97811999Y-91071000D01*
X97954857Y-90999571D01*
X98097714Y-90999571D01*
X98383428Y-91499571D02*
X98954857Y-91499571D01*
X98597714Y-90999571D02*
X98597714Y-92285286D01*
X98669142Y-92428143D01*
X98812000Y-92499571D01*
X98954857Y-92499571D01*
X99312000Y-91499571D02*
X99597714Y-92499571D01*
X99883428Y-91785286D01*
X100169143Y-92499571D01*
X100454857Y-91499571D01*
X101669143Y-92499571D02*
X101669143Y-91713857D01*
X101597714Y-91571000D01*
X101454857Y-91499571D01*
X101169143Y-91499571D01*
X101026286Y-91571000D01*
X101669143Y-92428143D02*
X101526286Y-92499571D01*
X101169143Y-92499571D01*
X101026286Y-92428143D01*
X100954857Y-92285286D01*
X100954857Y-92142429D01*
X101026286Y-91999571D01*
X101169143Y-91928143D01*
X101526286Y-91928143D01*
X101669143Y-91856714D01*
X102383429Y-92499571D02*
X102383429Y-91499571D01*
X102383429Y-91785286D02*
X102454857Y-91642429D01*
X102526286Y-91571000D01*
X102669143Y-91499571D01*
X102812000Y-91499571D01*
X103883428Y-92428143D02*
X103740571Y-92499571D01*
X103454857Y-92499571D01*
X103312000Y-92428143D01*
X103240571Y-92285286D01*
X103240571Y-91713857D01*
X103312000Y-91571000D01*
X103454857Y-91499571D01*
X103740571Y-91499571D01*
X103883428Y-91571000D01*
X103954857Y-91713857D01*
X103954857Y-91856714D01*
X103240571Y-91999571D01*
X128593001Y-15998000D02*
X129307287Y-15998000D01*
X128450144Y-16426571D02*
X128950144Y-14926571D01*
X129450144Y-16426571D01*
X129950144Y-15426571D02*
X129950144Y-16426571D01*
X129950144Y-15569429D02*
X130021572Y-15498000D01*
X130164430Y-15426571D01*
X130378715Y-15426571D01*
X130521572Y-15498000D01*
X130593001Y-15640857D01*
X130593001Y-16426571D01*
X131950144Y-16426571D02*
X131950144Y-14926571D01*
X131950144Y-16355143D02*
X131807287Y-16426571D01*
X131521573Y-16426571D01*
X131378715Y-16355143D01*
X131307287Y-16283714D01*
X131235858Y-16140857D01*
X131235858Y-15712286D01*
X131307287Y-15569429D01*
X131378715Y-15498000D01*
X131521573Y-15426571D01*
X131807287Y-15426571D01*
X131950144Y-15498000D01*
X132521573Y-15426571D02*
X132878716Y-16426571D01*
X133235858Y-15426571D02*
X132878716Y-16426571D01*
X132735858Y-16783714D01*
X132664430Y-16855143D01*
X132521573Y-16926571D01*
X134878715Y-14926571D02*
X134878715Y-15212286D01*
X135450144Y-14926571D02*
X135450144Y-15212286D01*
X136093001Y-16426571D02*
X136093001Y-14926571D01*
X136664429Y-14926571D01*
X136807287Y-14998000D01*
X136878715Y-15069429D01*
X136950144Y-15212286D01*
X136950144Y-15426571D01*
X136878715Y-15569429D01*
X136807287Y-15640857D01*
X136664429Y-15712286D01*
X136093001Y-15712286D01*
X137450144Y-15426571D02*
X137807287Y-16426571D01*
X138164429Y-15426571D02*
X137807287Y-16426571D01*
X137664429Y-16783714D01*
X137593001Y-16855143D01*
X137450144Y-16926571D01*
X138735858Y-16426571D02*
X138735858Y-15426571D01*
X138735858Y-15712286D02*
X138807286Y-15569429D01*
X138878715Y-15498000D01*
X139021572Y-15426571D01*
X139164429Y-15426571D01*
X139878715Y-16426571D02*
X139735857Y-16355143D01*
X139664429Y-16283714D01*
X139593000Y-16140857D01*
X139593000Y-15712286D01*
X139664429Y-15569429D01*
X139735857Y-15498000D01*
X139878715Y-15426571D01*
X140093000Y-15426571D01*
X140235857Y-15498000D01*
X140307286Y-15569429D01*
X140378715Y-15712286D01*
X140378715Y-16140857D01*
X140307286Y-16283714D01*
X140235857Y-16355143D01*
X140093000Y-16426571D01*
X139878715Y-16426571D01*
X140950143Y-15998000D02*
X141664429Y-15998000D01*
X140807286Y-16426571D02*
X141307286Y-14926571D01*
X141807286Y-16426571D01*
X142093000Y-14926571D02*
X142593000Y-16426571D01*
X143093000Y-14926571D01*
X144450143Y-16426571D02*
X143950143Y-15712286D01*
X143593000Y-16426571D02*
X143593000Y-14926571D01*
X144164428Y-14926571D01*
X144307286Y-14998000D01*
X144378714Y-15069429D01*
X144450143Y-15212286D01*
X144450143Y-15426571D01*
X144378714Y-15569429D01*
X144307286Y-15640857D01*
X144164428Y-15712286D01*
X143593000Y-15712286D01*
X145021571Y-14926571D02*
X145021571Y-15212286D01*
X145593000Y-14926571D02*
X145593000Y-15212286D01*
X147378714Y-16426571D02*
X147378714Y-14926571D01*
X147878714Y-15998000D01*
X148378714Y-14926571D01*
X148378714Y-16426571D01*
X149664428Y-16355143D02*
X149521571Y-16426571D01*
X149235857Y-16426571D01*
X149093000Y-16355143D01*
X149021571Y-16212286D01*
X149021571Y-15640857D01*
X149093000Y-15498000D01*
X149235857Y-15426571D01*
X149521571Y-15426571D01*
X149664428Y-15498000D01*
X149735857Y-15640857D01*
X149735857Y-15783714D01*
X149021571Y-15926571D01*
X150235857Y-15426571D02*
X150593000Y-16426571D01*
X150950142Y-15426571D02*
X150593000Y-16426571D01*
X150450142Y-16783714D01*
X150378714Y-16855143D01*
X150235857Y-16926571D01*
X152092999Y-16355143D02*
X151950142Y-16426571D01*
X151664428Y-16426571D01*
X151521571Y-16355143D01*
X151450142Y-16212286D01*
X151450142Y-15640857D01*
X151521571Y-15498000D01*
X151664428Y-15426571D01*
X151950142Y-15426571D01*
X152092999Y-15498000D01*
X152164428Y-15640857D01*
X152164428Y-15783714D01*
X151450142Y-15926571D01*
X152807285Y-16426571D02*
X152807285Y-15426571D01*
X152807285Y-15712286D02*
X152878713Y-15569429D01*
X152950142Y-15498000D01*
X153092999Y-15426571D01*
X153235856Y-15426571D01*
X128307287Y-14668000D02*
X153378713Y-14668000D01*
X70279715Y-49236143D02*
X70279715Y-46236143D01*
X70994000Y-46236143D01*
X71422572Y-46379000D01*
X71708286Y-46664714D01*
X71851143Y-46950429D01*
X71994000Y-47521857D01*
X71994000Y-47950429D01*
X71851143Y-48521857D01*
X71708286Y-48807571D01*
X71422572Y-49093286D01*
X70994000Y-49236143D01*
X70279715Y-49236143D01*
X73279715Y-49236143D02*
X73279715Y-46236143D01*
X74279715Y-48379000D01*
X75279715Y-46236143D01*
X75279715Y-49236143D01*
X78279714Y-46379000D02*
X77994000Y-46236143D01*
X77565429Y-46236143D01*
X77136857Y-46379000D01*
X76851143Y-46664714D01*
X76708286Y-46950429D01*
X76565429Y-47521857D01*
X76565429Y-47950429D01*
X76708286Y-48521857D01*
X76851143Y-48807571D01*
X77136857Y-49093286D01*
X77565429Y-49236143D01*
X77851143Y-49236143D01*
X78279714Y-49093286D01*
X78422571Y-48950429D01*
X78422571Y-47950429D01*
X77851143Y-47950429D01*
X79708286Y-48093286D02*
X81994000Y-48093286D01*
X83136857Y-46236143D02*
X84994000Y-46236143D01*
X83994000Y-47379000D01*
X84422572Y-47379000D01*
X84708286Y-47521857D01*
X84851143Y-47664714D01*
X84994000Y-47950429D01*
X84994000Y-48664714D01*
X84851143Y-48950429D01*
X84708286Y-49093286D01*
X84422572Y-49236143D01*
X83565429Y-49236143D01*
X83279715Y-49093286D01*
X83136857Y-48950429D01*
X86136858Y-46521857D02*
X86279715Y-46379000D01*
X86565429Y-46236143D01*
X87279715Y-46236143D01*
X87565429Y-46379000D01*
X87708286Y-46521857D01*
X87851143Y-46807571D01*
X87851143Y-47093286D01*
X87708286Y-47521857D01*
X85994000Y-49236143D01*
X87851143Y-49236143D01*
D12*
X37225096Y-86785112D02*
G75*
G03X40250000Y-86770000I1524904J-2484888D01*
G01*
X37250000Y-86770000D02*
X40250000Y-86770000D01*
X41267936Y-89270000D02*
G75*
G03X41267936Y-89270000I-2517936J0D01*
G01*
X21400000Y-28480000D02*
X21400000Y-79280000D01*
X26480000Y-76740000D02*
X26480000Y-28480000D01*
X21400000Y-28480000D02*
X26480000Y-28480000D01*
X21400000Y-79280000D02*
X23940000Y-79280000D01*
X25210000Y-79560000D02*
X26760000Y-79560000D01*
X23940000Y-79280000D02*
X23940000Y-76740000D01*
X23940000Y-76740000D02*
X26480000Y-76740000D01*
X26760000Y-79560000D02*
X26760000Y-78010000D01*
X130290000Y-19270000D02*
X125210000Y-19270000D01*
X125210000Y-19270000D02*
X125210000Y-16730000D01*
X125210000Y-16730000D02*
X130290000Y-16730000D01*
X130290000Y-16730000D02*
X130290000Y-19270000D01*
X130290000Y-18000000D02*
X131560000Y-18000000D01*
X125210000Y-18000000D02*
X123940000Y-18000000D01*
X134520000Y-61960000D02*
X134520000Y-67040000D01*
X134520000Y-67040000D02*
X131980000Y-67040000D01*
X131980000Y-67040000D02*
X131980000Y-61960000D01*
X131980000Y-61960000D02*
X134520000Y-61960000D01*
X133250000Y-61960000D02*
X133250000Y-60690000D01*
X133250000Y-67040000D02*
X133250000Y-68310000D01*
X99730000Y-78040000D02*
X99730000Y-72960000D01*
X99730000Y-72960000D02*
X102270000Y-72960000D01*
X102270000Y-72960000D02*
X102270000Y-78040000D01*
X102270000Y-78040000D02*
X99730000Y-78040000D01*
X101000000Y-78040000D02*
X101000000Y-79310000D01*
X101000000Y-72960000D02*
X101000000Y-71690000D01*
X128960000Y-35730000D02*
X134040000Y-35730000D01*
X134040000Y-35730000D02*
X134040000Y-38270000D01*
X134040000Y-38270000D02*
X128960000Y-38270000D01*
X128960000Y-38270000D02*
X128960000Y-35730000D01*
X128960000Y-37000000D02*
X127690000Y-37000000D01*
X134040000Y-37000000D02*
X135310000Y-37000000D01*
X132770000Y-45710000D02*
X132770000Y-50790000D01*
X132770000Y-50790000D02*
X130230000Y-50790000D01*
X130230000Y-50790000D02*
X130230000Y-45710000D01*
X130230000Y-45710000D02*
X132770000Y-45710000D01*
X131500000Y-45710000D02*
X131500000Y-44440000D01*
X131500000Y-50790000D02*
X131500000Y-52060000D01*
X135730000Y-81040000D02*
X135730000Y-75960000D01*
X135730000Y-75960000D02*
X138270000Y-75960000D01*
X138270000Y-75960000D02*
X138270000Y-81040000D01*
X138270000Y-81040000D02*
X135730000Y-81040000D01*
X137000000Y-81040000D02*
X137000000Y-82310000D01*
X137000000Y-75960000D02*
X137000000Y-74690000D01*
X107770000Y-48460000D02*
X107770000Y-53540000D01*
X107770000Y-53540000D02*
X105230000Y-53540000D01*
X105230000Y-53540000D02*
X105230000Y-48460000D01*
X105230000Y-48460000D02*
X107770000Y-48460000D01*
X106500000Y-48460000D02*
X106500000Y-47190000D01*
X106500000Y-53540000D02*
X106500000Y-54810000D01*
X65460000Y-74730000D02*
X70540000Y-74730000D01*
X70540000Y-74730000D02*
X70540000Y-77270000D01*
X70540000Y-77270000D02*
X65460000Y-77270000D01*
X65460000Y-77270000D02*
X65460000Y-74730000D01*
X65460000Y-76000000D02*
X64190000Y-76000000D01*
X70540000Y-76000000D02*
X71810000Y-76000000D01*
X109790000Y-91270000D02*
X104710000Y-91270000D01*
X104710000Y-91270000D02*
X104710000Y-88730000D01*
X104710000Y-88730000D02*
X109790000Y-88730000D01*
X109790000Y-88730000D02*
X109790000Y-91270000D01*
X109790000Y-90000000D02*
X111060000Y-90000000D01*
X104710000Y-90000000D02*
X103440000Y-90000000D01*
X95290000Y-36520000D02*
X90210000Y-36520000D01*
X90210000Y-36520000D02*
X90210000Y-33980000D01*
X90210000Y-33980000D02*
X95290000Y-33980000D01*
X95290000Y-33980000D02*
X95290000Y-36520000D01*
X95290000Y-35250000D02*
X96560000Y-35250000D01*
X90210000Y-35250000D02*
X88940000Y-35250000D01*
X50040000Y-18770000D02*
X44960000Y-18770000D01*
X44960000Y-18770000D02*
X44960000Y-16230000D01*
X44960000Y-16230000D02*
X50040000Y-16230000D01*
X50040000Y-16230000D02*
X50040000Y-18770000D01*
X50040000Y-17500000D02*
X51310000Y-17500000D01*
X44960000Y-17500000D02*
X43690000Y-17500000D01*
X113230000Y-59290000D02*
X113230000Y-54210000D01*
X113230000Y-54210000D02*
X115770000Y-54210000D01*
X115770000Y-54210000D02*
X115770000Y-59290000D01*
X115770000Y-59290000D02*
X113230000Y-59290000D01*
X114500000Y-59290000D02*
X114500000Y-60560000D01*
X114500000Y-54210000D02*
X114500000Y-52940000D01*
X47770000Y-84210000D02*
X47770000Y-89290000D01*
X47770000Y-89290000D02*
X45230000Y-89290000D01*
X45230000Y-89290000D02*
X45230000Y-84210000D01*
X45230000Y-84210000D02*
X47770000Y-84210000D01*
X46500000Y-84210000D02*
X46500000Y-82940000D01*
X46500000Y-89290000D02*
X46500000Y-90560000D01*
X45290000Y-46020000D02*
X40210000Y-46020000D01*
X40210000Y-46020000D02*
X40210000Y-43480000D01*
X40210000Y-43480000D02*
X45290000Y-43480000D01*
X45290000Y-43480000D02*
X45290000Y-46020000D01*
X45290000Y-44750000D02*
X46560000Y-44750000D01*
X40210000Y-44750000D02*
X38940000Y-44750000D01*
X113040000Y-78000000D02*
G75*
G03X113040000Y-78000000I-2540000J0D01*
G01*
X110500000Y-83388154D02*
X105111846Y-78000000D01*
X105111846Y-78000000D02*
X110500000Y-72611846D01*
X110500000Y-72611846D02*
X115888154Y-78000000D01*
X110500000Y-83388154D02*
X115888154Y-78000000D01*
X130540000Y-78000000D02*
G75*
G03X130540000Y-78000000I-2540000J0D01*
G01*
X128000000Y-72611846D02*
X133388154Y-78000000D01*
X133388154Y-78000000D02*
X128000000Y-83388154D01*
X128000000Y-83388154D02*
X122611846Y-78000000D01*
X128000000Y-72611846D02*
X122611846Y-78000000D01*
X121790000Y-86750000D02*
G75*
G03X121790000Y-86750000I-2540000J0D01*
G01*
X119250000Y-92138154D02*
X113861846Y-86750000D01*
X113861846Y-86750000D02*
X119250000Y-81361846D01*
X119250000Y-81361846D02*
X124638154Y-86750000D01*
X119250000Y-92138154D02*
X124638154Y-86750000D01*
X121790000Y-69250000D02*
G75*
G03X121790000Y-69250000I-2540000J0D01*
G01*
X119250000Y-74638154D02*
X113861846Y-69250000D01*
X113861846Y-69250000D02*
X119250000Y-63861846D01*
X119250000Y-63861846D02*
X124638154Y-69250000D01*
X119250000Y-74638154D02*
X124638154Y-69250000D01*
X117290000Y-18250000D02*
G75*
G03X117290000Y-18250000I-2540000J0D01*
G01*
X110940000Y-14440000D02*
X118560000Y-14440000D01*
X118560000Y-14440000D02*
X118560000Y-22060000D01*
X118560000Y-22060000D02*
X110940000Y-22060000D01*
X110940000Y-14440000D02*
X110940000Y-22060000D01*
X144270000Y-64790000D02*
G75*
G03X144270000Y-64790000I-2540000J0D01*
G01*
X137920000Y-68600000D02*
X137920000Y-60980000D01*
X137920000Y-60980000D02*
X145540000Y-60980000D01*
X145540000Y-60980000D02*
X145540000Y-68600000D01*
X137920000Y-68600000D02*
X145540000Y-68600000D01*
X124290000Y-32000000D02*
G75*
G03X124290000Y-32000000I-2540000J0D01*
G01*
X121750000Y-37388154D02*
X116361846Y-32000000D01*
X116361846Y-32000000D02*
X121750000Y-26611846D01*
X121750000Y-26611846D02*
X127138154Y-32000000D01*
X121750000Y-37388154D02*
X127138154Y-32000000D01*
X144270000Y-47010000D02*
G75*
G03X144270000Y-47010000I-2540000J0D01*
G01*
X137920000Y-50820000D02*
X137920000Y-43200000D01*
X137920000Y-43200000D02*
X145540000Y-43200000D01*
X145540000Y-43200000D02*
X145540000Y-50820000D01*
X137920000Y-50820000D02*
X145540000Y-50820000D01*
X113290000Y-40250000D02*
G75*
G03X113290000Y-40250000I-2540000J0D01*
G01*
X110750000Y-45638154D02*
X105361846Y-40250000D01*
X105361846Y-40250000D02*
X110750000Y-34861846D01*
X110750000Y-34861846D02*
X116138154Y-40250000D01*
X110750000Y-45638154D02*
X116138154Y-40250000D01*
X106540000Y-26750000D02*
G75*
G03X106540000Y-26750000I-2540000J0D01*
G01*
X104000000Y-32138154D02*
X98611846Y-26750000D01*
X98611846Y-26750000D02*
X104000000Y-21361846D01*
X104000000Y-21361846D02*
X109388154Y-26750000D01*
X104000000Y-32138154D02*
X109388154Y-26750000D01*
D10*
X39650000Y-90540000D02*
G75*
G03X39650000Y-90540000I-900000J0D01*
G01*
X23483600Y-78010000D02*
X23483600Y-78010000D01*
X21856400Y-78010000D02*
X21856400Y-78010000D01*
X23483600Y-78010000D02*
G75*
G03X21856400Y-78010000I-813600J0D01*
G01*
X21856400Y-78010000D02*
G75*
G03X23483600Y-78010000I813600J0D01*
G01*
X26023600Y-75470000D02*
X26023600Y-75470000D01*
X24396400Y-75470000D02*
X24396400Y-75470000D01*
X26023600Y-75470000D02*
G75*
G03X24396400Y-75470000I-813600J0D01*
G01*
X24396400Y-75470000D02*
G75*
G03X26023600Y-75470000I813600J0D01*
G01*
X23483600Y-75470000D02*
X23483600Y-75470000D01*
X21856400Y-75470000D02*
X21856400Y-75470000D01*
X23483600Y-75470000D02*
G75*
G03X21856400Y-75470000I-813600J0D01*
G01*
X21856400Y-75470000D02*
G75*
G03X23483600Y-75470000I813600J0D01*
G01*
X26023600Y-72930000D02*
X26023600Y-72930000D01*
X24396400Y-72930000D02*
X24396400Y-72930000D01*
X26023600Y-72930000D02*
G75*
G03X24396400Y-72930000I-813600J0D01*
G01*
X24396400Y-72930000D02*
G75*
G03X26023600Y-72930000I813600J0D01*
G01*
X23483600Y-72930000D02*
X23483600Y-72930000D01*
X21856400Y-72930000D02*
X21856400Y-72930000D01*
X23483600Y-72930000D02*
G75*
G03X21856400Y-72930000I-813600J0D01*
G01*
X21856400Y-72930000D02*
G75*
G03X23483600Y-72930000I813600J0D01*
G01*
X26023600Y-70390000D02*
X26023600Y-70390000D01*
X24396400Y-70390000D02*
X24396400Y-70390000D01*
X26023600Y-70390000D02*
G75*
G03X24396400Y-70390000I-813600J0D01*
G01*
X24396400Y-70390000D02*
G75*
G03X26023600Y-70390000I813600J0D01*
G01*
X23483600Y-70390000D02*
X23483600Y-70390000D01*
X21856400Y-70390000D02*
X21856400Y-70390000D01*
X23483600Y-70390000D02*
G75*
G03X21856400Y-70390000I-813600J0D01*
G01*
X21856400Y-70390000D02*
G75*
G03X23483600Y-70390000I813600J0D01*
G01*
X26023600Y-67850000D02*
X26023600Y-67850000D01*
X24396400Y-67850000D02*
X24396400Y-67850000D01*
X26023600Y-67850000D02*
G75*
G03X24396400Y-67850000I-813600J0D01*
G01*
X24396400Y-67850000D02*
G75*
G03X26023600Y-67850000I813600J0D01*
G01*
X23483600Y-67850000D02*
X23483600Y-67850000D01*
X21856400Y-67850000D02*
X21856400Y-67850000D01*
X23483600Y-67850000D02*
G75*
G03X21856400Y-67850000I-813600J0D01*
G01*
X21856400Y-67850000D02*
G75*
G03X23483600Y-67850000I813600J0D01*
G01*
X26023600Y-65310000D02*
X26023600Y-65310000D01*
X24396400Y-65310000D02*
X24396400Y-65310000D01*
X26023600Y-65310000D02*
G75*
G03X24396400Y-65310000I-813600J0D01*
G01*
X24396400Y-65310000D02*
G75*
G03X26023600Y-65310000I813600J0D01*
G01*
X23483600Y-65310000D02*
X23483600Y-65310000D01*
X21856400Y-65310000D02*
X21856400Y-65310000D01*
X23483600Y-65310000D02*
G75*
G03X21856400Y-65310000I-813600J0D01*
G01*
X21856400Y-65310000D02*
G75*
G03X23483600Y-65310000I813600J0D01*
G01*
X26023600Y-62770000D02*
X26023600Y-62770000D01*
X24396400Y-62770000D02*
X24396400Y-62770000D01*
X26023600Y-62770000D02*
G75*
G03X24396400Y-62770000I-813600J0D01*
G01*
X24396400Y-62770000D02*
G75*
G03X26023600Y-62770000I813600J0D01*
G01*
X23483600Y-62770000D02*
X23483600Y-62770000D01*
X21856400Y-62770000D02*
X21856400Y-62770000D01*
X23483600Y-62770000D02*
G75*
G03X21856400Y-62770000I-813600J0D01*
G01*
X21856400Y-62770000D02*
G75*
G03X23483600Y-62770000I813600J0D01*
G01*
X26023600Y-60230000D02*
X26023600Y-60230000D01*
X24396400Y-60230000D02*
X24396400Y-60230000D01*
X26023600Y-60230000D02*
G75*
G03X24396400Y-60230000I-813600J0D01*
G01*
X24396400Y-60230000D02*
G75*
G03X26023600Y-60230000I813600J0D01*
G01*
X23483600Y-60230000D02*
X23483600Y-60230000D01*
X21856400Y-60230000D02*
X21856400Y-60230000D01*
X23483600Y-60230000D02*
G75*
G03X21856400Y-60230000I-813600J0D01*
G01*
X21856400Y-60230000D02*
G75*
G03X23483600Y-60230000I813600J0D01*
G01*
X26023600Y-57690000D02*
X26023600Y-57690000D01*
X24396400Y-57690000D02*
X24396400Y-57690000D01*
X26023600Y-57690000D02*
G75*
G03X24396400Y-57690000I-813600J0D01*
G01*
X24396400Y-57690000D02*
G75*
G03X26023600Y-57690000I813600J0D01*
G01*
X23483600Y-57690000D02*
X23483600Y-57690000D01*
X21856400Y-57690000D02*
X21856400Y-57690000D01*
X23483600Y-57690000D02*
G75*
G03X21856400Y-57690000I-813600J0D01*
G01*
X21856400Y-57690000D02*
G75*
G03X23483600Y-57690000I813600J0D01*
G01*
X26023600Y-55150000D02*
X26023600Y-55150000D01*
X24396400Y-55150000D02*
X24396400Y-55150000D01*
X26023600Y-55150000D02*
G75*
G03X24396400Y-55150000I-813600J0D01*
G01*
X24396400Y-55150000D02*
G75*
G03X26023600Y-55150000I813600J0D01*
G01*
X23483600Y-55150000D02*
X23483600Y-55150000D01*
X21856400Y-55150000D02*
X21856400Y-55150000D01*
X23483600Y-55150000D02*
G75*
G03X21856400Y-55150000I-813600J0D01*
G01*
X21856400Y-55150000D02*
G75*
G03X23483600Y-55150000I813600J0D01*
G01*
X26023600Y-52610000D02*
X26023600Y-52610000D01*
X24396400Y-52610000D02*
X24396400Y-52610000D01*
X26023600Y-52610000D02*
G75*
G03X24396400Y-52610000I-813600J0D01*
G01*
X24396400Y-52610000D02*
G75*
G03X26023600Y-52610000I813600J0D01*
G01*
X23483600Y-52610000D02*
X23483600Y-52610000D01*
X21856400Y-52610000D02*
X21856400Y-52610000D01*
X23483600Y-52610000D02*
G75*
G03X21856400Y-52610000I-813600J0D01*
G01*
X21856400Y-52610000D02*
G75*
G03X23483600Y-52610000I813600J0D01*
G01*
X26023600Y-50070000D02*
X26023600Y-50070000D01*
X24396400Y-50070000D02*
X24396400Y-50070000D01*
X26023600Y-50070000D02*
G75*
G03X24396400Y-50070000I-813600J0D01*
G01*
X24396400Y-50070000D02*
G75*
G03X26023600Y-50070000I813600J0D01*
G01*
X23483600Y-50070000D02*
X23483600Y-50070000D01*
X21856400Y-50070000D02*
X21856400Y-50070000D01*
X23483600Y-50070000D02*
G75*
G03X21856400Y-50070000I-813600J0D01*
G01*
X21856400Y-50070000D02*
G75*
G03X23483600Y-50070000I813600J0D01*
G01*
X26023600Y-47530000D02*
X26023600Y-47530000D01*
X24396400Y-47530000D02*
X24396400Y-47530000D01*
X26023600Y-47530000D02*
G75*
G03X24396400Y-47530000I-813600J0D01*
G01*
X24396400Y-47530000D02*
G75*
G03X26023600Y-47530000I813600J0D01*
G01*
X23483600Y-47530000D02*
X23483600Y-47530000D01*
X21856400Y-47530000D02*
X21856400Y-47530000D01*
X23483600Y-47530000D02*
G75*
G03X21856400Y-47530000I-813600J0D01*
G01*
X21856400Y-47530000D02*
G75*
G03X23483600Y-47530000I813600J0D01*
G01*
X26023600Y-44990000D02*
X26023600Y-44990000D01*
X24396400Y-44990000D02*
X24396400Y-44990000D01*
X26023600Y-44990000D02*
G75*
G03X24396400Y-44990000I-813600J0D01*
G01*
X24396400Y-44990000D02*
G75*
G03X26023600Y-44990000I813600J0D01*
G01*
X23483600Y-44990000D02*
X23483600Y-44990000D01*
X21856400Y-44990000D02*
X21856400Y-44990000D01*
X23483600Y-44990000D02*
G75*
G03X21856400Y-44990000I-813600J0D01*
G01*
X21856400Y-44990000D02*
G75*
G03X23483600Y-44990000I813600J0D01*
G01*
X26023600Y-42450000D02*
X26023600Y-42450000D01*
X24396400Y-42450000D02*
X24396400Y-42450000D01*
X26023600Y-42450000D02*
G75*
G03X24396400Y-42450000I-813600J0D01*
G01*
X24396400Y-42450000D02*
G75*
G03X26023600Y-42450000I813600J0D01*
G01*
X23483600Y-42450000D02*
X23483600Y-42450000D01*
X21856400Y-42450000D02*
X21856400Y-42450000D01*
X23483600Y-42450000D02*
G75*
G03X21856400Y-42450000I-813600J0D01*
G01*
X21856400Y-42450000D02*
G75*
G03X23483600Y-42450000I813600J0D01*
G01*
X26023600Y-39910000D02*
X26023600Y-39910000D01*
X24396400Y-39910000D02*
X24396400Y-39910000D01*
X26023600Y-39910000D02*
G75*
G03X24396400Y-39910000I-813600J0D01*
G01*
X24396400Y-39910000D02*
G75*
G03X26023600Y-39910000I813600J0D01*
G01*
X23483600Y-39910000D02*
X23483600Y-39910000D01*
X21856400Y-39910000D02*
X21856400Y-39910000D01*
X23483600Y-39910000D02*
G75*
G03X21856400Y-39910000I-813600J0D01*
G01*
X21856400Y-39910000D02*
G75*
G03X23483600Y-39910000I813600J0D01*
G01*
X26023600Y-37370000D02*
X26023600Y-37370000D01*
X24396400Y-37370000D02*
X24396400Y-37370000D01*
X26023600Y-37370000D02*
G75*
G03X24396400Y-37370000I-813600J0D01*
G01*
X24396400Y-37370000D02*
G75*
G03X26023600Y-37370000I813600J0D01*
G01*
X23483600Y-37370000D02*
X23483600Y-37370000D01*
X21856400Y-37370000D02*
X21856400Y-37370000D01*
X23483600Y-37370000D02*
G75*
G03X21856400Y-37370000I-813600J0D01*
G01*
X21856400Y-37370000D02*
G75*
G03X23483600Y-37370000I813600J0D01*
G01*
X26023600Y-34830000D02*
X26023600Y-34830000D01*
X24396400Y-34830000D02*
X24396400Y-34830000D01*
X26023600Y-34830000D02*
G75*
G03X24396400Y-34830000I-813600J0D01*
G01*
X24396400Y-34830000D02*
G75*
G03X26023600Y-34830000I813600J0D01*
G01*
X23483600Y-34830000D02*
X23483600Y-34830000D01*
X21856400Y-34830000D02*
X21856400Y-34830000D01*
X23483600Y-34830000D02*
G75*
G03X21856400Y-34830000I-813600J0D01*
G01*
X21856400Y-34830000D02*
G75*
G03X23483600Y-34830000I813600J0D01*
G01*
X26023600Y-32290000D02*
X26023600Y-32290000D01*
X24396400Y-32290000D02*
X24396400Y-32290000D01*
X26023600Y-32290000D02*
G75*
G03X24396400Y-32290000I-813600J0D01*
G01*
X24396400Y-32290000D02*
G75*
G03X26023600Y-32290000I813600J0D01*
G01*
X23483600Y-32290000D02*
X23483600Y-32290000D01*
X21856400Y-32290000D02*
X21856400Y-32290000D01*
X23483600Y-32290000D02*
G75*
G03X21856400Y-32290000I-813600J0D01*
G01*
X21856400Y-32290000D02*
G75*
G03X23483600Y-32290000I813600J0D01*
G01*
X26023600Y-29750000D02*
X26023600Y-29750000D01*
X24396400Y-29750000D02*
X24396400Y-29750000D01*
X26023600Y-29750000D02*
G75*
G03X24396400Y-29750000I-813600J0D01*
G01*
X24396400Y-29750000D02*
G75*
G03X26023600Y-29750000I813600J0D01*
G01*
X23483600Y-29750000D02*
X23483600Y-29750000D01*
X21856400Y-29750000D02*
X21856400Y-29750000D01*
X23483600Y-29750000D02*
G75*
G03X21856400Y-29750000I-813600J0D01*
G01*
X21856400Y-29750000D02*
G75*
G03X23483600Y-29750000I813600J0D01*
G01*
X133779490Y-18000000D02*
G75*
G03X133779490Y-18000000I-949490J0D01*
G01*
X123619490Y-18000000D02*
G75*
G03X123619490Y-18000000I-949490J0D01*
G01*
X134199490Y-59420000D02*
G75*
G03X134199490Y-59420000I-949490J0D01*
G01*
X134199490Y-69580000D02*
G75*
G03X134199490Y-69580000I-949490J0D01*
G01*
X101949490Y-80580000D02*
G75*
G03X101949490Y-80580000I-949490J0D01*
G01*
X101949490Y-70420000D02*
G75*
G03X101949490Y-70420000I-949490J0D01*
G01*
X127369490Y-37000000D02*
G75*
G03X127369490Y-37000000I-949490J0D01*
G01*
X137529490Y-37000000D02*
G75*
G03X137529490Y-37000000I-949490J0D01*
G01*
X132449490Y-43170000D02*
G75*
G03X132449490Y-43170000I-949490J0D01*
G01*
X132449490Y-53330000D02*
G75*
G03X132449490Y-53330000I-949490J0D01*
G01*
X137949490Y-83580000D02*
G75*
G03X137949490Y-83580000I-949490J0D01*
G01*
X137949490Y-73420000D02*
G75*
G03X137949490Y-73420000I-949490J0D01*
G01*
X107449490Y-45920000D02*
G75*
G03X107449490Y-45920000I-949490J0D01*
G01*
X107449490Y-56080000D02*
G75*
G03X107449490Y-56080000I-949490J0D01*
G01*
X63869490Y-76000000D02*
G75*
G03X63869490Y-76000000I-949490J0D01*
G01*
X74029490Y-76000000D02*
G75*
G03X74029490Y-76000000I-949490J0D01*
G01*
X113279490Y-90000000D02*
G75*
G03X113279490Y-90000000I-949490J0D01*
G01*
X103119490Y-90000000D02*
G75*
G03X103119490Y-90000000I-949490J0D01*
G01*
X98779490Y-35250000D02*
G75*
G03X98779490Y-35250000I-949490J0D01*
G01*
X88619490Y-35250000D02*
G75*
G03X88619490Y-35250000I-949490J0D01*
G01*
X53529490Y-17500000D02*
G75*
G03X53529490Y-17500000I-949490J0D01*
G01*
X43369490Y-17500000D02*
G75*
G03X43369490Y-17500000I-949490J0D01*
G01*
X115449490Y-61830000D02*
G75*
G03X115449490Y-61830000I-949490J0D01*
G01*
X115449490Y-51670000D02*
G75*
G03X115449490Y-51670000I-949490J0D01*
G01*
X47449490Y-81670000D02*
G75*
G03X47449490Y-81670000I-949490J0D01*
G01*
X47449490Y-91830000D02*
G75*
G03X47449490Y-91830000I-949490J0D01*
G01*
X48779490Y-44750000D02*
G75*
G03X48779490Y-44750000I-949490J0D01*
G01*
X38619490Y-44750000D02*
G75*
G03X38619490Y-44750000I-949490J0D01*
G01*
X106658372Y-77101974D02*
G75*
G03X106658372Y-77101974I-648500J0D01*
G01*
X110250474Y-73509872D02*
G75*
G03X110250474Y-73509872I-648500J0D01*
G01*
X112046526Y-82490128D02*
G75*
G03X112046526Y-82490128I-648500J0D01*
G01*
X115638628Y-78898026D02*
G75*
G03X115638628Y-78898026I-648500J0D01*
G01*
X133138628Y-78898026D02*
G75*
G03X133138628Y-78898026I-648500J0D01*
G01*
X129546526Y-82490128D02*
G75*
G03X129546526Y-82490128I-648500J0D01*
G01*
X127750474Y-73509872D02*
G75*
G03X127750474Y-73509872I-648500J0D01*
G01*
X124158372Y-77101974D02*
G75*
G03X124158372Y-77101974I-648500J0D01*
G01*
X115408372Y-85851974D02*
G75*
G03X115408372Y-85851974I-648500J0D01*
G01*
X119000474Y-82259872D02*
G75*
G03X119000474Y-82259872I-648500J0D01*
G01*
X120796526Y-91240128D02*
G75*
G03X120796526Y-91240128I-648500J0D01*
G01*
X124388628Y-87648026D02*
G75*
G03X124388628Y-87648026I-648500J0D01*
G01*
X115408372Y-68351974D02*
G75*
G03X115408372Y-68351974I-648500J0D01*
G01*
X119000474Y-64759872D02*
G75*
G03X119000474Y-64759872I-648500J0D01*
G01*
X120796526Y-73740128D02*
G75*
G03X120796526Y-73740128I-648500J0D01*
G01*
X124388628Y-70148026D02*
G75*
G03X124388628Y-70148026I-648500J0D01*
G01*
X119208500Y-15710000D02*
G75*
G03X119208500Y-15710000I-648500J0D01*
G01*
X119208500Y-20790000D02*
G75*
G03X119208500Y-20790000I-648500J0D01*
G01*
X111588500Y-15710000D02*
G75*
G03X111588500Y-15710000I-648500J0D01*
G01*
X111588500Y-20790000D02*
G75*
G03X111588500Y-20790000I-648500J0D01*
G01*
X139838500Y-60980000D02*
G75*
G03X139838500Y-60980000I-648500J0D01*
G01*
X144918500Y-60980000D02*
G75*
G03X144918500Y-60980000I-648500J0D01*
G01*
X139838500Y-68600000D02*
G75*
G03X139838500Y-68600000I-648500J0D01*
G01*
X144918500Y-68600000D02*
G75*
G03X144918500Y-68600000I-648500J0D01*
G01*
X117908372Y-31101974D02*
G75*
G03X117908372Y-31101974I-648500J0D01*
G01*
X121500474Y-27509872D02*
G75*
G03X121500474Y-27509872I-648500J0D01*
G01*
X123296526Y-36490128D02*
G75*
G03X123296526Y-36490128I-648500J0D01*
G01*
X126888628Y-32898026D02*
G75*
G03X126888628Y-32898026I-648500J0D01*
G01*
X139838500Y-43200000D02*
G75*
G03X139838500Y-43200000I-648500J0D01*
G01*
X144918500Y-43200000D02*
G75*
G03X144918500Y-43200000I-648500J0D01*
G01*
X139838500Y-50820000D02*
G75*
G03X139838500Y-50820000I-648500J0D01*
G01*
X144918500Y-50820000D02*
G75*
G03X144918500Y-50820000I-648500J0D01*
G01*
X106908372Y-39351974D02*
G75*
G03X106908372Y-39351974I-648500J0D01*
G01*
X110500474Y-35759872D02*
G75*
G03X110500474Y-35759872I-648500J0D01*
G01*
X112296526Y-44740128D02*
G75*
G03X112296526Y-44740128I-648500J0D01*
G01*
X115888628Y-41148026D02*
G75*
G03X115888628Y-41148026I-648500J0D01*
G01*
X100158372Y-25851974D02*
G75*
G03X100158372Y-25851974I-648500J0D01*
G01*
X103750474Y-22259872D02*
G75*
G03X103750474Y-22259872I-648500J0D01*
G01*
X105546526Y-31240128D02*
G75*
G03X105546526Y-31240128I-648500J0D01*
G01*
X109138628Y-27648026D02*
G75*
G03X109138628Y-27648026I-648500J0D01*
G01*
D12*
X35138381Y-90262095D02*
X34138381Y-90262095D01*
X34138381Y-90024000D01*
X34186000Y-89881142D01*
X34281238Y-89785904D01*
X34376476Y-89738285D01*
X34566952Y-89690666D01*
X34709810Y-89690666D01*
X34900286Y-89738285D01*
X34995524Y-89785904D01*
X35090762Y-89881142D01*
X35138381Y-90024000D01*
X35138381Y-90262095D01*
X35138381Y-88738285D02*
X35138381Y-89309714D01*
X35138381Y-89024000D02*
X34138381Y-89024000D01*
X34281238Y-89119238D01*
X34376476Y-89214476D01*
X34424095Y-89309714D01*
X37297381Y-86356905D02*
X36297381Y-86356905D01*
X37297381Y-85785476D02*
X36725952Y-86214048D01*
X36297381Y-85785476D02*
X36868810Y-86356905D01*
X24471905Y-83562381D02*
X24471905Y-82562381D01*
X24852858Y-82562381D01*
X24948096Y-82610000D01*
X24995715Y-82657619D01*
X25043334Y-82752857D01*
X25043334Y-82895714D01*
X24995715Y-82990952D01*
X24948096Y-83038571D01*
X24852858Y-83086190D01*
X24471905Y-83086190D01*
X25995715Y-83562381D02*
X25424286Y-83562381D01*
X25710000Y-83562381D02*
X25710000Y-82562381D01*
X25614762Y-82705238D01*
X25519524Y-82800476D01*
X25424286Y-82848095D01*
X127334414Y-21952501D02*
X127001080Y-21476310D01*
X126762985Y-21952501D02*
X126762985Y-20952501D01*
X127143938Y-20952501D01*
X127239176Y-21000120D01*
X127286795Y-21047739D01*
X127334414Y-21142977D01*
X127334414Y-21285834D01*
X127286795Y-21381072D01*
X127239176Y-21428691D01*
X127143938Y-21476310D01*
X126762985Y-21476310D01*
X128286795Y-21952501D02*
X127715366Y-21952501D01*
X128001080Y-21952501D02*
X128001080Y-20952501D01*
X127905842Y-21095358D01*
X127810604Y-21190596D01*
X127715366Y-21238215D01*
X137202501Y-64915586D02*
X136726310Y-65248920D01*
X137202501Y-65487015D02*
X136202501Y-65487015D01*
X136202501Y-65106062D01*
X136250120Y-65010824D01*
X136297739Y-64963205D01*
X136392977Y-64915586D01*
X136535834Y-64915586D01*
X136631072Y-64963205D01*
X136678691Y-65010824D01*
X136726310Y-65106062D01*
X136726310Y-65487015D01*
X136297739Y-64534634D02*
X136250120Y-64487015D01*
X136202501Y-64391777D01*
X136202501Y-64153681D01*
X136250120Y-64058443D01*
X136297739Y-64010824D01*
X136392977Y-63963205D01*
X136488215Y-63963205D01*
X136631072Y-64010824D01*
X137202501Y-64582253D01*
X137202501Y-63963205D01*
X97952261Y-75417746D02*
X97476070Y-75751080D01*
X97952261Y-75989175D02*
X96952261Y-75989175D01*
X96952261Y-75608222D01*
X96999880Y-75512984D01*
X97047499Y-75465365D01*
X97142737Y-75417746D01*
X97285594Y-75417746D01*
X97380832Y-75465365D01*
X97428451Y-75512984D01*
X97476070Y-75608222D01*
X97476070Y-75989175D01*
X96952261Y-75084413D02*
X96952261Y-74465365D01*
X97333213Y-74798699D01*
X97333213Y-74655841D01*
X97380832Y-74560603D01*
X97428451Y-74512984D01*
X97523690Y-74465365D01*
X97761785Y-74465365D01*
X97857023Y-74512984D01*
X97904642Y-74560603D01*
X97952261Y-74655841D01*
X97952261Y-74941556D01*
X97904642Y-75036794D01*
X97857023Y-75084413D01*
X131582254Y-33952261D02*
X131248920Y-33476070D01*
X131010825Y-33952261D02*
X131010825Y-32952261D01*
X131391778Y-32952261D01*
X131487016Y-32999880D01*
X131534635Y-33047499D01*
X131582254Y-33142737D01*
X131582254Y-33285594D01*
X131534635Y-33380832D01*
X131487016Y-33428451D01*
X131391778Y-33476070D01*
X131010825Y-33476070D01*
X132439397Y-33285594D02*
X132439397Y-33952261D01*
X132201301Y-32904642D02*
X131963206Y-33618928D01*
X132582254Y-33618928D01*
X135452501Y-48665586D02*
X134976310Y-48998920D01*
X135452501Y-49237015D02*
X134452501Y-49237015D01*
X134452501Y-48856062D01*
X134500120Y-48760824D01*
X134547739Y-48713205D01*
X134642977Y-48665586D01*
X134785834Y-48665586D01*
X134881072Y-48713205D01*
X134928691Y-48760824D01*
X134976310Y-48856062D01*
X134976310Y-49237015D01*
X134452501Y-47760824D02*
X134452501Y-48237015D01*
X134928691Y-48284634D01*
X134881072Y-48237015D01*
X134833453Y-48141777D01*
X134833453Y-47903681D01*
X134881072Y-47808443D01*
X134928691Y-47760824D01*
X135023930Y-47713205D01*
X135262025Y-47713205D01*
X135357263Y-47760824D01*
X135404882Y-47808443D01*
X135452501Y-47903681D01*
X135452501Y-48141777D01*
X135404882Y-48237015D01*
X135357263Y-48284634D01*
X133952261Y-78417746D02*
X133476070Y-78751080D01*
X133952261Y-78989175D02*
X132952261Y-78989175D01*
X132952261Y-78608222D01*
X132999880Y-78512984D01*
X133047499Y-78465365D01*
X133142737Y-78417746D01*
X133285594Y-78417746D01*
X133380832Y-78465365D01*
X133428451Y-78512984D01*
X133476070Y-78608222D01*
X133476070Y-78989175D01*
X132952261Y-77560603D02*
X132952261Y-77751080D01*
X132999880Y-77846318D01*
X133047499Y-77893937D01*
X133190356Y-77989175D01*
X133380832Y-78036794D01*
X133761785Y-78036794D01*
X133857023Y-77989175D01*
X133904642Y-77941556D01*
X133952261Y-77846318D01*
X133952261Y-77655841D01*
X133904642Y-77560603D01*
X133857023Y-77512984D01*
X133761785Y-77465365D01*
X133523690Y-77465365D01*
X133428451Y-77512984D01*
X133380832Y-77560603D01*
X133333213Y-77655841D01*
X133333213Y-77846318D01*
X133380832Y-77941556D01*
X133428451Y-77989175D01*
X133523690Y-78036794D01*
X110452501Y-51415586D02*
X109976310Y-51748920D01*
X110452501Y-51987015D02*
X109452501Y-51987015D01*
X109452501Y-51606062D01*
X109500120Y-51510824D01*
X109547739Y-51463205D01*
X109642977Y-51415586D01*
X109785834Y-51415586D01*
X109881072Y-51463205D01*
X109928691Y-51510824D01*
X109976310Y-51606062D01*
X109976310Y-51987015D01*
X109452501Y-51082253D02*
X109452501Y-50415586D01*
X110452501Y-50844158D01*
X68082254Y-72952261D02*
X67748920Y-72476070D01*
X67510825Y-72952261D02*
X67510825Y-71952261D01*
X67891778Y-71952261D01*
X67987016Y-71999880D01*
X68034635Y-72047499D01*
X68082254Y-72142737D01*
X68082254Y-72285594D01*
X68034635Y-72380832D01*
X67987016Y-72428451D01*
X67891778Y-72476070D01*
X67510825Y-72476070D01*
X68653682Y-72380832D02*
X68558444Y-72333213D01*
X68510825Y-72285594D01*
X68463206Y-72190356D01*
X68463206Y-72142737D01*
X68510825Y-72047499D01*
X68558444Y-71999880D01*
X68653682Y-71952261D01*
X68844159Y-71952261D01*
X68939397Y-71999880D01*
X68987016Y-72047499D01*
X69034635Y-72142737D01*
X69034635Y-72190356D01*
X68987016Y-72285594D01*
X68939397Y-72333213D01*
X68844159Y-72380832D01*
X68653682Y-72380832D01*
X68558444Y-72428451D01*
X68510825Y-72476070D01*
X68463206Y-72571309D01*
X68463206Y-72761785D01*
X68510825Y-72857023D01*
X68558444Y-72904642D01*
X68653682Y-72952261D01*
X68844159Y-72952261D01*
X68939397Y-72904642D01*
X68987016Y-72857023D01*
X69034635Y-72761785D01*
X69034635Y-72571309D01*
X68987016Y-72476070D01*
X68939397Y-72428451D01*
X68844159Y-72380832D01*
X106834414Y-93952501D02*
X106501080Y-93476310D01*
X106262985Y-93952501D02*
X106262985Y-92952501D01*
X106643938Y-92952501D01*
X106739176Y-93000120D01*
X106786795Y-93047739D01*
X106834414Y-93142977D01*
X106834414Y-93285834D01*
X106786795Y-93381072D01*
X106739176Y-93428691D01*
X106643938Y-93476310D01*
X106262985Y-93476310D01*
X107310604Y-93952501D02*
X107501080Y-93952501D01*
X107596319Y-93904882D01*
X107643938Y-93857263D01*
X107739176Y-93714406D01*
X107786795Y-93523930D01*
X107786795Y-93142977D01*
X107739176Y-93047739D01*
X107691557Y-93000120D01*
X107596319Y-92952501D01*
X107405842Y-92952501D01*
X107310604Y-93000120D01*
X107262985Y-93047739D01*
X107215366Y-93142977D01*
X107215366Y-93381072D01*
X107262985Y-93476310D01*
X107310604Y-93523930D01*
X107405842Y-93571549D01*
X107596319Y-93571549D01*
X107691557Y-93523930D01*
X107739176Y-93476310D01*
X107786795Y-93381072D01*
X91858223Y-39202501D02*
X91524889Y-38726310D01*
X91286794Y-39202501D02*
X91286794Y-38202501D01*
X91667747Y-38202501D01*
X91762985Y-38250120D01*
X91810604Y-38297739D01*
X91858223Y-38392977D01*
X91858223Y-38535834D01*
X91810604Y-38631072D01*
X91762985Y-38678691D01*
X91667747Y-38726310D01*
X91286794Y-38726310D01*
X92810604Y-39202501D02*
X92239175Y-39202501D01*
X92524889Y-39202501D02*
X92524889Y-38202501D01*
X92429651Y-38345358D01*
X92334413Y-38440596D01*
X92239175Y-38488215D01*
X93429651Y-38202501D02*
X93524890Y-38202501D01*
X93620128Y-38250120D01*
X93667747Y-38297739D01*
X93715366Y-38392977D01*
X93762985Y-38583453D01*
X93762985Y-38821549D01*
X93715366Y-39012025D01*
X93667747Y-39107263D01*
X93620128Y-39154882D01*
X93524890Y-39202501D01*
X93429651Y-39202501D01*
X93334413Y-39154882D01*
X93286794Y-39107263D01*
X93239175Y-39012025D01*
X93191556Y-38821549D01*
X93191556Y-38583453D01*
X93239175Y-38392977D01*
X93286794Y-38297739D01*
X93334413Y-38250120D01*
X93429651Y-38202501D01*
X46608223Y-21452501D02*
X46274889Y-20976310D01*
X46036794Y-21452501D02*
X46036794Y-20452501D01*
X46417747Y-20452501D01*
X46512985Y-20500120D01*
X46560604Y-20547739D01*
X46608223Y-20642977D01*
X46608223Y-20785834D01*
X46560604Y-20881072D01*
X46512985Y-20928691D01*
X46417747Y-20976310D01*
X46036794Y-20976310D01*
X47560604Y-21452501D02*
X46989175Y-21452501D01*
X47274889Y-21452501D02*
X47274889Y-20452501D01*
X47179651Y-20595358D01*
X47084413Y-20690596D01*
X46989175Y-20738215D01*
X48512985Y-21452501D02*
X47941556Y-21452501D01*
X48227270Y-21452501D02*
X48227270Y-20452501D01*
X48132032Y-20595358D01*
X48036794Y-20690596D01*
X47941556Y-20738215D01*
X111452261Y-57143937D02*
X110976070Y-57477271D01*
X111452261Y-57715366D02*
X110452261Y-57715366D01*
X110452261Y-57334413D01*
X110499880Y-57239175D01*
X110547499Y-57191556D01*
X110642737Y-57143937D01*
X110785594Y-57143937D01*
X110880832Y-57191556D01*
X110928451Y-57239175D01*
X110976070Y-57334413D01*
X110976070Y-57715366D01*
X111452261Y-56191556D02*
X111452261Y-56762985D01*
X111452261Y-56477271D02*
X110452261Y-56477271D01*
X110595118Y-56572509D01*
X110690356Y-56667747D01*
X110737975Y-56762985D01*
X110547499Y-55810604D02*
X110499880Y-55762985D01*
X110452261Y-55667747D01*
X110452261Y-55429651D01*
X110499880Y-55334413D01*
X110547499Y-55286794D01*
X110642737Y-55239175D01*
X110737975Y-55239175D01*
X110880832Y-55286794D01*
X111452261Y-55858223D01*
X111452261Y-55239175D01*
X50452501Y-87641777D02*
X49976310Y-87975111D01*
X50452501Y-88213206D02*
X49452501Y-88213206D01*
X49452501Y-87832253D01*
X49500120Y-87737015D01*
X49547739Y-87689396D01*
X49642977Y-87641777D01*
X49785834Y-87641777D01*
X49881072Y-87689396D01*
X49928691Y-87737015D01*
X49976310Y-87832253D01*
X49976310Y-88213206D01*
X50452501Y-86689396D02*
X50452501Y-87260825D01*
X50452501Y-86975111D02*
X49452501Y-86975111D01*
X49595358Y-87070349D01*
X49690596Y-87165587D01*
X49738215Y-87260825D01*
X49452501Y-86356063D02*
X49452501Y-85737015D01*
X49833453Y-86070349D01*
X49833453Y-85927491D01*
X49881072Y-85832253D01*
X49928691Y-85784634D01*
X50023930Y-85737015D01*
X50262025Y-85737015D01*
X50357263Y-85784634D01*
X50404882Y-85832253D01*
X50452501Y-85927491D01*
X50452501Y-86213206D01*
X50404882Y-86308444D01*
X50357263Y-86356063D01*
X41858223Y-48702501D02*
X41524889Y-48226310D01*
X41286794Y-48702501D02*
X41286794Y-47702501D01*
X41667747Y-47702501D01*
X41762985Y-47750120D01*
X41810604Y-47797739D01*
X41858223Y-47892977D01*
X41858223Y-48035834D01*
X41810604Y-48131072D01*
X41762985Y-48178691D01*
X41667747Y-48226310D01*
X41286794Y-48226310D01*
X42810604Y-48702501D02*
X42239175Y-48702501D01*
X42524889Y-48702501D02*
X42524889Y-47702501D01*
X42429651Y-47845358D01*
X42334413Y-47940596D01*
X42239175Y-47988215D01*
X43667747Y-48035834D02*
X43667747Y-48702501D01*
X43429651Y-47654882D02*
X43191556Y-48369168D01*
X43810604Y-48369168D01*
X108732166Y-77882216D02*
X108799510Y-78016903D01*
X108967869Y-78185262D01*
X109068884Y-78218934D01*
X109136228Y-78218934D01*
X109237243Y-78185262D01*
X109304586Y-78117919D01*
X109338258Y-78016904D01*
X109338258Y-77949560D01*
X109304587Y-77848544D01*
X109203571Y-77680185D01*
X109169899Y-77579170D01*
X109169899Y-77511827D01*
X109203571Y-77410811D01*
X109270914Y-77343468D01*
X109371930Y-77309796D01*
X109439273Y-77309796D01*
X109540288Y-77343468D01*
X109708647Y-77511827D01*
X109775991Y-77646514D01*
X110045365Y-77848544D02*
X109506616Y-78724010D01*
X110146381Y-78353621D01*
X109775991Y-78993384D01*
X110651456Y-78454636D01*
X110853487Y-78656666D02*
X111291220Y-79094399D01*
X110786143Y-79128070D01*
X110887159Y-79229086D01*
X110920831Y-79330101D01*
X110920831Y-79397445D01*
X110887158Y-79498461D01*
X110718800Y-79666819D01*
X110617785Y-79700491D01*
X110550441Y-79700491D01*
X110449426Y-79666819D01*
X110247395Y-79464788D01*
X110213723Y-79363773D01*
X110213723Y-79296430D01*
X127309796Y-76804586D02*
X127377140Y-76939273D01*
X127545499Y-77107632D01*
X127646514Y-77141304D01*
X127713858Y-77141304D01*
X127814873Y-77107632D01*
X127882216Y-77040289D01*
X127915888Y-76939274D01*
X127915888Y-76871930D01*
X127882217Y-76770914D01*
X127781201Y-76602555D01*
X127747529Y-76501540D01*
X127747529Y-76434197D01*
X127781201Y-76333181D01*
X127848544Y-76265838D01*
X127949560Y-76232166D01*
X128016903Y-76232166D01*
X128117918Y-76265838D01*
X128286277Y-76434197D01*
X128353621Y-76568884D01*
X128622995Y-76770914D02*
X128084246Y-77646380D01*
X128724011Y-77275991D01*
X128353621Y-77915754D01*
X129229086Y-77377006D01*
X129801506Y-77949426D02*
X129666819Y-77814738D01*
X129565803Y-77781067D01*
X129498460Y-77781067D01*
X129330101Y-77814738D01*
X129161743Y-77915754D01*
X128892368Y-78185128D01*
X128858697Y-78286143D01*
X128858697Y-78353487D01*
X128892368Y-78454502D01*
X129027056Y-78589189D01*
X129128071Y-78622861D01*
X129195415Y-78622861D01*
X129296430Y-78589189D01*
X129464788Y-78420831D01*
X129498461Y-78319815D01*
X129498461Y-78252471D01*
X129464789Y-78151456D01*
X129330101Y-78016769D01*
X129229086Y-77983097D01*
X129161743Y-77983097D01*
X129060727Y-78016769D01*
X117482166Y-86632216D02*
X117549510Y-86766903D01*
X117717869Y-86935262D01*
X117818884Y-86968934D01*
X117886228Y-86968934D01*
X117987243Y-86935262D01*
X118054586Y-86867919D01*
X118088258Y-86766904D01*
X118088258Y-86699560D01*
X118054587Y-86598544D01*
X117953571Y-86430185D01*
X117919899Y-86329170D01*
X117919899Y-86261827D01*
X117953571Y-86160811D01*
X118020914Y-86093468D01*
X118121930Y-86059796D01*
X118189273Y-86059796D01*
X118290288Y-86093468D01*
X118458647Y-86261827D01*
X118525991Y-86396514D01*
X118795365Y-86598544D02*
X118256616Y-87474010D01*
X118896381Y-87103621D01*
X118525991Y-87743384D01*
X119401456Y-87204636D01*
X118997395Y-88214788D02*
X119132082Y-88349475D01*
X119233098Y-88383148D01*
X119300441Y-88383148D01*
X119468800Y-88349476D01*
X119637158Y-88248461D01*
X119906533Y-87979086D01*
X119940204Y-87878071D01*
X119940204Y-87810728D01*
X119906533Y-87709713D01*
X119771845Y-87575025D01*
X119670830Y-87541353D01*
X119603487Y-87541353D01*
X119502471Y-87575025D01*
X119334113Y-87743384D01*
X119300441Y-87844399D01*
X119300440Y-87911743D01*
X119334112Y-88012758D01*
X119468800Y-88147446D01*
X119569815Y-88181117D01*
X119637159Y-88181117D01*
X119738174Y-88147445D01*
X117145448Y-68795498D02*
X117212792Y-68930185D01*
X117381151Y-69098544D01*
X117482166Y-69132216D01*
X117549510Y-69132216D01*
X117650525Y-69098544D01*
X117717868Y-69031201D01*
X117751540Y-68930186D01*
X117751540Y-68862842D01*
X117717869Y-68761827D01*
X117616853Y-68593467D01*
X117583181Y-68492452D01*
X117583181Y-68425109D01*
X117616853Y-68324094D01*
X117684197Y-68256750D01*
X117785212Y-68223078D01*
X117852555Y-68223078D01*
X117953570Y-68256750D01*
X118121930Y-68425109D01*
X118189273Y-68559796D01*
X118458647Y-68761827D02*
X117919899Y-69637292D01*
X118559663Y-69266903D01*
X118189273Y-69906666D01*
X119064738Y-69367918D01*
X118997395Y-70714788D02*
X118593334Y-70310727D01*
X118795364Y-70512757D02*
X119502471Y-69805651D01*
X119334112Y-69839322D01*
X119199425Y-69839322D01*
X119098410Y-69805651D01*
X119906532Y-70344399D02*
X119973875Y-70344399D01*
X120074891Y-70378070D01*
X120243250Y-70546430D01*
X120276922Y-70647445D01*
X120276922Y-70714788D01*
X120243250Y-70815803D01*
X120175906Y-70883147D01*
X120041220Y-70950490D01*
X119233097Y-70950490D01*
X119670830Y-71388223D01*
X113416667Y-17892762D02*
X113559524Y-17940381D01*
X113797620Y-17940381D01*
X113892858Y-17892762D01*
X113940477Y-17845143D01*
X113988096Y-17749905D01*
X113988096Y-17654667D01*
X113940477Y-17559429D01*
X113892858Y-17511810D01*
X113797620Y-17464190D01*
X113607143Y-17416571D01*
X113511905Y-17368952D01*
X113464286Y-17321333D01*
X113416667Y-17226095D01*
X113416667Y-17130857D01*
X113464286Y-17035619D01*
X113511905Y-16988000D01*
X113607143Y-16940381D01*
X113845239Y-16940381D01*
X113988096Y-16988000D01*
X114321429Y-16940381D02*
X114559524Y-17940381D01*
X114750001Y-17226095D01*
X114940477Y-17940381D01*
X115178572Y-16940381D01*
X116083334Y-17940381D02*
X115511905Y-17940381D01*
X115797619Y-17940381D02*
X115797619Y-16940381D01*
X115702381Y-17083238D01*
X115607143Y-17178476D01*
X115511905Y-17226095D01*
X141372762Y-66123333D02*
X141420381Y-65980476D01*
X141420381Y-65742380D01*
X141372762Y-65647142D01*
X141325143Y-65599523D01*
X141229905Y-65551904D01*
X141134667Y-65551904D01*
X141039429Y-65599523D01*
X140991810Y-65647142D01*
X140944190Y-65742380D01*
X140896571Y-65932857D01*
X140848952Y-66028095D01*
X140801333Y-66075714D01*
X140706095Y-66123333D01*
X140610857Y-66123333D01*
X140515619Y-66075714D01*
X140468000Y-66028095D01*
X140420381Y-65932857D01*
X140420381Y-65694761D01*
X140468000Y-65551904D01*
X140420381Y-65218571D02*
X141420381Y-64980476D01*
X140706095Y-64789999D01*
X141420381Y-64599523D01*
X140420381Y-64361428D01*
X140515619Y-64028095D02*
X140468000Y-63980476D01*
X140420381Y-63885238D01*
X140420381Y-63647142D01*
X140468000Y-63551904D01*
X140515619Y-63504285D01*
X140610857Y-63456666D01*
X140706095Y-63456666D01*
X140848952Y-63504285D01*
X141420381Y-64075714D01*
X141420381Y-63456666D01*
X119982166Y-31882216D02*
X120049510Y-32016903D01*
X120217869Y-32185262D01*
X120318884Y-32218934D01*
X120386228Y-32218934D01*
X120487243Y-32185262D01*
X120554586Y-32117919D01*
X120588258Y-32016904D01*
X120588258Y-31949560D01*
X120554587Y-31848544D01*
X120453571Y-31680185D01*
X120419899Y-31579170D01*
X120419899Y-31511827D01*
X120453571Y-31410811D01*
X120520914Y-31343468D01*
X120621930Y-31309796D01*
X120689273Y-31309796D01*
X120790288Y-31343468D01*
X120958647Y-31511827D01*
X121025991Y-31646514D01*
X121295365Y-31848544D02*
X120756616Y-32724010D01*
X121396381Y-32353621D01*
X121025991Y-32993384D01*
X121901456Y-32454636D01*
X122238174Y-33262758D02*
X121766769Y-33734163D01*
X122339189Y-32825025D02*
X121665754Y-33161743D01*
X122103487Y-33599476D01*
X141372762Y-48343333D02*
X141420381Y-48200476D01*
X141420381Y-47962380D01*
X141372762Y-47867142D01*
X141325143Y-47819523D01*
X141229905Y-47771904D01*
X141134667Y-47771904D01*
X141039429Y-47819523D01*
X140991810Y-47867142D01*
X140944190Y-47962380D01*
X140896571Y-48152857D01*
X140848952Y-48248095D01*
X140801333Y-48295714D01*
X140706095Y-48343333D01*
X140610857Y-48343333D01*
X140515619Y-48295714D01*
X140468000Y-48248095D01*
X140420381Y-48152857D01*
X140420381Y-47914761D01*
X140468000Y-47771904D01*
X140420381Y-47438571D02*
X141420381Y-47200476D01*
X140706095Y-47009999D01*
X141420381Y-46819523D01*
X140420381Y-46581428D01*
X140420381Y-45724285D02*
X140420381Y-46200476D01*
X140896571Y-46248095D01*
X140848952Y-46200476D01*
X140801333Y-46105238D01*
X140801333Y-45867142D01*
X140848952Y-45771904D01*
X140896571Y-45724285D01*
X140991810Y-45676666D01*
X141229905Y-45676666D01*
X141325143Y-45724285D01*
X141372762Y-45771904D01*
X141420381Y-45867142D01*
X141420381Y-46105238D01*
X141372762Y-46200476D01*
X141325143Y-46248095D01*
X108982166Y-40132216D02*
X109049510Y-40266903D01*
X109217869Y-40435262D01*
X109318884Y-40468934D01*
X109386228Y-40468934D01*
X109487243Y-40435262D01*
X109554586Y-40367919D01*
X109588258Y-40266904D01*
X109588258Y-40199560D01*
X109554587Y-40098544D01*
X109453571Y-39930185D01*
X109419899Y-39829170D01*
X109419899Y-39761827D01*
X109453571Y-39660811D01*
X109520914Y-39593468D01*
X109621930Y-39559796D01*
X109689273Y-39559796D01*
X109790288Y-39593468D01*
X109958647Y-39761827D01*
X110025991Y-39896514D01*
X110295365Y-40098544D02*
X109756616Y-40974010D01*
X110396381Y-40603621D01*
X110025991Y-41243384D01*
X110901456Y-40704636D01*
X111103487Y-40906666D02*
X111574891Y-41378071D01*
X110564738Y-41782132D01*
X101895448Y-26295498D02*
X101962792Y-26430185D01*
X102131151Y-26598544D01*
X102232166Y-26632216D01*
X102299510Y-26632216D01*
X102400525Y-26598544D01*
X102467868Y-26531201D01*
X102501540Y-26430186D01*
X102501540Y-26362842D01*
X102467869Y-26261827D01*
X102366853Y-26093467D01*
X102333181Y-25992452D01*
X102333181Y-25925109D01*
X102366853Y-25824094D01*
X102434197Y-25756750D01*
X102535212Y-25723078D01*
X102602555Y-25723078D01*
X102703570Y-25756750D01*
X102871930Y-25925109D01*
X102939273Y-26059796D01*
X103208647Y-26261827D02*
X102669899Y-27137292D01*
X103309663Y-26766903D01*
X102939273Y-27406666D01*
X103814738Y-26867918D01*
X103747395Y-28214788D02*
X103343334Y-27810727D01*
X103545364Y-28012757D02*
X104252471Y-27305651D01*
X104084112Y-27339322D01*
X103949425Y-27339322D01*
X103848410Y-27305651D01*
X104892234Y-27945414D02*
X104959578Y-28012758D01*
X104993250Y-28113773D01*
X104993250Y-28181117D01*
X104959578Y-28282132D01*
X104858563Y-28450490D01*
X104690204Y-28618850D01*
X104521845Y-28719865D01*
X104420830Y-28753536D01*
X104353487Y-28753536D01*
X104252471Y-28719865D01*
X104185127Y-28652521D01*
X104151456Y-28551505D01*
X104151456Y-28484162D01*
X104185127Y-28383147D01*
X104286142Y-28214788D01*
X104454502Y-28046429D01*
X104622860Y-27945414D01*
X104723875Y-27911742D01*
X104791219Y-27911742D01*
X104892234Y-27945414D01*
M02*
