G04 #@! TF.FileFunction,Copper,L1,Top,Signal*
%FSLAX46Y46*%
G04 Gerber Fmt 4.6, Leading zero omitted, Abs format (unit mm)*
G04 Created by KiCad (PCBNEW (2015-12-28 BZR 6407, Git 3dff6c0)-product) date Sun 24 Jan 2016 05:08:26 PM EST*
%MOMM*%
G01*
G04 APERTURE LIST*
%ADD10C,0.100000*%
%ADD11R,2.000000X1.900000*%
%ADD12C,1.900000*%
%ADD13O,1.600000X1.600000*%
%ADD14R,1.727200X1.727200*%
%ADD15O,1.727200X1.727200*%
%ADD16C,1.998980*%
%ADD17C,1.397000*%
%ADD18C,0.600000*%
G04 APERTURE END LIST*
D10*
D11*
X38750000Y-88000000D03*
D12*
X38750000Y-90540000D03*
D13*
X48530000Y-59540000D03*
X45990000Y-59540000D03*
X43450000Y-59540000D03*
X40910000Y-59540000D03*
X40910000Y-51920000D03*
X43450000Y-51920000D03*
X45990000Y-51920000D03*
X48530000Y-51920000D03*
D14*
X25210000Y-78010000D03*
D15*
X22670000Y-78010000D03*
X25210000Y-75470000D03*
X22670000Y-75470000D03*
X25210000Y-72930000D03*
X22670000Y-72930000D03*
X25210000Y-70390000D03*
X22670000Y-70390000D03*
X25210000Y-67850000D03*
X22670000Y-67850000D03*
X25210000Y-65310000D03*
X22670000Y-65310000D03*
X25210000Y-62770000D03*
X22670000Y-62770000D03*
X25210000Y-60230000D03*
X22670000Y-60230000D03*
X25210000Y-57690000D03*
X22670000Y-57690000D03*
X25210000Y-55150000D03*
X22670000Y-55150000D03*
X25210000Y-52610000D03*
X22670000Y-52610000D03*
X25210000Y-50070000D03*
X22670000Y-50070000D03*
X25210000Y-47530000D03*
X22670000Y-47530000D03*
X25210000Y-44990000D03*
X22670000Y-44990000D03*
X25210000Y-42450000D03*
X22670000Y-42450000D03*
X25210000Y-39910000D03*
X22670000Y-39910000D03*
X25210000Y-37370000D03*
X22670000Y-37370000D03*
X25210000Y-34830000D03*
X22670000Y-34830000D03*
X25210000Y-32290000D03*
X22670000Y-32290000D03*
X25210000Y-29750000D03*
X22670000Y-29750000D03*
D16*
X132830000Y-18000000D03*
X122670000Y-18000000D03*
X133250000Y-59420000D03*
X133250000Y-69580000D03*
X101000000Y-80580000D03*
X101000000Y-70420000D03*
X126420000Y-37000000D03*
X136580000Y-37000000D03*
X131500000Y-43170000D03*
X131500000Y-53330000D03*
X137000000Y-83580000D03*
X137000000Y-73420000D03*
X106500000Y-45920000D03*
X106500000Y-56080000D03*
X62920000Y-76000000D03*
X73080000Y-76000000D03*
X112330000Y-90000000D03*
X102170000Y-90000000D03*
X97830000Y-35250000D03*
X87670000Y-35250000D03*
X52580000Y-17500000D03*
X42420000Y-17500000D03*
X114500000Y-61830000D03*
X114500000Y-51670000D03*
X46500000Y-81670000D03*
X46500000Y-91830000D03*
X47830000Y-44750000D03*
X37670000Y-44750000D03*
D17*
X106009872Y-77101974D03*
X109601974Y-73509872D03*
X111398026Y-82490128D03*
X114990128Y-78898026D03*
X132490128Y-78898026D03*
X128898026Y-82490128D03*
X127101974Y-73509872D03*
X123509872Y-77101974D03*
X114759872Y-85851974D03*
X118351974Y-82259872D03*
X120148026Y-91240128D03*
X123740128Y-87648026D03*
X114759872Y-68351974D03*
X118351974Y-64759872D03*
X120148026Y-73740128D03*
X123740128Y-70148026D03*
X118560000Y-15710000D03*
X118560000Y-20790000D03*
X110940000Y-15710000D03*
X110940000Y-20790000D03*
X139190000Y-60980000D03*
X144270000Y-60980000D03*
X139190000Y-68600000D03*
X144270000Y-68600000D03*
X117259872Y-31101974D03*
X120851974Y-27509872D03*
X122648026Y-36490128D03*
X126240128Y-32898026D03*
X139190000Y-43200000D03*
X144270000Y-43200000D03*
X139190000Y-50820000D03*
X144270000Y-50820000D03*
X106259872Y-39351974D03*
X109851974Y-35759872D03*
X111648026Y-44740128D03*
X115240128Y-41148026D03*
X63040000Y-82440000D03*
X57960000Y-82440000D03*
X63040000Y-90060000D03*
X57960000Y-90060000D03*
X99509872Y-25851974D03*
X103101974Y-22259872D03*
X104898026Y-31240128D03*
X108490128Y-27648026D03*
X63790000Y-18940000D03*
X58710000Y-18940000D03*
X63790000Y-26560000D03*
X58710000Y-26560000D03*
D18*
X40910000Y-59540000D02*
X40910000Y-60090000D01*
X40910000Y-60090000D02*
X30610000Y-70390000D01*
X30610000Y-70390000D02*
X25210000Y-70390000D01*
X40040000Y-91830000D02*
X38750000Y-90540000D01*
X46500000Y-91830000D02*
X40040000Y-91830000D01*
X45990000Y-81160000D02*
X45990000Y-59540000D01*
X46500000Y-81670000D02*
X45990000Y-81160000D01*
X25210000Y-39910000D02*
X30590000Y-39910000D01*
X43450000Y-56550000D02*
X43450000Y-59540000D01*
X43500000Y-56500000D02*
X43450000Y-56550000D01*
X33250000Y-56500000D02*
X43500000Y-56500000D01*
X33250000Y-42570000D02*
X33250000Y-56500000D01*
X30590000Y-39910000D02*
X33250000Y-42570000D01*
X115240100Y-41148000D02*
X109852000Y-35759900D01*
X126240100Y-32898000D02*
X120852000Y-27509900D01*
X20970800Y-77169200D02*
X22670000Y-75470000D01*
X20970800Y-79570200D02*
X20970800Y-77169200D01*
X22513100Y-81112500D02*
X20970800Y-79570200D01*
X43303500Y-81112500D02*
X22513100Y-81112500D01*
X45663100Y-83472100D02*
X43303500Y-81112500D01*
X47341400Y-83472100D02*
X45663100Y-83472100D01*
X58593800Y-72219700D02*
X47341400Y-83472100D01*
X58593800Y-72082200D02*
X58593800Y-72219700D01*
X63824900Y-66851100D02*
X58593800Y-72082200D01*
X128433700Y-66851100D02*
X63824900Y-66851100D01*
X144270000Y-51014800D02*
X128433700Y-66851100D01*
X144270000Y-50820000D02*
X144270000Y-51014800D01*
X110940000Y-20790000D02*
X118560000Y-20790000D01*
X141490300Y-71379700D02*
X144270000Y-68600000D01*
X126234800Y-71379700D02*
X141490300Y-71379700D01*
X125722000Y-71892500D02*
X126234800Y-71379700D01*
X106136600Y-71892500D02*
X125722000Y-71892500D01*
X105809400Y-72219700D02*
X106136600Y-71892500D01*
X60149600Y-72219700D02*
X105809400Y-72219700D01*
X47797100Y-84572200D02*
X60149600Y-72219700D01*
X45207400Y-84572200D02*
X47797100Y-84572200D01*
X42847800Y-82212600D02*
X45207400Y-84572200D01*
X22057400Y-82212600D02*
X42847800Y-82212600D01*
X19870700Y-80025900D02*
X22057400Y-82212600D01*
X19870700Y-75729300D02*
X19870700Y-80025900D01*
X22670000Y-72930000D02*
X19870700Y-75729300D01*
X61970900Y-73509900D02*
X109602000Y-73509900D01*
X49808500Y-85672300D02*
X61970900Y-73509900D01*
X44751600Y-85672300D02*
X49808500Y-85672300D01*
X42392000Y-83312700D02*
X44751600Y-85672300D01*
X21601700Y-83312700D02*
X42392000Y-83312700D01*
X18770600Y-80481600D02*
X21601700Y-83312700D01*
X18770600Y-69209400D02*
X18770600Y-80481600D01*
X22670000Y-65310000D02*
X18770600Y-69209400D01*
X87670000Y-37250000D02*
X87670000Y-35250000D01*
X106500000Y-56080000D02*
X87670000Y-37250000D01*
X60170000Y-35250000D02*
X42420000Y-17500000D01*
X87670000Y-35250000D02*
X60170000Y-35250000D01*
X133250000Y-55080000D02*
X133250000Y-59420000D01*
X131500000Y-53330000D02*
X133250000Y-55080000D01*
X132830000Y-33250000D02*
X132830000Y-18000000D01*
X136580000Y-37000000D02*
X132830000Y-33250000D01*
X114666700Y-77102000D02*
X123509900Y-77102000D01*
X104996300Y-86772400D02*
X114666700Y-77102000D01*
X44295900Y-86772400D02*
X104996300Y-86772400D01*
X42116700Y-84593200D02*
X44295900Y-86772400D01*
X22763900Y-84593200D02*
X42116700Y-84593200D01*
X22583500Y-84412800D02*
X22763900Y-84593200D01*
X21146000Y-84412800D02*
X22583500Y-84412800D01*
X17670500Y-80937300D02*
X21146000Y-84412800D01*
X17670500Y-52529500D02*
X17670500Y-80937300D01*
X22670000Y-47530000D02*
X17670500Y-52529500D01*
X116218500Y-82259900D02*
X118352000Y-82259900D01*
X110605900Y-87872500D02*
X116218500Y-82259900D01*
X43840200Y-87872500D02*
X110605900Y-87872500D01*
X41671900Y-85704200D02*
X43840200Y-87872500D01*
X20881600Y-85704200D02*
X41671900Y-85704200D01*
X16570400Y-81393000D02*
X20881600Y-85704200D01*
X16570400Y-51089600D02*
X16570400Y-81393000D01*
X22670000Y-44990000D02*
X16570400Y-51089600D01*
X19873400Y-39653400D02*
X22670000Y-42450000D01*
X19873400Y-28580800D02*
X19873400Y-39653400D01*
X21528300Y-26925900D02*
X19873400Y-28580800D01*
X26621200Y-26925900D02*
X21528300Y-26925900D01*
X64455200Y-64759900D02*
X26621200Y-26925900D01*
X118352000Y-64759900D02*
X64455200Y-64759900D01*
X110940000Y-15710000D02*
X118560000Y-15710000D01*
X134230000Y-68600000D02*
X133250000Y-69580000D01*
X139190000Y-68600000D02*
X134230000Y-68600000D01*
X125910100Y-36490100D02*
X126420000Y-37000000D01*
X122648000Y-36490100D02*
X125910100Y-36490100D01*
X131530000Y-43200000D02*
X131500000Y-43170000D01*
X139190000Y-43200000D02*
X131530000Y-43200000D01*
X107679900Y-40772000D02*
X106259900Y-39352000D01*
X107679900Y-44740100D02*
X107679900Y-40772000D01*
X107679900Y-44740100D02*
X106500000Y-45920000D01*
X63040000Y-76120000D02*
X62920000Y-76000000D01*
X63040000Y-82440000D02*
X63040000Y-76120000D01*
X103369000Y-29711000D02*
X97830000Y-35250000D01*
X104898000Y-31240100D02*
X103369000Y-29711000D01*
X103369000Y-29711000D02*
X99509900Y-25852000D01*
X52645500Y-17434500D02*
X52580000Y-17500000D01*
X62284500Y-17434500D02*
X52645500Y-17434500D01*
X63790000Y-18940000D02*
X62284500Y-17434500D01*
M02*
