M48
;DRILL file {KiCad 0.201507290901+6012~27~ubuntu14.04.1-product} date Thu 30 Jul 2015 05:29:44 PM EDT
;FORMAT={-:-/ absolute / metric / decimal}
FMAT,2
METRIC,TZ
T1C0.800
T2C0.813
T3C1.001
T4C1.016
%
G90
G05
M71
T1
X128.96Y-44.91
X128.96Y-47.45
X128.96Y-49.99
X128.96Y-52.53
X136.58Y-44.91
X136.58Y-47.45
X136.58Y-49.99
X136.58Y-52.53
T2
X95.9Y-61.96
X95.9Y-67.04
X97.26Y-124.148
X100.852Y-127.74
X102.648Y-118.76
X106.01Y-115.398
X106.01Y-132.898
X106.24Y-122.352
X108.6Y-61.96
X108.6Y-67.04
X109.602Y-118.99
X109.602Y-136.49
X111.398Y-110.01
X111.398Y-127.51
X114.76Y-124.148
X114.99Y-113.602
X114.99Y-131.102
X118.352Y-127.74
X120.148Y-118.76
X123.74Y-122.352
X135.714Y-117.444
X139.306Y-121.036
X144.694Y-108.464
X146.714Y-129.444
X148.286Y-112.056
X150.306Y-133.036
X151.214Y-109.194
X154.806Y-112.786
X155.694Y-120.464
X159.286Y-124.056
X159.4Y-62.71
X159.4Y-67.79
X160.194Y-100.214
X162.214Y-121.444
X163.786Y-103.806
X165.806Y-125.036
X171.194Y-112.464
X172.1Y-62.71
X172.1Y-67.79
X174.786Y-116.056
T3
X96.67Y-50.5
X97.96Y-42.75
X100.5Y-42.75
X105.375Y-90.625
X105.625Y-80.485
X105.625Y-85.565
X106.83Y-50.5
X115.535Y-90.625
X115.785Y-80.485
X115.785Y-85.565
X119.595Y-80.485
X119.595Y-85.565
X119.595Y-90.645
X129.755Y-80.485
X129.755Y-85.565
X129.755Y-90.645
X133.565Y-80.485
X133.565Y-85.565
X133.565Y-90.645
X143.725Y-80.485
X143.725Y-85.565
X143.725Y-90.645
X146.Y-49.92
X146.Y-60.08
X147.535Y-80.485
X147.535Y-85.565
X147.535Y-90.645
X157.695Y-80.485
X157.695Y-85.565
X157.695Y-90.645
T4
X110.49Y-26.67
X110.49Y-29.21
X113.03Y-26.67
X113.03Y-29.21
X115.57Y-26.67
X115.57Y-29.21
X118.11Y-26.67
X118.11Y-29.21
X120.65Y-26.67
X120.65Y-29.21
X123.19Y-26.67
X123.19Y-29.21
X125.73Y-26.67
X125.73Y-29.21
X128.27Y-26.67
X128.27Y-29.21
X130.81Y-26.67
X130.81Y-29.21
X133.35Y-26.67
X133.35Y-29.21
X135.89Y-26.67
X135.89Y-29.21
X138.43Y-26.67
X138.43Y-29.21
X140.97Y-26.67
X140.97Y-29.21
X143.51Y-26.67
X143.51Y-29.21
X146.05Y-26.67
X146.05Y-29.21
X148.59Y-26.67
X148.59Y-29.21
X151.13Y-26.67
X151.13Y-29.21
X153.67Y-26.67
X153.67Y-29.21
X156.21Y-26.67
X156.21Y-29.21
X158.75Y-26.67
X158.75Y-29.21
T0
M30
