G04 #@! TF.FileFunction,Copper,L2,Bot,Signal*
%FSLAX46Y46*%
G04 Gerber Fmt 4.6, Leading zero omitted, Abs format (unit mm)*
G04 Created by KiCad (PCBNEW 0.201507290901+6012~27~ubuntu14.04.1-product) date Thu 30 Jul 2015 05:29:40 PM EDT*
%MOMM*%
G01*
G04 APERTURE LIST*
%ADD10C,0.100000*%
%ADD11R,1.900000X2.000000*%
%ADD12C,1.900000*%
%ADD13O,1.600000X1.600000*%
%ADD14R,1.727200X1.727200*%
%ADD15O,1.727200X1.727200*%
%ADD16C,1.998980*%
%ADD17C,1.727200*%
%ADD18O,3.048000X1.727200*%
%ADD19C,1.397000*%
%ADD20C,0.600000*%
G04 APERTURE END LIST*
D10*
D11*
X100500000Y-42750000D03*
D12*
X97960000Y-42750000D03*
D13*
X128960000Y-52530000D03*
X128960000Y-49990000D03*
X128960000Y-47450000D03*
X128960000Y-44910000D03*
X136580000Y-44910000D03*
X136580000Y-47450000D03*
X136580000Y-49990000D03*
X136580000Y-52530000D03*
D14*
X110490000Y-29210000D03*
D15*
X110490000Y-26670000D03*
X113030000Y-29210000D03*
X113030000Y-26670000D03*
X115570000Y-29210000D03*
X115570000Y-26670000D03*
X118110000Y-29210000D03*
X118110000Y-26670000D03*
X120650000Y-29210000D03*
X120650000Y-26670000D03*
X123190000Y-29210000D03*
X123190000Y-26670000D03*
X125730000Y-29210000D03*
X125730000Y-26670000D03*
X128270000Y-29210000D03*
X128270000Y-26670000D03*
X130810000Y-29210000D03*
X130810000Y-26670000D03*
X133350000Y-29210000D03*
X133350000Y-26670000D03*
X135890000Y-29210000D03*
X135890000Y-26670000D03*
X138430000Y-29210000D03*
X138430000Y-26670000D03*
X140970000Y-29210000D03*
X140970000Y-26670000D03*
X143510000Y-29210000D03*
X143510000Y-26670000D03*
X146050000Y-29210000D03*
X146050000Y-26670000D03*
X148590000Y-29210000D03*
X148590000Y-26670000D03*
X151130000Y-29210000D03*
X151130000Y-26670000D03*
X153670000Y-29210000D03*
X153670000Y-26670000D03*
X156210000Y-29210000D03*
X156210000Y-26670000D03*
X158750000Y-29210000D03*
X158750000Y-26670000D03*
D16*
X129755000Y-80485000D03*
X119595000Y-80485000D03*
X115785000Y-80485000D03*
X105625000Y-80485000D03*
X143725000Y-80485000D03*
X133565000Y-80485000D03*
X157695000Y-80485000D03*
X147535000Y-80485000D03*
X115785000Y-85565000D03*
X105625000Y-85565000D03*
X129755000Y-85565000D03*
X119595000Y-85565000D03*
X143725000Y-85565000D03*
X133565000Y-85565000D03*
X157695000Y-85565000D03*
X147535000Y-85565000D03*
X115535000Y-90625000D03*
X105375000Y-90625000D03*
X129755000Y-90645000D03*
X119595000Y-90645000D03*
X143725000Y-90645000D03*
X133565000Y-90645000D03*
X157695000Y-90645000D03*
X147535000Y-90645000D03*
X106830000Y-50500000D03*
X96670000Y-50500000D03*
X146000000Y-49920000D03*
X146000000Y-60080000D03*
D17*
X155227104Y-120930794D02*
X156161050Y-119996848D01*
X158819206Y-124522896D02*
X159753152Y-123588950D01*
X146246848Y-129911050D02*
X147180794Y-128977104D01*
X149838950Y-133503152D02*
X150772896Y-132569206D01*
X144227104Y-108930794D02*
X145161050Y-107996848D01*
X147819206Y-112522896D02*
X148753152Y-111588950D01*
X135246848Y-117911050D02*
X136180794Y-116977104D01*
X138838950Y-121503152D02*
X139772896Y-120569206D01*
D18*
X108600000Y-67040000D03*
X108600000Y-61960000D03*
X95900000Y-67040000D03*
X95900000Y-61960000D03*
D17*
X159727104Y-100680794D02*
X160661050Y-99746848D01*
X163319206Y-104272896D02*
X164253152Y-103338950D01*
X150746848Y-109661050D02*
X151680794Y-108727104D01*
X154338950Y-113253152D02*
X155272896Y-112319206D01*
D18*
X172100000Y-67790000D03*
X172100000Y-62710000D03*
X159400000Y-67790000D03*
X159400000Y-62710000D03*
D17*
X170727104Y-112930794D02*
X171661050Y-111996848D01*
X174319206Y-116522896D02*
X175253152Y-115588950D01*
X161746848Y-121911050D02*
X162680794Y-120977104D01*
X165338950Y-125503152D02*
X166272896Y-124569206D01*
D19*
X111398026Y-110009872D03*
X114990128Y-113601974D03*
X106009872Y-115398026D03*
X109601974Y-118990128D03*
X109601974Y-136490128D03*
X106009872Y-132898026D03*
X114990128Y-131101974D03*
X111398026Y-127509872D03*
X102648026Y-118759872D03*
X106240128Y-122351974D03*
X97259872Y-124148026D03*
X100851974Y-127740128D03*
X120148026Y-118759872D03*
X123740128Y-122351974D03*
X114759872Y-124148026D03*
X118351974Y-127740128D03*
D20*
X104410100Y-44910000D02*
X102250100Y-42750000D01*
X128960000Y-44910000D02*
X104410100Y-44910000D01*
X100500000Y-42750000D02*
X102250100Y-42750000D01*
X110171200Y-26670000D02*
X110490000Y-26670000D01*
X126849900Y-50500000D02*
X127359900Y-49990000D01*
X106830000Y-50500000D02*
X126849900Y-50500000D01*
X128960000Y-49990000D02*
X127359900Y-49990000D01*
X146000000Y-54330000D02*
X146000000Y-60080000D01*
X136580000Y-44910000D02*
X146000000Y-54330000D01*
X139305900Y-121036200D02*
X148286200Y-112055900D01*
X150305900Y-133036200D02*
X159286200Y-124055900D01*
X165805900Y-125036200D02*
X174786200Y-116055900D01*
X95900000Y-61960000D02*
X108600000Y-61960000D01*
X108600000Y-61960000D02*
X110924100Y-61960000D01*
X113401500Y-64437400D02*
X110924100Y-61960000D01*
X173409600Y-64437400D02*
X113401500Y-64437400D01*
X174449700Y-63397300D02*
X173409600Y-64437400D01*
X174449700Y-62001300D02*
X174449700Y-63397300D01*
X173481500Y-61033100D02*
X174449700Y-62001300D01*
X147761700Y-61033100D02*
X173481500Y-61033100D01*
X146907900Y-61886900D02*
X147761700Y-61033100D01*
X145261700Y-61886900D02*
X146907900Y-61886900D01*
X139526400Y-56151600D02*
X145261700Y-61886900D01*
X137887100Y-56151600D02*
X139526400Y-56151600D01*
X132463900Y-50728400D02*
X137887100Y-56151600D01*
X132463900Y-44519100D02*
X132463900Y-50728400D01*
X122188000Y-34243200D02*
X132463900Y-44519100D01*
X111032000Y-34243200D02*
X122188000Y-34243200D01*
X107662400Y-30873600D02*
X111032000Y-34243200D01*
X107662400Y-27122800D02*
X107662400Y-30873600D01*
X109829000Y-24956200D02*
X107662400Y-27122800D01*
X116396200Y-24956200D02*
X109829000Y-24956200D01*
X118110000Y-26670000D02*
X116396200Y-24956200D01*
X154805900Y-112786200D02*
X163786200Y-103805900D01*
X172100000Y-62710000D02*
X159400000Y-62710000D01*
X159400000Y-62710000D02*
X157075900Y-62710000D01*
X156732100Y-63053800D02*
X157075900Y-62710000D01*
X143233500Y-63053800D02*
X156732100Y-63053800D01*
X131363800Y-51184100D02*
X143233500Y-63053800D01*
X131363800Y-45018000D02*
X131363800Y-51184100D01*
X122086800Y-35741000D02*
X131363800Y-45018000D01*
X110974000Y-35741000D02*
X122086800Y-35741000D01*
X106562300Y-31329300D02*
X110974000Y-35741000D01*
X106562300Y-26657900D02*
X106562300Y-31329300D01*
X109364100Y-23856100D02*
X106562300Y-26657900D01*
X117836100Y-23856100D02*
X109364100Y-23856100D01*
X120650000Y-26670000D02*
X117836100Y-23856100D01*
X109602000Y-118990100D02*
X114990100Y-113602000D01*
X124675000Y-80485000D02*
X129755000Y-80485000D01*
X119595000Y-85565000D02*
X124675000Y-80485000D01*
X115785000Y-82265700D02*
X115785000Y-80485000D01*
X116295700Y-82265700D02*
X115785000Y-82265700D01*
X119595000Y-85565000D02*
X116295700Y-82265700D01*
X108924300Y-82265700D02*
X105625000Y-85565000D01*
X115785000Y-82265700D02*
X108924300Y-82265700D01*
X147535000Y-85565000D02*
X147535000Y-80485000D01*
X147535000Y-80485000D02*
X143725000Y-80485000D01*
X138645000Y-85565000D02*
X133565000Y-85565000D01*
X143725000Y-80485000D02*
X138645000Y-85565000D01*
X109080300Y-127509900D02*
X111398000Y-127509900D01*
X109080300Y-129827600D02*
X109080300Y-127509900D01*
X106009900Y-132898000D02*
X109080300Y-129827600D01*
X137010700Y-22710700D02*
X140970000Y-26670000D01*
X108935700Y-22710700D02*
X137010700Y-22710700D01*
X93568400Y-38078000D02*
X108935700Y-22710700D01*
X93568400Y-122575900D02*
X93568400Y-38078000D01*
X96646500Y-125654000D02*
X93568400Y-122575900D01*
X98201100Y-125654000D02*
X96646500Y-125654000D01*
X103040100Y-120815000D02*
X98201100Y-125654000D01*
X106861300Y-120815000D02*
X103040100Y-120815000D01*
X109080300Y-123034000D02*
X106861300Y-120815000D01*
X109080300Y-127509900D02*
X109080300Y-123034000D01*
X106240100Y-122352000D02*
X100852000Y-127740100D01*
X138450500Y-21610500D02*
X143510000Y-26670000D01*
X108470700Y-21610500D02*
X138450500Y-21610500D01*
X92462300Y-37618900D02*
X108470700Y-21610500D01*
X92462300Y-123025700D02*
X92462300Y-37618900D01*
X97176700Y-127740100D02*
X92462300Y-123025700D01*
X100852000Y-127740100D02*
X97176700Y-127740100D01*
X118352000Y-127740100D02*
X123740100Y-122352000D01*
X148837000Y-23883000D02*
X146050000Y-26670000D01*
X159923800Y-23883000D02*
X148837000Y-23883000D01*
X175575300Y-39534500D02*
X159923800Y-23883000D01*
X175575300Y-110453600D02*
X175575300Y-39534500D01*
X150856500Y-135172400D02*
X175575300Y-110453600D01*
X136560500Y-135172400D02*
X150856500Y-135172400D01*
X123740100Y-122352000D02*
X136560500Y-135172400D01*
X162213800Y-121444100D02*
X169550700Y-114107200D01*
X171194100Y-112463800D02*
X170783300Y-112874600D01*
X170783300Y-112874600D02*
X169550700Y-114107200D01*
X121420700Y-78659300D02*
X119595000Y-80485000D01*
X148272600Y-78659300D02*
X121420700Y-78659300D01*
X149709100Y-80095800D02*
X148272600Y-78659300D01*
X149709100Y-80232500D02*
X149709100Y-80095800D01*
X156856400Y-87379800D02*
X149709100Y-80232500D01*
X156988400Y-87379800D02*
X156856400Y-87379800D01*
X170783300Y-101174700D02*
X156988400Y-87379800D01*
X170783300Y-112874600D02*
X170783300Y-101174700D01*
X106009900Y-115398000D02*
X111398000Y-110009900D01*
X124285900Y-97122000D02*
X111398000Y-110009900D01*
X124285900Y-88452900D02*
X124285900Y-97122000D01*
X129713800Y-83025000D02*
X124285900Y-88452900D01*
X131025000Y-83025000D02*
X129713800Y-83025000D01*
X133565000Y-80485000D02*
X131025000Y-83025000D01*
X146713800Y-129444100D02*
X155694100Y-120463800D01*
X109602000Y-136490100D02*
X114990100Y-131102000D01*
X125541400Y-89778600D02*
X129755000Y-85565000D01*
X125541400Y-108208600D02*
X125541400Y-89778600D01*
X113226100Y-120523900D02*
X125541400Y-108208600D01*
X113226100Y-129338000D02*
X113226100Y-120523900D01*
X114990100Y-131102000D02*
X113226100Y-129338000D01*
X135713800Y-117444100D02*
X144694100Y-108463800D01*
X95900000Y-67040000D02*
X108600000Y-67040000D01*
X139170000Y-67040000D02*
X157695000Y-85565000D01*
X108600000Y-67040000D02*
X139170000Y-67040000D01*
X97259900Y-124148000D02*
X102648000Y-118759900D01*
X102648000Y-103512000D02*
X115535000Y-90625000D01*
X102648000Y-118759900D02*
X102648000Y-103512000D01*
X160194100Y-100213800D02*
X158550700Y-101857200D01*
X151213800Y-109194100D02*
X152857200Y-107550700D01*
X152857200Y-107550700D02*
X152857200Y-101857200D01*
X158550700Y-101857200D02*
X152857200Y-101857200D01*
X140967200Y-101857200D02*
X129755000Y-90645000D01*
X152857200Y-101857200D02*
X140967200Y-101857200D01*
X114759900Y-124148000D02*
X120148000Y-118759900D01*
X155866300Y-88816300D02*
X157695000Y-90645000D01*
X129022700Y-88816300D02*
X155866300Y-88816300D01*
X127574900Y-90264100D02*
X129022700Y-88816300D01*
X127574900Y-111333000D02*
X127574900Y-90264100D01*
X120148000Y-118759900D02*
X127574900Y-111333000D01*
M02*
