G04 #@! TF.FileFunction,Legend,Top*
%FSLAX46Y46*%
G04 Gerber Fmt 4.6, Leading zero omitted, Abs format (unit mm)*
G04 Created by KiCad (PCBNEW 0.201509061501+6161~29~ubuntu14.04.1-product) date Mon 14 Sep 2015 05:33:44 PM EDT*
%MOMM*%
G01*
G04 APERTURE LIST*
%ADD10C,0.100000*%
%ADD11C,0.150000*%
G04 APERTURE END LIST*
D10*
D11*
X37225096Y-86785112D02*
G75*
G03X40250000Y-86770000I1524904J-2484888D01*
G01*
X37250000Y-86770000D02*
X40250000Y-86770000D01*
X41267936Y-89270000D02*
G75*
G03X41267936Y-89270000I-2517936J0D01*
G01*
X21400000Y-28480000D02*
X21400000Y-79280000D01*
X26480000Y-76740000D02*
X26480000Y-28480000D01*
X21400000Y-28480000D02*
X26480000Y-28480000D01*
X21400000Y-79280000D02*
X23940000Y-79280000D01*
X25210000Y-79560000D02*
X26760000Y-79560000D01*
X23940000Y-79280000D02*
X23940000Y-76740000D01*
X23940000Y-76740000D02*
X26480000Y-76740000D01*
X26760000Y-79560000D02*
X26760000Y-78010000D01*
X77755000Y-61285000D02*
X77755000Y-66365000D01*
X77755000Y-66365000D02*
X75215000Y-66365000D01*
X75215000Y-66365000D02*
X75215000Y-61285000D01*
X75215000Y-61285000D02*
X77755000Y-61285000D01*
X76485000Y-61285000D02*
X76485000Y-60015000D01*
X76485000Y-66365000D02*
X76485000Y-67635000D01*
X77755000Y-75255000D02*
X77755000Y-80335000D01*
X77755000Y-80335000D02*
X75215000Y-80335000D01*
X75215000Y-80335000D02*
X75215000Y-75255000D01*
X75215000Y-75255000D02*
X77755000Y-75255000D01*
X76485000Y-75255000D02*
X76485000Y-73985000D01*
X76485000Y-80335000D02*
X76485000Y-81605000D01*
X77755000Y-47315000D02*
X77755000Y-52395000D01*
X77755000Y-52395000D02*
X75215000Y-52395000D01*
X75215000Y-52395000D02*
X75215000Y-47315000D01*
X75215000Y-47315000D02*
X77755000Y-47315000D01*
X76485000Y-47315000D02*
X76485000Y-46045000D01*
X76485000Y-52395000D02*
X76485000Y-53665000D01*
X77755000Y-33345000D02*
X77755000Y-38425000D01*
X77755000Y-38425000D02*
X75215000Y-38425000D01*
X75215000Y-38425000D02*
X75215000Y-33345000D01*
X75215000Y-33345000D02*
X77755000Y-33345000D01*
X76485000Y-33345000D02*
X76485000Y-32075000D01*
X76485000Y-38425000D02*
X76485000Y-39695000D01*
X82835000Y-75255000D02*
X82835000Y-80335000D01*
X82835000Y-80335000D02*
X80295000Y-80335000D01*
X80295000Y-80335000D02*
X80295000Y-75255000D01*
X80295000Y-75255000D02*
X82835000Y-75255000D01*
X81565000Y-75255000D02*
X81565000Y-73985000D01*
X81565000Y-80335000D02*
X81565000Y-81605000D01*
X82835000Y-61285000D02*
X82835000Y-66365000D01*
X82835000Y-66365000D02*
X80295000Y-66365000D01*
X80295000Y-66365000D02*
X80295000Y-61285000D01*
X80295000Y-61285000D02*
X82835000Y-61285000D01*
X81565000Y-61285000D02*
X81565000Y-60015000D01*
X81565000Y-66365000D02*
X81565000Y-67635000D01*
X82835000Y-47315000D02*
X82835000Y-52395000D01*
X82835000Y-52395000D02*
X80295000Y-52395000D01*
X80295000Y-52395000D02*
X80295000Y-47315000D01*
X80295000Y-47315000D02*
X82835000Y-47315000D01*
X81565000Y-47315000D02*
X81565000Y-46045000D01*
X81565000Y-52395000D02*
X81565000Y-53665000D01*
X82835000Y-33345000D02*
X82835000Y-38425000D01*
X82835000Y-38425000D02*
X80295000Y-38425000D01*
X80295000Y-38425000D02*
X80295000Y-33345000D01*
X80295000Y-33345000D02*
X82835000Y-33345000D01*
X81565000Y-33345000D02*
X81565000Y-32075000D01*
X81565000Y-38425000D02*
X81565000Y-39695000D01*
X87895000Y-75505000D02*
X87895000Y-80585000D01*
X87895000Y-80585000D02*
X85355000Y-80585000D01*
X85355000Y-80585000D02*
X85355000Y-75505000D01*
X85355000Y-75505000D02*
X87895000Y-75505000D01*
X86625000Y-75505000D02*
X86625000Y-74235000D01*
X86625000Y-80585000D02*
X86625000Y-81855000D01*
X87915000Y-61285000D02*
X87915000Y-66365000D01*
X87915000Y-66365000D02*
X85375000Y-66365000D01*
X85375000Y-66365000D02*
X85375000Y-61285000D01*
X85375000Y-61285000D02*
X87915000Y-61285000D01*
X86645000Y-61285000D02*
X86645000Y-60015000D01*
X86645000Y-66365000D02*
X86645000Y-67635000D01*
X87915000Y-47315000D02*
X87915000Y-52395000D01*
X87915000Y-52395000D02*
X85375000Y-52395000D01*
X85375000Y-52395000D02*
X85375000Y-47315000D01*
X85375000Y-47315000D02*
X87915000Y-47315000D01*
X86645000Y-47315000D02*
X86645000Y-46045000D01*
X86645000Y-52395000D02*
X86645000Y-53665000D01*
X87915000Y-33345000D02*
X87915000Y-38425000D01*
X87915000Y-38425000D02*
X85375000Y-38425000D01*
X85375000Y-38425000D02*
X85375000Y-33345000D01*
X85375000Y-33345000D02*
X87915000Y-33345000D01*
X86645000Y-33345000D02*
X86645000Y-32075000D01*
X86645000Y-38425000D02*
X86645000Y-39695000D01*
X47770000Y-84210000D02*
X47770000Y-89290000D01*
X47770000Y-89290000D02*
X45230000Y-89290000D01*
X45230000Y-89290000D02*
X45230000Y-84210000D01*
X45230000Y-84210000D02*
X47770000Y-84210000D01*
X46500000Y-84210000D02*
X46500000Y-82940000D01*
X46500000Y-89290000D02*
X46500000Y-90560000D01*
X48460000Y-41230000D02*
X53540000Y-41230000D01*
X53540000Y-41230000D02*
X53540000Y-43770000D01*
X53540000Y-43770000D02*
X48460000Y-43770000D01*
X48460000Y-43770000D02*
X48460000Y-41230000D01*
X48460000Y-42500000D02*
X47190000Y-42500000D01*
X53540000Y-42500000D02*
X54810000Y-42500000D01*
X143480714Y-64790000D02*
G75*
G03X143480714Y-64790000I-1750714J0D01*
G01*
X138505000Y-61565000D02*
X138630000Y-61565000D01*
X144955000Y-61565000D02*
X144830000Y-61565000D01*
X144955000Y-68015000D02*
X144830000Y-68015000D01*
X138630000Y-68015000D02*
X138505000Y-68015000D01*
X140330000Y-61565000D02*
X143130000Y-61565000D01*
X138505000Y-68015000D02*
X138505000Y-61565000D01*
X140330000Y-68015000D02*
X143130000Y-68015000D01*
X144955000Y-68015000D02*
X144955000Y-61565000D01*
X143480714Y-47010000D02*
G75*
G03X143480714Y-47010000I-1750714J0D01*
G01*
X138505000Y-43785000D02*
X138630000Y-43785000D01*
X144955000Y-43785000D02*
X144830000Y-43785000D01*
X144955000Y-50235000D02*
X144830000Y-50235000D01*
X138630000Y-50235000D02*
X138505000Y-50235000D01*
X140330000Y-43785000D02*
X143130000Y-43785000D01*
X138505000Y-50235000D02*
X138505000Y-43785000D01*
X140330000Y-50235000D02*
X143130000Y-50235000D01*
X144955000Y-50235000D02*
X144955000Y-43785000D01*
X127329050Y-35500000D02*
G75*
G03X127329050Y-35500000I-4579050J0D01*
G01*
X122750000Y-44480256D02*
X113769744Y-35500000D01*
X113769744Y-35500000D02*
X122750000Y-26519744D01*
X122750000Y-26519744D02*
X131730256Y-35500000D01*
X131730256Y-35500000D02*
X122750000Y-44480256D01*
X115329050Y-46500000D02*
G75*
G03X115329050Y-46500000I-4579050J0D01*
G01*
X110750000Y-55480256D02*
X101769744Y-46500000D01*
X101769744Y-46500000D02*
X110750000Y-37519744D01*
X110750000Y-37519744D02*
X119730256Y-46500000D01*
X119730256Y-46500000D02*
X110750000Y-55480256D01*
X107079050Y-31000000D02*
G75*
G03X107079050Y-31000000I-4579050J0D01*
G01*
X102500000Y-39980256D02*
X93519744Y-31000000D01*
X93519744Y-31000000D02*
X102500000Y-22019744D01*
X102500000Y-22019744D02*
X111480256Y-31000000D01*
X111480256Y-31000000D02*
X102500000Y-39980256D01*
X119329050Y-20000000D02*
G75*
G03X119329050Y-20000000I-4579050J0D01*
G01*
X114750000Y-28980256D02*
X105769744Y-20000000D01*
X105769744Y-20000000D02*
X114750000Y-11019744D01*
X114750000Y-11019744D02*
X123730256Y-20000000D01*
X123730256Y-20000000D02*
X114750000Y-28980256D01*
X113040000Y-78000000D02*
G75*
G03X113040000Y-78000000I-2540000J0D01*
G01*
X110500000Y-83388154D02*
X105111846Y-78000000D01*
X105111846Y-78000000D02*
X110500000Y-72611846D01*
X110500000Y-72611846D02*
X115888154Y-78000000D01*
X110500000Y-83388154D02*
X115888154Y-78000000D01*
X130540000Y-78000000D02*
G75*
G03X130540000Y-78000000I-2540000J0D01*
G01*
X128000000Y-72611846D02*
X133388154Y-78000000D01*
X133388154Y-78000000D02*
X128000000Y-83388154D01*
X128000000Y-83388154D02*
X122611846Y-78000000D01*
X128000000Y-72611846D02*
X122611846Y-78000000D01*
X121790000Y-86750000D02*
G75*
G03X121790000Y-86750000I-2540000J0D01*
G01*
X119250000Y-92138154D02*
X113861846Y-86750000D01*
X113861846Y-86750000D02*
X119250000Y-81361846D01*
X119250000Y-81361846D02*
X124638154Y-86750000D01*
X119250000Y-92138154D02*
X124638154Y-86750000D01*
X121790000Y-69250000D02*
G75*
G03X121790000Y-69250000I-2540000J0D01*
G01*
X119250000Y-74638154D02*
X113861846Y-69250000D01*
X113861846Y-69250000D02*
X119250000Y-63861846D01*
X119250000Y-63861846D02*
X124638154Y-69250000D01*
X119250000Y-74638154D02*
X124638154Y-69250000D01*
X35138381Y-90262095D02*
X34138381Y-90262095D01*
X34138381Y-90024000D01*
X34186000Y-89881142D01*
X34281238Y-89785904D01*
X34376476Y-89738285D01*
X34566952Y-89690666D01*
X34709810Y-89690666D01*
X34900286Y-89738285D01*
X34995524Y-89785904D01*
X35090762Y-89881142D01*
X35138381Y-90024000D01*
X35138381Y-90262095D01*
X35138381Y-88738285D02*
X35138381Y-89309714D01*
X35138381Y-89024000D02*
X34138381Y-89024000D01*
X34281238Y-89119238D01*
X34376476Y-89214476D01*
X34424095Y-89309714D01*
X37297381Y-86356905D02*
X36297381Y-86356905D01*
X37297381Y-85785476D02*
X36725952Y-86214048D01*
X36297381Y-85785476D02*
X36868810Y-86356905D01*
X24471905Y-83562381D02*
X24471905Y-82562381D01*
X24852858Y-82562381D01*
X24948096Y-82610000D01*
X24995715Y-82657619D01*
X25043334Y-82752857D01*
X25043334Y-82895714D01*
X24995715Y-82990952D01*
X24948096Y-83038571D01*
X24852858Y-83086190D01*
X24471905Y-83086190D01*
X25995715Y-83562381D02*
X25424286Y-83562381D01*
X25710000Y-83562381D02*
X25710000Y-82562381D01*
X25614762Y-82705238D01*
X25519524Y-82800476D01*
X25424286Y-82848095D01*
X80437501Y-64240586D02*
X79961310Y-64573920D01*
X80437501Y-64812015D02*
X79437501Y-64812015D01*
X79437501Y-64431062D01*
X79485120Y-64335824D01*
X79532739Y-64288205D01*
X79627977Y-64240586D01*
X79770834Y-64240586D01*
X79866072Y-64288205D01*
X79913691Y-64335824D01*
X79961310Y-64431062D01*
X79961310Y-64812015D01*
X80437501Y-63288205D02*
X80437501Y-63859634D01*
X80437501Y-63573920D02*
X79437501Y-63573920D01*
X79580358Y-63669158D01*
X79675596Y-63764396D01*
X79723215Y-63859634D01*
X80437501Y-78210586D02*
X79961310Y-78543920D01*
X80437501Y-78782015D02*
X79437501Y-78782015D01*
X79437501Y-78401062D01*
X79485120Y-78305824D01*
X79532739Y-78258205D01*
X79627977Y-78210586D01*
X79770834Y-78210586D01*
X79866072Y-78258205D01*
X79913691Y-78305824D01*
X79961310Y-78401062D01*
X79961310Y-78782015D01*
X79532739Y-77829634D02*
X79485120Y-77782015D01*
X79437501Y-77686777D01*
X79437501Y-77448681D01*
X79485120Y-77353443D01*
X79532739Y-77305824D01*
X79627977Y-77258205D01*
X79723215Y-77258205D01*
X79866072Y-77305824D01*
X80437501Y-77877253D01*
X80437501Y-77258205D01*
X80437501Y-50270586D02*
X79961310Y-50603920D01*
X80437501Y-50842015D02*
X79437501Y-50842015D01*
X79437501Y-50461062D01*
X79485120Y-50365824D01*
X79532739Y-50318205D01*
X79627977Y-50270586D01*
X79770834Y-50270586D01*
X79866072Y-50318205D01*
X79913691Y-50365824D01*
X79961310Y-50461062D01*
X79961310Y-50842015D01*
X79437501Y-49937253D02*
X79437501Y-49318205D01*
X79818453Y-49651539D01*
X79818453Y-49508681D01*
X79866072Y-49413443D01*
X79913691Y-49365824D01*
X80008930Y-49318205D01*
X80247025Y-49318205D01*
X80342263Y-49365824D01*
X80389882Y-49413443D01*
X80437501Y-49508681D01*
X80437501Y-49794396D01*
X80389882Y-49889634D01*
X80342263Y-49937253D01*
X80437501Y-36300586D02*
X79961310Y-36633920D01*
X80437501Y-36872015D02*
X79437501Y-36872015D01*
X79437501Y-36491062D01*
X79485120Y-36395824D01*
X79532739Y-36348205D01*
X79627977Y-36300586D01*
X79770834Y-36300586D01*
X79866072Y-36348205D01*
X79913691Y-36395824D01*
X79961310Y-36491062D01*
X79961310Y-36872015D01*
X79770834Y-35443443D02*
X80437501Y-35443443D01*
X79389882Y-35681539D02*
X80104168Y-35919634D01*
X80104168Y-35300586D01*
X85517501Y-78210586D02*
X85041310Y-78543920D01*
X85517501Y-78782015D02*
X84517501Y-78782015D01*
X84517501Y-78401062D01*
X84565120Y-78305824D01*
X84612739Y-78258205D01*
X84707977Y-78210586D01*
X84850834Y-78210586D01*
X84946072Y-78258205D01*
X84993691Y-78305824D01*
X85041310Y-78401062D01*
X85041310Y-78782015D01*
X84517501Y-77305824D02*
X84517501Y-77782015D01*
X84993691Y-77829634D01*
X84946072Y-77782015D01*
X84898453Y-77686777D01*
X84898453Y-77448681D01*
X84946072Y-77353443D01*
X84993691Y-77305824D01*
X85088930Y-77258205D01*
X85327025Y-77258205D01*
X85422263Y-77305824D01*
X85469882Y-77353443D01*
X85517501Y-77448681D01*
X85517501Y-77686777D01*
X85469882Y-77782015D01*
X85422263Y-77829634D01*
X85517501Y-64240586D02*
X85041310Y-64573920D01*
X85517501Y-64812015D02*
X84517501Y-64812015D01*
X84517501Y-64431062D01*
X84565120Y-64335824D01*
X84612739Y-64288205D01*
X84707977Y-64240586D01*
X84850834Y-64240586D01*
X84946072Y-64288205D01*
X84993691Y-64335824D01*
X85041310Y-64431062D01*
X85041310Y-64812015D01*
X84517501Y-63383443D02*
X84517501Y-63573920D01*
X84565120Y-63669158D01*
X84612739Y-63716777D01*
X84755596Y-63812015D01*
X84946072Y-63859634D01*
X85327025Y-63859634D01*
X85422263Y-63812015D01*
X85469882Y-63764396D01*
X85517501Y-63669158D01*
X85517501Y-63478681D01*
X85469882Y-63383443D01*
X85422263Y-63335824D01*
X85327025Y-63288205D01*
X85088930Y-63288205D01*
X84993691Y-63335824D01*
X84946072Y-63383443D01*
X84898453Y-63478681D01*
X84898453Y-63669158D01*
X84946072Y-63764396D01*
X84993691Y-63812015D01*
X85088930Y-63859634D01*
X85517501Y-50270586D02*
X85041310Y-50603920D01*
X85517501Y-50842015D02*
X84517501Y-50842015D01*
X84517501Y-50461062D01*
X84565120Y-50365824D01*
X84612739Y-50318205D01*
X84707977Y-50270586D01*
X84850834Y-50270586D01*
X84946072Y-50318205D01*
X84993691Y-50365824D01*
X85041310Y-50461062D01*
X85041310Y-50842015D01*
X84517501Y-49937253D02*
X84517501Y-49270586D01*
X85517501Y-49699158D01*
X85517501Y-36300586D02*
X85041310Y-36633920D01*
X85517501Y-36872015D02*
X84517501Y-36872015D01*
X84517501Y-36491062D01*
X84565120Y-36395824D01*
X84612739Y-36348205D01*
X84707977Y-36300586D01*
X84850834Y-36300586D01*
X84946072Y-36348205D01*
X84993691Y-36395824D01*
X85041310Y-36491062D01*
X85041310Y-36872015D01*
X84946072Y-35729158D02*
X84898453Y-35824396D01*
X84850834Y-35872015D01*
X84755596Y-35919634D01*
X84707977Y-35919634D01*
X84612739Y-35872015D01*
X84565120Y-35824396D01*
X84517501Y-35729158D01*
X84517501Y-35538681D01*
X84565120Y-35443443D01*
X84612739Y-35395824D01*
X84707977Y-35348205D01*
X84755596Y-35348205D01*
X84850834Y-35395824D01*
X84898453Y-35443443D01*
X84946072Y-35538681D01*
X84946072Y-35729158D01*
X84993691Y-35824396D01*
X85041310Y-35872015D01*
X85136549Y-35919634D01*
X85327025Y-35919634D01*
X85422263Y-35872015D01*
X85469882Y-35824396D01*
X85517501Y-35729158D01*
X85517501Y-35538681D01*
X85469882Y-35443443D01*
X85422263Y-35395824D01*
X85327025Y-35348205D01*
X85136549Y-35348205D01*
X85041310Y-35395824D01*
X84993691Y-35443443D01*
X84946072Y-35538681D01*
X90577501Y-78460586D02*
X90101310Y-78793920D01*
X90577501Y-79032015D02*
X89577501Y-79032015D01*
X89577501Y-78651062D01*
X89625120Y-78555824D01*
X89672739Y-78508205D01*
X89767977Y-78460586D01*
X89910834Y-78460586D01*
X90006072Y-78508205D01*
X90053691Y-78555824D01*
X90101310Y-78651062D01*
X90101310Y-79032015D01*
X90577501Y-77984396D02*
X90577501Y-77793920D01*
X90529882Y-77698681D01*
X90482263Y-77651062D01*
X90339406Y-77555824D01*
X90148930Y-77508205D01*
X89767977Y-77508205D01*
X89672739Y-77555824D01*
X89625120Y-77603443D01*
X89577501Y-77698681D01*
X89577501Y-77889158D01*
X89625120Y-77984396D01*
X89672739Y-78032015D01*
X89767977Y-78079634D01*
X90006072Y-78079634D01*
X90101310Y-78032015D01*
X90148930Y-77984396D01*
X90196549Y-77889158D01*
X90196549Y-77698681D01*
X90148930Y-77603443D01*
X90101310Y-77555824D01*
X90006072Y-77508205D01*
X90597501Y-64716777D02*
X90121310Y-65050111D01*
X90597501Y-65288206D02*
X89597501Y-65288206D01*
X89597501Y-64907253D01*
X89645120Y-64812015D01*
X89692739Y-64764396D01*
X89787977Y-64716777D01*
X89930834Y-64716777D01*
X90026072Y-64764396D01*
X90073691Y-64812015D01*
X90121310Y-64907253D01*
X90121310Y-65288206D01*
X90597501Y-63764396D02*
X90597501Y-64335825D01*
X90597501Y-64050111D02*
X89597501Y-64050111D01*
X89740358Y-64145349D01*
X89835596Y-64240587D01*
X89883215Y-64335825D01*
X89597501Y-63145349D02*
X89597501Y-63050110D01*
X89645120Y-62954872D01*
X89692739Y-62907253D01*
X89787977Y-62859634D01*
X89978453Y-62812015D01*
X90216549Y-62812015D01*
X90407025Y-62859634D01*
X90502263Y-62907253D01*
X90549882Y-62954872D01*
X90597501Y-63050110D01*
X90597501Y-63145349D01*
X90549882Y-63240587D01*
X90502263Y-63288206D01*
X90407025Y-63335825D01*
X90216549Y-63383444D01*
X89978453Y-63383444D01*
X89787977Y-63335825D01*
X89692739Y-63288206D01*
X89645120Y-63240587D01*
X89597501Y-63145349D01*
X90597501Y-50746777D02*
X90121310Y-51080111D01*
X90597501Y-51318206D02*
X89597501Y-51318206D01*
X89597501Y-50937253D01*
X89645120Y-50842015D01*
X89692739Y-50794396D01*
X89787977Y-50746777D01*
X89930834Y-50746777D01*
X90026072Y-50794396D01*
X90073691Y-50842015D01*
X90121310Y-50937253D01*
X90121310Y-51318206D01*
X90597501Y-49794396D02*
X90597501Y-50365825D01*
X90597501Y-50080111D02*
X89597501Y-50080111D01*
X89740358Y-50175349D01*
X89835596Y-50270587D01*
X89883215Y-50365825D01*
X90597501Y-48842015D02*
X90597501Y-49413444D01*
X90597501Y-49127730D02*
X89597501Y-49127730D01*
X89740358Y-49222968D01*
X89835596Y-49318206D01*
X89883215Y-49413444D01*
X90597501Y-36776777D02*
X90121310Y-37110111D01*
X90597501Y-37348206D02*
X89597501Y-37348206D01*
X89597501Y-36967253D01*
X89645120Y-36872015D01*
X89692739Y-36824396D01*
X89787977Y-36776777D01*
X89930834Y-36776777D01*
X90026072Y-36824396D01*
X90073691Y-36872015D01*
X90121310Y-36967253D01*
X90121310Y-37348206D01*
X90597501Y-35824396D02*
X90597501Y-36395825D01*
X90597501Y-36110111D02*
X89597501Y-36110111D01*
X89740358Y-36205349D01*
X89835596Y-36300587D01*
X89883215Y-36395825D01*
X89692739Y-35443444D02*
X89645120Y-35395825D01*
X89597501Y-35300587D01*
X89597501Y-35062491D01*
X89645120Y-34967253D01*
X89692739Y-34919634D01*
X89787977Y-34872015D01*
X89883215Y-34872015D01*
X90026072Y-34919634D01*
X90597501Y-35491063D01*
X90597501Y-34872015D01*
X50452501Y-87641777D02*
X49976310Y-87975111D01*
X50452501Y-88213206D02*
X49452501Y-88213206D01*
X49452501Y-87832253D01*
X49500120Y-87737015D01*
X49547739Y-87689396D01*
X49642977Y-87641777D01*
X49785834Y-87641777D01*
X49881072Y-87689396D01*
X49928691Y-87737015D01*
X49976310Y-87832253D01*
X49976310Y-88213206D01*
X50452501Y-86689396D02*
X50452501Y-87260825D01*
X50452501Y-86975111D02*
X49452501Y-86975111D01*
X49595358Y-87070349D01*
X49690596Y-87165587D01*
X49738215Y-87260825D01*
X49452501Y-86356063D02*
X49452501Y-85737015D01*
X49833453Y-86070349D01*
X49833453Y-85927491D01*
X49881072Y-85832253D01*
X49928691Y-85784634D01*
X50023930Y-85737015D01*
X50262025Y-85737015D01*
X50357263Y-85784634D01*
X50404882Y-85832253D01*
X50452501Y-85927491D01*
X50452501Y-86213206D01*
X50404882Y-86308444D01*
X50357263Y-86356063D01*
X50606063Y-39452261D02*
X50272729Y-38976070D01*
X50034634Y-39452261D02*
X50034634Y-38452261D01*
X50415587Y-38452261D01*
X50510825Y-38499880D01*
X50558444Y-38547499D01*
X50606063Y-38642737D01*
X50606063Y-38785594D01*
X50558444Y-38880832D01*
X50510825Y-38928451D01*
X50415587Y-38976070D01*
X50034634Y-38976070D01*
X51558444Y-39452261D02*
X50987015Y-39452261D01*
X51272729Y-39452261D02*
X51272729Y-38452261D01*
X51177491Y-38595118D01*
X51082253Y-38690356D01*
X50987015Y-38737975D01*
X52415587Y-38785594D02*
X52415587Y-39452261D01*
X52177491Y-38404642D02*
X51939396Y-39118928D01*
X52558444Y-39118928D01*
X141334762Y-66123333D02*
X141382381Y-65980476D01*
X141382381Y-65742380D01*
X141334762Y-65647142D01*
X141287143Y-65599523D01*
X141191905Y-65551904D01*
X141096667Y-65551904D01*
X141001429Y-65599523D01*
X140953810Y-65647142D01*
X140906190Y-65742380D01*
X140858571Y-65932857D01*
X140810952Y-66028095D01*
X140763333Y-66075714D01*
X140668095Y-66123333D01*
X140572857Y-66123333D01*
X140477619Y-66075714D01*
X140430000Y-66028095D01*
X140382381Y-65932857D01*
X140382381Y-65694761D01*
X140430000Y-65551904D01*
X140382381Y-65218571D02*
X141382381Y-64980476D01*
X140668095Y-64789999D01*
X141382381Y-64599523D01*
X140382381Y-64361428D01*
X140477619Y-64028095D02*
X140430000Y-63980476D01*
X140382381Y-63885238D01*
X140382381Y-63647142D01*
X140430000Y-63551904D01*
X140477619Y-63504285D01*
X140572857Y-63456666D01*
X140668095Y-63456666D01*
X140810952Y-63504285D01*
X141382381Y-64075714D01*
X141382381Y-63456666D01*
X141334762Y-48343333D02*
X141382381Y-48200476D01*
X141382381Y-47962380D01*
X141334762Y-47867142D01*
X141287143Y-47819523D01*
X141191905Y-47771904D01*
X141096667Y-47771904D01*
X141001429Y-47819523D01*
X140953810Y-47867142D01*
X140906190Y-47962380D01*
X140858571Y-48152857D01*
X140810952Y-48248095D01*
X140763333Y-48295714D01*
X140668095Y-48343333D01*
X140572857Y-48343333D01*
X140477619Y-48295714D01*
X140430000Y-48248095D01*
X140382381Y-48152857D01*
X140382381Y-47914761D01*
X140430000Y-47771904D01*
X140382381Y-47438571D02*
X141382381Y-47200476D01*
X140668095Y-47009999D01*
X141382381Y-46819523D01*
X140382381Y-46581428D01*
X140382381Y-45724285D02*
X140382381Y-46200476D01*
X140858571Y-46248095D01*
X140810952Y-46200476D01*
X140763333Y-46105238D01*
X140763333Y-45867142D01*
X140810952Y-45771904D01*
X140858571Y-45724285D01*
X140953810Y-45676666D01*
X141191905Y-45676666D01*
X141287143Y-45724285D01*
X141334762Y-45771904D01*
X141382381Y-45867142D01*
X141382381Y-46105238D01*
X141334762Y-46200476D01*
X141287143Y-46248095D01*
X120982166Y-35382216D02*
X121049510Y-35516903D01*
X121217869Y-35685262D01*
X121318884Y-35718934D01*
X121386228Y-35718934D01*
X121487243Y-35685262D01*
X121554586Y-35617919D01*
X121588258Y-35516904D01*
X121588258Y-35449560D01*
X121554587Y-35348544D01*
X121453571Y-35180185D01*
X121419899Y-35079170D01*
X121419899Y-35011827D01*
X121453571Y-34910811D01*
X121520914Y-34843468D01*
X121621930Y-34809796D01*
X121689273Y-34809796D01*
X121790288Y-34843468D01*
X121958647Y-35011827D01*
X122025991Y-35146514D01*
X122295365Y-35348544D02*
X121756616Y-36224010D01*
X122396381Y-35853621D01*
X122025991Y-36493384D01*
X122901456Y-35954636D01*
X123238174Y-36762758D02*
X122766769Y-37234163D01*
X123339189Y-36325025D02*
X122665754Y-36661743D01*
X123103487Y-37099476D01*
X108982166Y-46382216D02*
X109049510Y-46516903D01*
X109217869Y-46685262D01*
X109318884Y-46718934D01*
X109386228Y-46718934D01*
X109487243Y-46685262D01*
X109554586Y-46617919D01*
X109588258Y-46516904D01*
X109588258Y-46449560D01*
X109554587Y-46348544D01*
X109453571Y-46180185D01*
X109419899Y-46079170D01*
X109419899Y-46011827D01*
X109453571Y-45910811D01*
X109520914Y-45843468D01*
X109621930Y-45809796D01*
X109689273Y-45809796D01*
X109790288Y-45843468D01*
X109958647Y-46011827D01*
X110025991Y-46146514D01*
X110295365Y-46348544D02*
X109756616Y-47224010D01*
X110396381Y-46853621D01*
X110025991Y-47493384D01*
X110901456Y-46954636D01*
X111103487Y-47156666D02*
X111574891Y-47628071D01*
X110564738Y-48032132D01*
X100395448Y-30545498D02*
X100462792Y-30680185D01*
X100631151Y-30848544D01*
X100732166Y-30882216D01*
X100799510Y-30882216D01*
X100900525Y-30848544D01*
X100967868Y-30781201D01*
X101001540Y-30680186D01*
X101001540Y-30612842D01*
X100967869Y-30511827D01*
X100866853Y-30343467D01*
X100833181Y-30242452D01*
X100833181Y-30175109D01*
X100866853Y-30074094D01*
X100934197Y-30006750D01*
X101035212Y-29973078D01*
X101102555Y-29973078D01*
X101203570Y-30006750D01*
X101371930Y-30175109D01*
X101439273Y-30309796D01*
X101708647Y-30511827D02*
X101169899Y-31387292D01*
X101809663Y-31016903D01*
X101439273Y-31656666D01*
X102314738Y-31117918D01*
X102247395Y-32464788D02*
X101843334Y-32060727D01*
X102045364Y-32262757D02*
X102752471Y-31555651D01*
X102584112Y-31589322D01*
X102449425Y-31589322D01*
X102348410Y-31555651D01*
X103392234Y-32195414D02*
X103459578Y-32262758D01*
X103493250Y-32363773D01*
X103493250Y-32431117D01*
X103459578Y-32532132D01*
X103358563Y-32700490D01*
X103190204Y-32868850D01*
X103021845Y-32969865D01*
X102920830Y-33003536D01*
X102853487Y-33003536D01*
X102752471Y-32969865D01*
X102685127Y-32902521D01*
X102651456Y-32801505D01*
X102651456Y-32734162D01*
X102685127Y-32633147D01*
X102786142Y-32464788D01*
X102954502Y-32296429D01*
X103122860Y-32195414D01*
X103223875Y-32161742D01*
X103291219Y-32161742D01*
X103392234Y-32195414D01*
X112982166Y-19882216D02*
X113049510Y-20016903D01*
X113217869Y-20185262D01*
X113318884Y-20218934D01*
X113386228Y-20218934D01*
X113487243Y-20185262D01*
X113554586Y-20117919D01*
X113588258Y-20016904D01*
X113588258Y-19949560D01*
X113554587Y-19848544D01*
X113453571Y-19680185D01*
X113419899Y-19579170D01*
X113419899Y-19511827D01*
X113453571Y-19410811D01*
X113520914Y-19343468D01*
X113621930Y-19309796D01*
X113689273Y-19309796D01*
X113790288Y-19343468D01*
X113958647Y-19511827D01*
X114025991Y-19646514D01*
X114295365Y-19848544D02*
X113756616Y-20724010D01*
X114396381Y-20353621D01*
X114025991Y-20993384D01*
X114901456Y-20454636D01*
X114834113Y-21801506D02*
X114430052Y-21397445D01*
X114632082Y-21599475D02*
X115339189Y-20892368D01*
X115170830Y-20926040D01*
X115036143Y-20926040D01*
X114935128Y-20892368D01*
X108732166Y-77882216D02*
X108799510Y-78016903D01*
X108967869Y-78185262D01*
X109068884Y-78218934D01*
X109136228Y-78218934D01*
X109237243Y-78185262D01*
X109304586Y-78117919D01*
X109338258Y-78016904D01*
X109338258Y-77949560D01*
X109304587Y-77848544D01*
X109203571Y-77680185D01*
X109169899Y-77579170D01*
X109169899Y-77511827D01*
X109203571Y-77410811D01*
X109270914Y-77343468D01*
X109371930Y-77309796D01*
X109439273Y-77309796D01*
X109540288Y-77343468D01*
X109708647Y-77511827D01*
X109775991Y-77646514D01*
X110045365Y-77848544D02*
X109506616Y-78724010D01*
X110146381Y-78353621D01*
X109775991Y-78993384D01*
X110651456Y-78454636D01*
X110853487Y-78656666D02*
X111291220Y-79094399D01*
X110786143Y-79128070D01*
X110887159Y-79229086D01*
X110920831Y-79330101D01*
X110920831Y-79397445D01*
X110887158Y-79498461D01*
X110718800Y-79666819D01*
X110617785Y-79700491D01*
X110550441Y-79700491D01*
X110449426Y-79666819D01*
X110247395Y-79464788D01*
X110213723Y-79363773D01*
X110213723Y-79296430D01*
X127309796Y-76804586D02*
X127377140Y-76939273D01*
X127545499Y-77107632D01*
X127646514Y-77141304D01*
X127713858Y-77141304D01*
X127814873Y-77107632D01*
X127882216Y-77040289D01*
X127915888Y-76939274D01*
X127915888Y-76871930D01*
X127882217Y-76770914D01*
X127781201Y-76602555D01*
X127747529Y-76501540D01*
X127747529Y-76434197D01*
X127781201Y-76333181D01*
X127848544Y-76265838D01*
X127949560Y-76232166D01*
X128016903Y-76232166D01*
X128117918Y-76265838D01*
X128286277Y-76434197D01*
X128353621Y-76568884D01*
X128622995Y-76770914D02*
X128084246Y-77646380D01*
X128724011Y-77275991D01*
X128353621Y-77915754D01*
X129229086Y-77377006D01*
X129801506Y-77949426D02*
X129666819Y-77814738D01*
X129565803Y-77781067D01*
X129498460Y-77781067D01*
X129330101Y-77814738D01*
X129161743Y-77915754D01*
X128892368Y-78185128D01*
X128858697Y-78286143D01*
X128858697Y-78353487D01*
X128892368Y-78454502D01*
X129027056Y-78589189D01*
X129128071Y-78622861D01*
X129195415Y-78622861D01*
X129296430Y-78589189D01*
X129464788Y-78420831D01*
X129498461Y-78319815D01*
X129498461Y-78252471D01*
X129464789Y-78151456D01*
X129330101Y-78016769D01*
X129229086Y-77983097D01*
X129161743Y-77983097D01*
X129060727Y-78016769D01*
X117482166Y-86632216D02*
X117549510Y-86766903D01*
X117717869Y-86935262D01*
X117818884Y-86968934D01*
X117886228Y-86968934D01*
X117987243Y-86935262D01*
X118054586Y-86867919D01*
X118088258Y-86766904D01*
X118088258Y-86699560D01*
X118054587Y-86598544D01*
X117953571Y-86430185D01*
X117919899Y-86329170D01*
X117919899Y-86261827D01*
X117953571Y-86160811D01*
X118020914Y-86093468D01*
X118121930Y-86059796D01*
X118189273Y-86059796D01*
X118290288Y-86093468D01*
X118458647Y-86261827D01*
X118525991Y-86396514D01*
X118795365Y-86598544D02*
X118256616Y-87474010D01*
X118896381Y-87103621D01*
X118525991Y-87743384D01*
X119401456Y-87204636D01*
X118997395Y-88214788D02*
X119132082Y-88349475D01*
X119233098Y-88383148D01*
X119300441Y-88383148D01*
X119468800Y-88349476D01*
X119637158Y-88248461D01*
X119906533Y-87979086D01*
X119940204Y-87878071D01*
X119940204Y-87810728D01*
X119906533Y-87709713D01*
X119771845Y-87575025D01*
X119670830Y-87541353D01*
X119603487Y-87541353D01*
X119502471Y-87575025D01*
X119334113Y-87743384D01*
X119300441Y-87844399D01*
X119300440Y-87911743D01*
X119334112Y-88012758D01*
X119468800Y-88147446D01*
X119569815Y-88181117D01*
X119637159Y-88181117D01*
X119738174Y-88147445D01*
X117145448Y-68795498D02*
X117212792Y-68930185D01*
X117381151Y-69098544D01*
X117482166Y-69132216D01*
X117549510Y-69132216D01*
X117650525Y-69098544D01*
X117717868Y-69031201D01*
X117751540Y-68930186D01*
X117751540Y-68862842D01*
X117717869Y-68761827D01*
X117616853Y-68593467D01*
X117583181Y-68492452D01*
X117583181Y-68425109D01*
X117616853Y-68324094D01*
X117684197Y-68256750D01*
X117785212Y-68223078D01*
X117852555Y-68223078D01*
X117953570Y-68256750D01*
X118121930Y-68425109D01*
X118189273Y-68559796D01*
X118458647Y-68761827D02*
X117919899Y-69637292D01*
X118559663Y-69266903D01*
X118189273Y-69906666D01*
X119064738Y-69367918D01*
X118997395Y-70714788D02*
X118593334Y-70310727D01*
X118795364Y-70512757D02*
X119502471Y-69805651D01*
X119334112Y-69839322D01*
X119199425Y-69839322D01*
X119098410Y-69805651D01*
X119906532Y-70344399D02*
X119973875Y-70344399D01*
X120074891Y-70378070D01*
X120243250Y-70546430D01*
X120276922Y-70647445D01*
X120276922Y-70714788D01*
X120243250Y-70815803D01*
X120175906Y-70883147D01*
X120041220Y-70950490D01*
X119233097Y-70950490D01*
X119670830Y-71388223D01*
M02*
