M48
;DRILL file {KiCad 0.201509061501+6161~29~ubuntu14.04.1-product} date Mon 14 Sep 2015 05:33:57 PM EDT
;FORMAT={-:-/ absolute / metric / decimal}
FMAT,2
METRIC,TZ
T1C0.800
T2C0.813
T3C1.001
T4C1.016
%
G90
G05
M71
T1
X40.91Y-51.92
X40.91Y-59.54
X43.45Y-51.92
X43.45Y-59.54
X45.99Y-51.92
X45.99Y-59.54
X48.53Y-51.92
X48.53Y-59.54
T2
X57.96Y-79.9
X57.96Y-92.6
X58.71Y-16.4
X58.71Y-29.1
X63.04Y-79.9
X63.04Y-92.6
X63.79Y-16.4
X63.79Y-29.1
X96.214Y-28.306
X99.806Y-24.714
X104.464Y-43.806
X105.194Y-37.286
X106.01Y-77.102
X108.056Y-40.214
X108.464Y-17.306
X108.786Y-33.694
X109.602Y-73.51
X111.398Y-82.49
X112.056Y-13.714
X113.444Y-52.786
X114.76Y-68.352
X114.76Y-85.852
X114.99Y-78.898
X116.464Y-32.806
X117.036Y-49.194
X117.444Y-26.286
X118.352Y-64.76
X118.352Y-82.26
X120.056Y-29.214
X120.148Y-73.74
X120.148Y-91.24
X121.036Y-22.694
X123.51Y-77.102
X123.74Y-70.148
X123.74Y-87.648
X125.444Y-41.786
X127.102Y-73.51
X128.898Y-82.49
X129.036Y-38.194
X132.49Y-78.898
T3
X38.75Y-88.
X38.75Y-90.54
X45.92Y-42.5
X46.5Y-81.67
X46.5Y-91.83
X56.08Y-42.5
X76.485Y-30.805
X76.485Y-40.965
X76.485Y-44.775
X76.485Y-54.935
X76.485Y-58.745
X76.485Y-68.905
X76.485Y-72.715
X76.485Y-82.875
X81.565Y-30.805
X81.565Y-40.965
X81.565Y-44.775
X81.565Y-54.935
X81.565Y-58.745
X81.565Y-68.905
X81.565Y-72.715
X81.565Y-82.875
X86.625Y-72.965
X86.625Y-83.125
X86.645Y-30.805
X86.645Y-40.965
X86.645Y-44.775
X86.645Y-54.935
X86.645Y-58.745
X86.645Y-68.905
T4
X22.67Y-29.75
X22.67Y-32.29
X22.67Y-34.83
X22.67Y-37.37
X22.67Y-39.91
X22.67Y-42.45
X22.67Y-44.99
X22.67Y-47.53
X22.67Y-50.07
X22.67Y-52.61
X22.67Y-55.15
X22.67Y-57.69
X22.67Y-60.23
X22.67Y-62.77
X22.67Y-65.31
X22.67Y-67.85
X22.67Y-70.39
X22.67Y-72.93
X22.67Y-75.47
X22.67Y-78.01
X25.21Y-29.75
X25.21Y-32.29
X25.21Y-34.83
X25.21Y-37.37
X25.21Y-39.91
X25.21Y-42.45
X25.21Y-44.99
X25.21Y-47.53
X25.21Y-50.07
X25.21Y-52.61
X25.21Y-55.15
X25.21Y-57.69
X25.21Y-60.23
X25.21Y-62.77
X25.21Y-65.31
X25.21Y-67.85
X25.21Y-70.39
X25.21Y-72.93
X25.21Y-75.47
X25.21Y-78.01
T0
M30
