G04 #@! TF.FileFunction,Copper,L1,Top,Signal*
%FSLAX46Y46*%
G04 Gerber Fmt 4.6, Leading zero omitted, Abs format (unit mm)*
G04 Created by KiCad (PCBNEW 0.201509061501+6161~29~ubuntu14.04.1-product) date Mon 14 Sep 2015 05:33:44 PM EDT*
%MOMM*%
G01*
G04 APERTURE LIST*
%ADD10C,0.100000*%
%ADD11R,2.000000X1.900000*%
%ADD12C,1.900000*%
%ADD13O,1.600000X1.600000*%
%ADD14R,1.727200X1.727200*%
%ADD15O,1.727200X1.727200*%
%ADD16C,1.998980*%
%ADD17R,1.300000X1.550000*%
%ADD18C,1.727200*%
%ADD19O,1.727200X3.048000*%
%ADD20C,1.397000*%
%ADD21C,0.600000*%
G04 APERTURE END LIST*
D10*
D11*
X38750000Y-88000000D03*
D12*
X38750000Y-90540000D03*
D13*
X48530000Y-59540000D03*
X45990000Y-59540000D03*
X43450000Y-59540000D03*
X40910000Y-59540000D03*
X40910000Y-51920000D03*
X43450000Y-51920000D03*
X45990000Y-51920000D03*
X48530000Y-51920000D03*
D14*
X25210000Y-78010000D03*
D15*
X22670000Y-78010000D03*
X25210000Y-75470000D03*
X22670000Y-75470000D03*
X25210000Y-72930000D03*
X22670000Y-72930000D03*
X25210000Y-70390000D03*
X22670000Y-70390000D03*
X25210000Y-67850000D03*
X22670000Y-67850000D03*
X25210000Y-65310000D03*
X22670000Y-65310000D03*
X25210000Y-62770000D03*
X22670000Y-62770000D03*
X25210000Y-60230000D03*
X22670000Y-60230000D03*
X25210000Y-57690000D03*
X22670000Y-57690000D03*
X25210000Y-55150000D03*
X22670000Y-55150000D03*
X25210000Y-52610000D03*
X22670000Y-52610000D03*
X25210000Y-50070000D03*
X22670000Y-50070000D03*
X25210000Y-47530000D03*
X22670000Y-47530000D03*
X25210000Y-44990000D03*
X22670000Y-44990000D03*
X25210000Y-42450000D03*
X22670000Y-42450000D03*
X25210000Y-39910000D03*
X22670000Y-39910000D03*
X25210000Y-37370000D03*
X22670000Y-37370000D03*
X25210000Y-34830000D03*
X22670000Y-34830000D03*
X25210000Y-32290000D03*
X22670000Y-32290000D03*
X25210000Y-29750000D03*
X22670000Y-29750000D03*
D16*
X76485000Y-58745000D03*
X76485000Y-68905000D03*
X76485000Y-72715000D03*
X76485000Y-82875000D03*
X76485000Y-44775000D03*
X76485000Y-54935000D03*
X76485000Y-30805000D03*
X76485000Y-40965000D03*
X81565000Y-72715000D03*
X81565000Y-82875000D03*
X81565000Y-58745000D03*
X81565000Y-68905000D03*
X81565000Y-44775000D03*
X81565000Y-54935000D03*
X81565000Y-30805000D03*
X81565000Y-40965000D03*
X86625000Y-72965000D03*
X86625000Y-83125000D03*
X86645000Y-58745000D03*
X86645000Y-68905000D03*
X86645000Y-44775000D03*
X86645000Y-54935000D03*
X86645000Y-30805000D03*
X86645000Y-40965000D03*
X46500000Y-81670000D03*
X46500000Y-91830000D03*
X45920000Y-42500000D03*
X56080000Y-42500000D03*
D17*
X143980000Y-68765000D03*
X139480000Y-68765000D03*
X139480000Y-60815000D03*
X143980000Y-60815000D03*
X143980000Y-50985000D03*
X139480000Y-50985000D03*
X139480000Y-43035000D03*
X143980000Y-43035000D03*
D18*
X116930794Y-33272896D02*
X115996848Y-32338950D01*
X120522896Y-29680794D02*
X119588950Y-28746848D01*
X125911050Y-42253152D02*
X124977104Y-41319206D01*
X129503152Y-38661050D02*
X128569206Y-37727104D01*
X104930794Y-44272896D02*
X103996848Y-43338950D01*
X108522896Y-40680794D02*
X107588950Y-39746848D01*
X113911050Y-53253152D02*
X112977104Y-52319206D01*
X117503152Y-49661050D02*
X116569206Y-48727104D01*
D19*
X63040000Y-79900000D03*
X57960000Y-79900000D03*
X63040000Y-92600000D03*
X57960000Y-92600000D03*
D18*
X96680794Y-28772896D02*
X95746848Y-27838950D01*
X100272896Y-25180794D02*
X99338950Y-24246848D01*
X105661050Y-37753152D02*
X104727104Y-36819206D01*
X109253152Y-34161050D02*
X108319206Y-33227104D01*
D19*
X63790000Y-16400000D03*
X58710000Y-16400000D03*
X63790000Y-29100000D03*
X58710000Y-29100000D03*
D18*
X108930794Y-17772896D02*
X107996848Y-16838950D01*
X112522896Y-14180794D02*
X111588950Y-13246848D01*
X117911050Y-26753152D02*
X116977104Y-25819206D01*
X121503152Y-23161050D02*
X120569206Y-22227104D01*
D20*
X106009872Y-77101974D03*
X109601974Y-73509872D03*
X111398026Y-82490128D03*
X114990128Y-78898026D03*
X132490128Y-78898026D03*
X128898026Y-82490128D03*
X127101974Y-73509872D03*
X123509872Y-77101974D03*
X114759872Y-85851974D03*
X118351974Y-82259872D03*
X120148026Y-91240128D03*
X123740128Y-87648026D03*
X114759872Y-68351974D03*
X118351974Y-64759872D03*
X120148026Y-73740128D03*
X123740128Y-70148026D03*
D21*
X32643700Y-59540000D02*
X32140000Y-59540000D01*
X32140000Y-59540000D02*
X25210000Y-52610000D01*
X17610500Y-65289500D02*
X22670000Y-60230000D01*
X17610500Y-80003400D02*
X17610500Y-65289500D01*
X25607100Y-88000000D02*
X17610500Y-80003400D01*
X38750000Y-88000000D02*
X25607100Y-88000000D01*
X32643700Y-59540000D02*
X40910000Y-59540000D01*
X45210000Y-90540000D02*
X38750000Y-90540000D01*
X46500000Y-91830000D02*
X45210000Y-90540000D01*
X43450000Y-59540000D02*
X43450000Y-58150000D01*
X43450000Y-58150000D02*
X25210000Y-39910000D01*
X37041850Y-42458150D02*
X35378150Y-42458150D01*
X35378150Y-42458150D02*
X25210000Y-32290000D01*
X45920000Y-47709900D02*
X45920000Y-42500000D01*
X48530000Y-50319900D02*
X45920000Y-47709900D01*
X37083700Y-42500000D02*
X37041850Y-42458150D01*
X45920000Y-42500000D02*
X37083700Y-42500000D01*
X48530000Y-51920000D02*
X48530000Y-50319900D01*
X50292300Y-78010000D02*
X25210000Y-78010000D01*
X67757600Y-60544700D02*
X50292300Y-78010000D01*
X101111800Y-60544700D02*
X67757600Y-60544700D01*
X114105800Y-47550700D02*
X101111800Y-60544700D01*
X115392800Y-47550700D02*
X114105800Y-47550700D01*
X117036200Y-49194100D02*
X115392800Y-47550700D01*
X129036200Y-38194100D02*
X127392800Y-36550700D01*
X25210000Y-75470000D02*
X26873700Y-75470000D01*
X122483000Y-36550700D02*
X127392800Y-36550700D01*
X108069800Y-50963900D02*
X122483000Y-36550700D01*
X71662100Y-50963900D02*
X108069800Y-50963900D01*
X47156000Y-75470000D02*
X71662100Y-50963900D01*
X26873700Y-75470000D02*
X47156000Y-75470000D01*
X143980000Y-43035000D02*
X143254900Y-43035000D01*
X143254900Y-43035000D02*
X142529900Y-43035000D01*
X143254900Y-48684800D02*
X143980000Y-49409900D01*
X143254900Y-43035000D02*
X143254900Y-48684800D01*
X143980000Y-50985000D02*
X143980000Y-49409900D01*
X140918200Y-41423300D02*
X142529900Y-43035000D01*
X137735800Y-41423300D02*
X140918200Y-41423300D01*
X114986500Y-64172600D02*
X137735800Y-41423300D01*
X65685600Y-64172600D02*
X114986500Y-64172600D01*
X50184400Y-79673800D02*
X65685600Y-64172600D01*
X21973800Y-79673800D02*
X50184400Y-79673800D01*
X20976300Y-78676300D02*
X21973800Y-79673800D01*
X20976300Y-77163700D02*
X20976300Y-78676300D01*
X22670000Y-75470000D02*
X20976300Y-77163700D01*
X122200500Y-26250000D02*
X122200500Y-23858398D01*
X122200500Y-23858398D02*
X121036179Y-22694077D01*
X122200500Y-31021400D02*
X122200500Y-26250000D01*
X103358200Y-49863700D02*
X122200500Y-31021400D01*
X70428800Y-49863700D02*
X103358200Y-49863700D01*
X65961000Y-54331500D02*
X70428800Y-49863700D01*
X58066500Y-54331500D02*
X65961000Y-54331500D01*
X46541800Y-65856200D02*
X58066500Y-54331500D01*
X33947500Y-65856200D02*
X46541800Y-65856200D01*
X26873700Y-72930000D02*
X33947500Y-65856200D01*
X25210000Y-72930000D02*
X26873700Y-72930000D01*
X143980000Y-60815000D02*
X143980000Y-68765000D01*
X19852900Y-75747100D02*
X22670000Y-72930000D01*
X19852900Y-79118700D02*
X19852900Y-75747100D01*
X25442100Y-84707900D02*
X19852900Y-79118700D01*
X77272900Y-84707900D02*
X25442100Y-84707900D01*
X79666700Y-82314100D02*
X77272900Y-84707900D01*
X79666700Y-82227900D02*
X79666700Y-82314100D01*
X83199700Y-78694900D02*
X79666700Y-82227900D01*
X107213900Y-78694900D02*
X83199700Y-78694900D01*
X108537100Y-77371700D02*
X107213900Y-78694900D01*
X115732800Y-77371700D02*
X108537100Y-77371700D01*
X116978900Y-78617800D02*
X115732800Y-77371700D01*
X124249200Y-78617800D02*
X116978900Y-78617800D01*
X126163300Y-76703700D02*
X124249200Y-78617800D01*
X134591200Y-76703700D02*
X126163300Y-76703700D01*
X142529900Y-68765000D02*
X134591200Y-76703700D01*
X143980000Y-68765000D02*
X142529900Y-68765000D01*
X38592700Y-63531800D02*
X29528200Y-63531800D01*
X29528200Y-63531800D02*
X25210000Y-67850000D01*
X108786200Y-33694100D02*
X110429500Y-35337400D01*
X110239400Y-35527600D02*
X110429500Y-35337400D01*
X110239400Y-41375500D02*
X110239400Y-35527600D01*
X104862000Y-46752900D02*
X110239400Y-41375500D01*
X103306300Y-46752900D02*
X104862000Y-46752900D01*
X102206200Y-47853000D02*
X103306300Y-46752900D01*
X62989200Y-47853000D02*
X102206200Y-47853000D01*
X48898200Y-61944000D02*
X62989200Y-47853000D01*
X47342400Y-61944000D02*
X48898200Y-61944000D01*
X45754600Y-63531800D02*
X47342400Y-61944000D01*
X38592700Y-63531800D02*
X45754600Y-63531800D01*
X18752700Y-69227300D02*
X22670000Y-65310000D01*
X18752700Y-79589700D02*
X18752700Y-69227300D01*
X24971100Y-85808100D02*
X18752700Y-79589700D01*
X104095300Y-85808100D02*
X24971100Y-85808100D01*
X111005400Y-78898000D02*
X104095300Y-85808100D01*
X114990100Y-78898000D02*
X111005400Y-78898000D01*
X36000000Y-35861000D02*
X35111000Y-35861000D01*
X35111000Y-35861000D02*
X34500000Y-35250000D01*
X22670000Y-26080000D02*
X22670000Y-29750000D01*
X22750000Y-26000000D02*
X22670000Y-26080000D01*
X29000000Y-26000000D02*
X22750000Y-26000000D01*
X29250000Y-26250000D02*
X29000000Y-26000000D01*
X29250000Y-30000000D02*
X29250000Y-26250000D01*
X34500000Y-35250000D02*
X29250000Y-30000000D01*
X86645000Y-40965000D02*
X81565000Y-40965000D01*
X86645000Y-68905000D02*
X81565000Y-68905000D01*
X86645000Y-54935000D02*
X81565000Y-54935000D01*
X77755000Y-58745000D02*
X76485000Y-58745000D01*
X81565000Y-54935000D02*
X77755000Y-58745000D01*
X71381000Y-35861000D02*
X36000000Y-35861000D01*
X76485000Y-40965000D02*
X71381000Y-35861000D01*
X81815000Y-83125000D02*
X86625000Y-83125000D01*
X81565000Y-82875000D02*
X81815000Y-83125000D01*
X139480000Y-60815000D02*
X139480000Y-68765000D01*
X84119800Y-75240200D02*
X76485000Y-82875000D01*
X131554700Y-75240200D02*
X84119800Y-75240200D01*
X138029900Y-68765000D02*
X131554700Y-75240200D01*
X139480000Y-68765000D02*
X138029900Y-68765000D01*
X113000000Y-31520700D02*
X115178598Y-31520700D01*
X115178598Y-31520700D02*
X116463821Y-32805923D01*
X78322700Y-32642700D02*
X76485000Y-30805000D01*
X103025300Y-32642700D02*
X78322700Y-32642700D01*
X104147300Y-31520700D02*
X103025300Y-32642700D01*
X113000000Y-31520700D02*
X104147300Y-31520700D01*
X139480000Y-43035000D02*
X139480000Y-50985000D01*
X118070000Y-70944900D02*
X138029900Y-50985000D01*
X83335100Y-70944900D02*
X118070000Y-70944900D01*
X81565000Y-72715000D02*
X83335100Y-70944900D01*
X139480000Y-50985000D02*
X138029900Y-50985000D01*
X83410200Y-46620200D02*
X81565000Y-44775000D01*
X98362800Y-46620200D02*
X83410200Y-46620200D01*
X102820400Y-42162500D02*
X98362800Y-46620200D01*
X104463800Y-43805900D02*
X102820400Y-42162500D01*
X63790000Y-16400000D02*
X63790000Y-18724100D01*
X63790000Y-18724100D02*
X63790000Y-29100000D01*
X84740000Y-42870000D02*
X86645000Y-44775000D01*
X80822400Y-42870000D02*
X84740000Y-42870000D01*
X79130300Y-41177900D02*
X80822400Y-42870000D01*
X79130300Y-41065000D02*
X79130300Y-41177900D01*
X67165300Y-29100000D02*
X79130300Y-41065000D01*
X63790000Y-29100000D02*
X67165300Y-29100000D01*
M02*
