G04 #@! TF.FileFunction,Legend,Bot*
%FSLAX46Y46*%
G04 Gerber Fmt 4.6, Leading zero omitted, Abs format (unit mm)*
G04 Created by KiCad (PCBNEW 0.201507290901+6012~27~ubuntu14.04.1-product) date Thu 30 Jul 2015 05:29:40 PM EDT*
%MOMM*%
G01*
G04 APERTURE LIST*
%ADD10C,0.100000*%
%ADD11C,0.150000*%
G04 APERTURE END LIST*
D10*
D11*
X129095000Y-54825000D02*
X129095000Y-53555000D01*
X136445000Y-54825000D02*
X136445000Y-53555000D01*
X136445000Y-42615000D02*
X136445000Y-43885000D01*
X129095000Y-42615000D02*
X129095000Y-43885000D01*
X129095000Y-54825000D02*
X136445000Y-54825000D01*
X129095000Y-42615000D02*
X136445000Y-42615000D01*
X129095000Y-53555000D02*
X128160000Y-53555000D01*
X106829050Y-64500000D02*
G75*
G03X106829050Y-64500000I-4579050J0D01*
G01*
X95900000Y-70850000D02*
X108600000Y-70850000D01*
X108600000Y-70850000D02*
X108600000Y-58150000D01*
X108600000Y-58150000D02*
X95900000Y-58150000D01*
X95900000Y-58150000D02*
X95900000Y-70850000D01*
X170329050Y-65250000D02*
G75*
G03X170329050Y-65250000I-4579050J0D01*
G01*
X159400000Y-71600000D02*
X172100000Y-71600000D01*
X172100000Y-71600000D02*
X172100000Y-58900000D01*
X172100000Y-58900000D02*
X159400000Y-58900000D01*
X159400000Y-58900000D02*
X159400000Y-71600000D01*
X129936190Y-58202381D02*
X129936190Y-57202381D01*
X128888571Y-58107143D02*
X128936190Y-58154762D01*
X129079047Y-58202381D01*
X129174285Y-58202381D01*
X129317143Y-58154762D01*
X129412381Y-58059524D01*
X129460000Y-57964286D01*
X129507619Y-57773810D01*
X129507619Y-57630952D01*
X129460000Y-57440476D01*
X129412381Y-57345238D01*
X129317143Y-57250000D01*
X129174285Y-57202381D01*
X129079047Y-57202381D01*
X128936190Y-57250000D01*
X128888571Y-57297619D01*
X127936190Y-58202381D02*
X128507619Y-58202381D01*
X128221905Y-58202381D02*
X128221905Y-57202381D01*
X128317143Y-57345238D01*
X128412381Y-57440476D01*
X128507619Y-57488095D01*
X103583333Y-65666762D02*
X103440476Y-65714381D01*
X103202380Y-65714381D01*
X103107142Y-65666762D01*
X103059523Y-65619143D01*
X103011904Y-65523905D01*
X103011904Y-65428667D01*
X103059523Y-65333429D01*
X103107142Y-65285810D01*
X103202380Y-65238190D01*
X103392857Y-65190571D01*
X103488095Y-65142952D01*
X103535714Y-65095333D01*
X103583333Y-65000095D01*
X103583333Y-64904857D01*
X103535714Y-64809619D01*
X103488095Y-64762000D01*
X103392857Y-64714381D01*
X103154761Y-64714381D01*
X103011904Y-64762000D01*
X102678571Y-64714381D02*
X102440476Y-65714381D01*
X102249999Y-65000095D01*
X102059523Y-65714381D01*
X101821428Y-64714381D01*
X101297619Y-65142952D02*
X101392857Y-65095333D01*
X101440476Y-65047714D01*
X101488095Y-64952476D01*
X101488095Y-64904857D01*
X101440476Y-64809619D01*
X101392857Y-64762000D01*
X101297619Y-64714381D01*
X101107142Y-64714381D01*
X101011904Y-64762000D01*
X100964285Y-64809619D01*
X100916666Y-64904857D01*
X100916666Y-64952476D01*
X100964285Y-65047714D01*
X101011904Y-65095333D01*
X101107142Y-65142952D01*
X101297619Y-65142952D01*
X101392857Y-65190571D01*
X101440476Y-65238190D01*
X101488095Y-65333429D01*
X101488095Y-65523905D01*
X101440476Y-65619143D01*
X101392857Y-65666762D01*
X101297619Y-65714381D01*
X101107142Y-65714381D01*
X101011904Y-65666762D01*
X100964285Y-65619143D01*
X100916666Y-65523905D01*
X100916666Y-65333429D01*
X100964285Y-65238190D01*
X101011904Y-65190571D01*
X101107142Y-65142952D01*
X167559524Y-66416762D02*
X167416667Y-66464381D01*
X167178571Y-66464381D01*
X167083333Y-66416762D01*
X167035714Y-66369143D01*
X166988095Y-66273905D01*
X166988095Y-66178667D01*
X167035714Y-66083429D01*
X167083333Y-66035810D01*
X167178571Y-65988190D01*
X167369048Y-65940571D01*
X167464286Y-65892952D01*
X167511905Y-65845333D01*
X167559524Y-65750095D01*
X167559524Y-65654857D01*
X167511905Y-65559619D01*
X167464286Y-65512000D01*
X167369048Y-65464381D01*
X167130952Y-65464381D01*
X166988095Y-65512000D01*
X166654762Y-65464381D02*
X166416667Y-66464381D01*
X166226190Y-65750095D01*
X166035714Y-66464381D01*
X165797619Y-65464381D01*
X164892857Y-66464381D02*
X165464286Y-66464381D01*
X165178572Y-66464381D02*
X165178572Y-65464381D01*
X165273810Y-65607238D01*
X165369048Y-65702476D01*
X165464286Y-65750095D01*
X163940476Y-66464381D02*
X164511905Y-66464381D01*
X164226191Y-66464381D02*
X164226191Y-65464381D01*
X164321429Y-65607238D01*
X164416667Y-65702476D01*
X164511905Y-65750095D01*
M02*
