%TF.GenerationSoftware,KiCad,Pcbnew,(2015-12-28 BZR 6407, Git 3dff6c0)-product*%
%TF.CreationDate,2016-02-12T11:54:30-05:00*%
%TF.ProjectId,Pixel-Interface-Board,506978656C2D496E746572666163652D,rev?*%
%TF.FileFunction,Legend,Bot*%
%FSLAX46Y46*%
G04 Gerber Fmt 4.6, Leading zero omitted, Abs format (unit mm)*
G04 Created by KiCad (PCBNEW (2015-12-28 BZR 6407, Git 3dff6c0)-product) date Fri 12 Feb 2016 11:54:30 AM EST*
%MOMM*%
G01*
G04 APERTURE LIST*
%ADD10C,0.100000*%
%ADD11C,0.150000*%
G04 APERTURE END LIST*
D10*
D11*
X50825000Y-59405000D02*
X49555000Y-59405000D01*
X50825000Y-52055000D02*
X49555000Y-52055000D01*
X38615000Y-52055000D02*
X39885000Y-52055000D01*
X38615000Y-59405000D02*
X39885000Y-59405000D01*
X50825000Y-59405000D02*
X50825000Y-52055000D01*
X38615000Y-59405000D02*
X38615000Y-52055000D01*
X49555000Y-59405000D02*
X49555000Y-60340000D01*
X63040000Y-86250000D02*
G75*
G03X63040000Y-86250000I-2540000J0D01*
G01*
X64310000Y-90060000D02*
X64310000Y-82440000D01*
X64310000Y-82440000D02*
X56690000Y-82440000D01*
X56690000Y-82440000D02*
X56690000Y-90060000D01*
X64310000Y-90060000D02*
X56690000Y-90060000D01*
X63790000Y-22750000D02*
G75*
G03X63790000Y-22750000I-2540000J0D01*
G01*
X65060000Y-26560000D02*
X65060000Y-18940000D01*
X65060000Y-18940000D02*
X57440000Y-18940000D01*
X57440000Y-18940000D02*
X57440000Y-26560000D01*
X65060000Y-26560000D02*
X57440000Y-26560000D01*
D10*
X48530000Y-60290000D02*
X48530000Y-60290000D01*
X48530000Y-58790000D02*
X48530000Y-58790000D01*
X48530000Y-60290000D02*
G75*
G03X48530000Y-58790000I0J750000D01*
G01*
X48530000Y-58790000D02*
G75*
G03X48530000Y-60290000I0J-750000D01*
G01*
X45990000Y-60290000D02*
X45990000Y-60290000D01*
X45990000Y-58790000D02*
X45990000Y-58790000D01*
X45990000Y-60290000D02*
G75*
G03X45990000Y-58790000I0J750000D01*
G01*
X45990000Y-58790000D02*
G75*
G03X45990000Y-60290000I0J-750000D01*
G01*
X43450000Y-60290000D02*
X43450000Y-60290000D01*
X43450000Y-58790000D02*
X43450000Y-58790000D01*
X43450000Y-60290000D02*
G75*
G03X43450000Y-58790000I0J750000D01*
G01*
X43450000Y-58790000D02*
G75*
G03X43450000Y-60290000I0J-750000D01*
G01*
X40910000Y-60290000D02*
X40910000Y-60290000D01*
X40910000Y-58790000D02*
X40910000Y-58790000D01*
X40910000Y-60290000D02*
G75*
G03X40910000Y-58790000I0J750000D01*
G01*
X40910000Y-58790000D02*
G75*
G03X40910000Y-60290000I0J-750000D01*
G01*
X40910000Y-52670000D02*
X40910000Y-52670000D01*
X40910000Y-51170000D02*
X40910000Y-51170000D01*
X40910000Y-52670000D02*
G75*
G03X40910000Y-51170000I0J750000D01*
G01*
X40910000Y-51170000D02*
G75*
G03X40910000Y-52670000I0J-750000D01*
G01*
X43450000Y-52670000D02*
X43450000Y-52670000D01*
X43450000Y-51170000D02*
X43450000Y-51170000D01*
X43450000Y-52670000D02*
G75*
G03X43450000Y-51170000I0J750000D01*
G01*
X43450000Y-51170000D02*
G75*
G03X43450000Y-52670000I0J-750000D01*
G01*
X45990000Y-52670000D02*
X45990000Y-52670000D01*
X45990000Y-51170000D02*
X45990000Y-51170000D01*
X45990000Y-52670000D02*
G75*
G03X45990000Y-51170000I0J750000D01*
G01*
X45990000Y-51170000D02*
G75*
G03X45990000Y-52670000I0J-750000D01*
G01*
X48530000Y-52670000D02*
X48530000Y-52670000D01*
X48530000Y-51170000D02*
X48530000Y-51170000D01*
X48530000Y-52670000D02*
G75*
G03X48530000Y-51170000I0J750000D01*
G01*
X48530000Y-51170000D02*
G75*
G03X48530000Y-52670000I0J-750000D01*
G01*
X133779490Y-18000000D02*
G75*
G03X133779490Y-18000000I-949490J0D01*
G01*
X123619490Y-18000000D02*
G75*
G03X123619490Y-18000000I-949490J0D01*
G01*
X134199490Y-59420000D02*
G75*
G03X134199490Y-59420000I-949490J0D01*
G01*
X134199490Y-69580000D02*
G75*
G03X134199490Y-69580000I-949490J0D01*
G01*
X101949490Y-80580000D02*
G75*
G03X101949490Y-80580000I-949490J0D01*
G01*
X101949490Y-70420000D02*
G75*
G03X101949490Y-70420000I-949490J0D01*
G01*
X127369490Y-37000000D02*
G75*
G03X127369490Y-37000000I-949490J0D01*
G01*
X137529490Y-37000000D02*
G75*
G03X137529490Y-37000000I-949490J0D01*
G01*
X132449490Y-43170000D02*
G75*
G03X132449490Y-43170000I-949490J0D01*
G01*
X132449490Y-53330000D02*
G75*
G03X132449490Y-53330000I-949490J0D01*
G01*
X137949490Y-83580000D02*
G75*
G03X137949490Y-83580000I-949490J0D01*
G01*
X137949490Y-73420000D02*
G75*
G03X137949490Y-73420000I-949490J0D01*
G01*
X107449490Y-45920000D02*
G75*
G03X107449490Y-45920000I-949490J0D01*
G01*
X107449490Y-56080000D02*
G75*
G03X107449490Y-56080000I-949490J0D01*
G01*
X63869490Y-76000000D02*
G75*
G03X63869490Y-76000000I-949490J0D01*
G01*
X74029490Y-76000000D02*
G75*
G03X74029490Y-76000000I-949490J0D01*
G01*
X113279490Y-90000000D02*
G75*
G03X113279490Y-90000000I-949490J0D01*
G01*
X103119490Y-90000000D02*
G75*
G03X103119490Y-90000000I-949490J0D01*
G01*
X98779490Y-35250000D02*
G75*
G03X98779490Y-35250000I-949490J0D01*
G01*
X88619490Y-35250000D02*
G75*
G03X88619490Y-35250000I-949490J0D01*
G01*
X53529490Y-17500000D02*
G75*
G03X53529490Y-17500000I-949490J0D01*
G01*
X43369490Y-17500000D02*
G75*
G03X43369490Y-17500000I-949490J0D01*
G01*
X115449490Y-61830000D02*
G75*
G03X115449490Y-61830000I-949490J0D01*
G01*
X115449490Y-51670000D02*
G75*
G03X115449490Y-51670000I-949490J0D01*
G01*
X47449490Y-81670000D02*
G75*
G03X47449490Y-81670000I-949490J0D01*
G01*
X47449490Y-91830000D02*
G75*
G03X47449490Y-91830000I-949490J0D01*
G01*
X48779490Y-44750000D02*
G75*
G03X48779490Y-44750000I-949490J0D01*
G01*
X38619490Y-44750000D02*
G75*
G03X38619490Y-44750000I-949490J0D01*
G01*
X63688500Y-82440000D02*
G75*
G03X63688500Y-82440000I-648500J0D01*
G01*
X58608500Y-82440000D02*
G75*
G03X58608500Y-82440000I-648500J0D01*
G01*
X63688500Y-90060000D02*
G75*
G03X63688500Y-90060000I-648500J0D01*
G01*
X58608500Y-90060000D02*
G75*
G03X58608500Y-90060000I-648500J0D01*
G01*
X64438500Y-18940000D02*
G75*
G03X64438500Y-18940000I-648500J0D01*
G01*
X59358500Y-18940000D02*
G75*
G03X59358500Y-18940000I-648500J0D01*
G01*
X64438500Y-26560000D02*
G75*
G03X64438500Y-26560000I-648500J0D01*
G01*
X59358500Y-26560000D02*
G75*
G03X59358500Y-26560000I-648500J0D01*
G01*
D11*
X54202381Y-58563810D02*
X53202381Y-58563810D01*
X54107143Y-59611429D02*
X54154762Y-59563810D01*
X54202381Y-59420953D01*
X54202381Y-59325715D01*
X54154762Y-59182857D01*
X54059524Y-59087619D01*
X53964286Y-59040000D01*
X53773810Y-58992381D01*
X53630952Y-58992381D01*
X53440476Y-59040000D01*
X53345238Y-59087619D01*
X53250000Y-59182857D01*
X53202381Y-59325715D01*
X53202381Y-59420953D01*
X53250000Y-59563810D01*
X53297619Y-59611429D01*
X54202381Y-60563810D02*
X54202381Y-59992381D01*
X54202381Y-60278095D02*
X53202381Y-60278095D01*
X53345238Y-60182857D01*
X53440476Y-60087619D01*
X53488095Y-59992381D01*
X61666762Y-84916667D02*
X61714381Y-85059524D01*
X61714381Y-85297620D01*
X61666762Y-85392858D01*
X61619143Y-85440477D01*
X61523905Y-85488096D01*
X61428667Y-85488096D01*
X61333429Y-85440477D01*
X61285810Y-85392858D01*
X61238190Y-85297620D01*
X61190571Y-85107143D01*
X61142952Y-85011905D01*
X61095333Y-84964286D01*
X61000095Y-84916667D01*
X60904857Y-84916667D01*
X60809619Y-84964286D01*
X60762000Y-85011905D01*
X60714381Y-85107143D01*
X60714381Y-85345239D01*
X60762000Y-85488096D01*
X60714381Y-85821429D02*
X61714381Y-86059524D01*
X61000095Y-86250001D01*
X61714381Y-86440477D01*
X60714381Y-86678572D01*
X61142952Y-87202381D02*
X61095333Y-87107143D01*
X61047714Y-87059524D01*
X60952476Y-87011905D01*
X60904857Y-87011905D01*
X60809619Y-87059524D01*
X60762000Y-87107143D01*
X60714381Y-87202381D01*
X60714381Y-87392858D01*
X60762000Y-87488096D01*
X60809619Y-87535715D01*
X60904857Y-87583334D01*
X60952476Y-87583334D01*
X61047714Y-87535715D01*
X61095333Y-87488096D01*
X61142952Y-87392858D01*
X61142952Y-87202381D01*
X61190571Y-87107143D01*
X61238190Y-87059524D01*
X61333429Y-87011905D01*
X61523905Y-87011905D01*
X61619143Y-87059524D01*
X61666762Y-87107143D01*
X61714381Y-87202381D01*
X61714381Y-87392858D01*
X61666762Y-87488096D01*
X61619143Y-87535715D01*
X61523905Y-87583334D01*
X61333429Y-87583334D01*
X61238190Y-87535715D01*
X61190571Y-87488096D01*
X61142952Y-87392858D01*
X62416762Y-20940476D02*
X62464381Y-21083333D01*
X62464381Y-21321429D01*
X62416762Y-21416667D01*
X62369143Y-21464286D01*
X62273905Y-21511905D01*
X62178667Y-21511905D01*
X62083429Y-21464286D01*
X62035810Y-21416667D01*
X61988190Y-21321429D01*
X61940571Y-21130952D01*
X61892952Y-21035714D01*
X61845333Y-20988095D01*
X61750095Y-20940476D01*
X61654857Y-20940476D01*
X61559619Y-20988095D01*
X61512000Y-21035714D01*
X61464381Y-21130952D01*
X61464381Y-21369048D01*
X61512000Y-21511905D01*
X61464381Y-21845238D02*
X62464381Y-22083333D01*
X61750095Y-22273810D01*
X62464381Y-22464286D01*
X61464381Y-22702381D01*
X62464381Y-23607143D02*
X62464381Y-23035714D01*
X62464381Y-23321428D02*
X61464381Y-23321428D01*
X61607238Y-23226190D01*
X61702476Y-23130952D01*
X61750095Y-23035714D01*
X62464381Y-24559524D02*
X62464381Y-23988095D01*
X62464381Y-24273809D02*
X61464381Y-24273809D01*
X61607238Y-24178571D01*
X61702476Y-24083333D01*
X61750095Y-23988095D01*
M02*
