%TF.GenerationSoftware,KiCad,Pcbnew,(2015-12-28 BZR 6407, Git 3dff6c0)-product*%
%TF.CreationDate,2016-02-12T11:54:30-05:00*%
%TF.ProjectId,Pixel-Interface-Board,506978656C2D496E746572666163652D,rev?*%
%TF.FileFunction,Copper,L2,Bot,Signal*%
%FSLAX46Y46*%
G04 Gerber Fmt 4.6, Leading zero omitted, Abs format (unit mm)*
G04 Created by KiCad (PCBNEW (2015-12-28 BZR 6407, Git 3dff6c0)-product) date Fri 12 Feb 2016 11:54:30 AM EST*
%MOMM*%
G01*
G04 APERTURE LIST*
%ADD10C,0.100000*%
%ADD11R,2.000000X1.900000*%
%ADD12C,1.900000*%
%ADD13O,1.600000X1.600000*%
%ADD14R,1.727200X1.727200*%
%ADD15O,1.727200X1.727200*%
%ADD16C,1.998980*%
%ADD17C,1.397000*%
%ADD18O,1.506220X3.014980*%
%ADD19C,0.600000*%
G04 APERTURE END LIST*
D10*
D11*
X38750000Y-88000000D03*
D12*
X38750000Y-90540000D03*
D13*
X48530000Y-59540000D03*
X45990000Y-59540000D03*
X43450000Y-59540000D03*
X40910000Y-59540000D03*
X40910000Y-51920000D03*
X43450000Y-51920000D03*
X45990000Y-51920000D03*
X48530000Y-51920000D03*
D14*
X25210000Y-78010000D03*
D15*
X22670000Y-78010000D03*
X25210000Y-75470000D03*
X22670000Y-75470000D03*
X25210000Y-72930000D03*
X22670000Y-72930000D03*
X25210000Y-70390000D03*
X22670000Y-70390000D03*
X25210000Y-67850000D03*
X22670000Y-67850000D03*
X25210000Y-65310000D03*
X22670000Y-65310000D03*
X25210000Y-62770000D03*
X22670000Y-62770000D03*
X25210000Y-60230000D03*
X22670000Y-60230000D03*
X25210000Y-57690000D03*
X22670000Y-57690000D03*
X25210000Y-55150000D03*
X22670000Y-55150000D03*
X25210000Y-52610000D03*
X22670000Y-52610000D03*
X25210000Y-50070000D03*
X22670000Y-50070000D03*
X25210000Y-47530000D03*
X22670000Y-47530000D03*
X25210000Y-44990000D03*
X22670000Y-44990000D03*
X25210000Y-42450000D03*
X22670000Y-42450000D03*
X25210000Y-39910000D03*
X22670000Y-39910000D03*
X25210000Y-37370000D03*
X22670000Y-37370000D03*
X25210000Y-34830000D03*
X22670000Y-34830000D03*
X25210000Y-32290000D03*
X22670000Y-32290000D03*
X25210000Y-29750000D03*
X22670000Y-29750000D03*
D16*
X132830000Y-18000000D03*
X122670000Y-18000000D03*
X133250000Y-59420000D03*
X133250000Y-69580000D03*
X101000000Y-80580000D03*
X101000000Y-70420000D03*
X126420000Y-37000000D03*
X136580000Y-37000000D03*
X131500000Y-43170000D03*
X131500000Y-53330000D03*
X137000000Y-83580000D03*
X137000000Y-73420000D03*
X106500000Y-45920000D03*
X106500000Y-56080000D03*
X62920000Y-76000000D03*
X73080000Y-76000000D03*
X112330000Y-90000000D03*
X102170000Y-90000000D03*
X97830000Y-35250000D03*
X87670000Y-35250000D03*
X52580000Y-17500000D03*
X42420000Y-17500000D03*
X114500000Y-61830000D03*
X114500000Y-51670000D03*
X46500000Y-81670000D03*
X46500000Y-91830000D03*
X47830000Y-44750000D03*
X37670000Y-44750000D03*
D17*
X106009872Y-77101974D03*
X109601974Y-73509872D03*
X111398026Y-82490128D03*
X114990128Y-78898026D03*
X132490128Y-78898026D03*
X128898026Y-82490128D03*
X127101974Y-73509872D03*
X123509872Y-77101974D03*
X114759872Y-85851974D03*
X118351974Y-82259872D03*
X120148026Y-91240128D03*
X123740128Y-87648026D03*
X114759872Y-68351974D03*
X118351974Y-64759872D03*
X120148026Y-73740128D03*
X123740128Y-70148026D03*
X118560000Y-15710000D03*
X118560000Y-20790000D03*
X110940000Y-15710000D03*
X110940000Y-20790000D03*
X139190000Y-60980000D03*
X144270000Y-60980000D03*
X139190000Y-68600000D03*
X144270000Y-68600000D03*
X117259872Y-31101974D03*
X120851974Y-27509872D03*
X122648026Y-36490128D03*
X126240128Y-32898026D03*
X139190000Y-43200000D03*
X144270000Y-43200000D03*
X139190000Y-50820000D03*
X144270000Y-50820000D03*
X106259872Y-39351974D03*
X109851974Y-35759872D03*
X111648026Y-44740128D03*
X115240128Y-41148026D03*
X63040000Y-82440000D03*
X57960000Y-82440000D03*
X63040000Y-90060000D03*
X57960000Y-90060000D03*
X99509872Y-25851974D03*
X103101974Y-22259872D03*
X104898026Y-31240128D03*
X108490128Y-27648026D03*
X63790000Y-18940000D03*
X58710000Y-18940000D03*
X63790000Y-26560000D03*
X58710000Y-26560000D03*
D18*
X16256000Y-18542000D03*
X18796000Y-18542000D03*
D19*
X32173800Y-79673700D02*
X38750000Y-86249900D01*
X22670000Y-79673700D02*
X32173800Y-79673700D01*
X22670000Y-78010000D02*
X22670000Y-79673700D01*
X38750000Y-88000000D02*
X38750000Y-86249900D01*
X43450000Y-59540000D02*
X43450000Y-57547000D01*
X28734000Y-39910000D02*
X25210000Y-39910000D01*
X28956000Y-40132000D02*
X28734000Y-39910000D01*
X28956000Y-56388000D02*
X28956000Y-40132000D01*
X29591000Y-57023000D02*
X28956000Y-56388000D01*
X42926000Y-57023000D02*
X29591000Y-57023000D01*
X43450000Y-57547000D02*
X42926000Y-57023000D01*
X40910000Y-47990000D02*
X40910000Y-51920000D01*
X37670000Y-44750000D02*
X40910000Y-47990000D01*
X48530000Y-45450000D02*
X47830000Y-44750000D01*
X48530000Y-51920000D02*
X48530000Y-45450000D01*
X35370000Y-32290000D02*
X47830000Y-44750000D01*
X25210000Y-32290000D02*
X35370000Y-32290000D01*
X109851974Y-35759872D02*
X104956128Y-35759872D01*
X48355000Y-70390000D02*
X25210000Y-70390000D01*
X70739000Y-48006000D02*
X48355000Y-70390000D01*
X96266000Y-48006000D02*
X70739000Y-48006000D01*
X96520000Y-47752000D02*
X96266000Y-48006000D01*
X96520000Y-44196000D02*
X96520000Y-47752000D01*
X104956128Y-35759872D02*
X96520000Y-44196000D01*
X120851974Y-27509872D02*
X118286128Y-27509872D01*
X48736000Y-75470000D02*
X25210000Y-75470000D01*
X73279000Y-50927000D02*
X48736000Y-75470000D01*
X111125000Y-50927000D02*
X73279000Y-50927000D01*
X121793000Y-40259000D02*
X111125000Y-50927000D01*
X122047000Y-40259000D02*
X121793000Y-40259000D01*
X114554000Y-32766000D02*
X122047000Y-40259000D01*
X114554000Y-31242000D02*
X114554000Y-32766000D01*
X118286128Y-27509872D02*
X114554000Y-31242000D01*
X144270000Y-50820000D02*
X144270000Y-43200000D01*
X110940000Y-20790000D02*
X110940000Y-32581000D01*
X48990000Y-72930000D02*
X25210000Y-72930000D01*
X72644000Y-49276000D02*
X48990000Y-72930000D01*
X109854569Y-49149433D02*
X72644000Y-49276000D01*
X118745000Y-40386000D02*
X109854569Y-49149433D01*
X110940000Y-32581000D02*
X118745000Y-40386000D01*
X144270000Y-68600000D02*
X144270000Y-60980000D01*
X28119100Y-86688900D02*
X26363900Y-86688900D01*
X20066000Y-62834000D02*
X22670000Y-60230000D01*
X20066000Y-80391000D02*
X20066000Y-62834000D01*
X26363900Y-86688900D02*
X20066000Y-80391000D01*
X33782000Y-92583000D02*
X28119100Y-86688900D01*
X43307000Y-92583000D02*
X33782000Y-92583000D01*
X44534900Y-90004200D02*
X43307000Y-92583000D01*
X57960000Y-90004200D02*
X44534900Y-90004200D01*
X57960000Y-90060000D02*
X57960000Y-90004200D01*
X57960000Y-90004200D02*
X57960000Y-82440000D01*
X103101974Y-22259872D02*
X99406128Y-22259872D01*
X28480000Y-66040000D02*
X25210000Y-62770000D01*
X49784000Y-66040000D02*
X28480000Y-66040000D01*
X69215000Y-46609000D02*
X49784000Y-66040000D01*
X94869000Y-46609000D02*
X69215000Y-46609000D01*
X94996000Y-46482000D02*
X94869000Y-46609000D01*
X94996000Y-26670000D02*
X94996000Y-46482000D01*
X99406128Y-22259872D02*
X94996000Y-26670000D01*
X108490100Y-27648000D02*
X103102000Y-22259900D01*
X16510000Y-83312000D02*
X16510000Y-63850000D01*
X16510000Y-63850000D02*
X22670000Y-57690000D01*
X60598000Y-28448000D02*
X58710000Y-26560000D01*
X65278000Y-28448000D02*
X60598000Y-28448000D01*
X75057000Y-18669000D02*
X65278000Y-28448000D01*
X119634000Y-18669000D02*
X75057000Y-18669000D01*
X121158000Y-20193000D02*
X119634000Y-18669000D01*
X135128000Y-20193000D02*
X121158000Y-20193000D01*
X146685000Y-31750000D02*
X135128000Y-20193000D01*
X146685000Y-91948000D02*
X146685000Y-31750000D01*
X145034000Y-93599000D02*
X146685000Y-91948000D01*
X18923000Y-93599000D02*
X145034000Y-93599000D01*
X16510000Y-91186000D02*
X18923000Y-93599000D01*
X16510000Y-83312000D02*
X16510000Y-91186000D01*
X58710000Y-26560000D02*
X58710000Y-18940000D01*
X114990100Y-78898000D02*
X109602000Y-73509900D01*
X101000000Y-88830000D02*
X101000000Y-80580000D01*
X102170000Y-90000000D02*
X101000000Y-88830000D01*
X34920000Y-17500000D02*
X22670000Y-29750000D01*
X42420000Y-17500000D02*
X34920000Y-17500000D01*
X137000000Y-63170000D02*
X137000000Y-73420000D01*
X133250000Y-59420000D02*
X137000000Y-63170000D01*
X136580000Y-44930000D02*
X136580000Y-37000000D01*
X129840000Y-51670000D02*
X136580000Y-44930000D01*
X114500000Y-51670000D02*
X129840000Y-51670000D01*
X129840000Y-51670000D02*
X131500000Y-53330000D01*
X110363000Y-53975000D02*
X106500000Y-56080000D01*
X114500000Y-51670000D02*
X110363000Y-53975000D01*
X99196600Y-76000000D02*
X73080000Y-76000000D01*
X99196600Y-63383400D02*
X99196600Y-76000000D01*
X106500000Y-56080000D02*
X99196600Y-63383400D01*
X99196600Y-78776600D02*
X101000000Y-80580000D01*
X99196600Y-76000000D02*
X99196600Y-78776600D01*
X123509900Y-77102000D02*
X128898000Y-82490100D01*
X123740100Y-87648000D02*
X118352000Y-82259900D01*
X123740100Y-70148000D02*
X118352000Y-64759900D01*
X120850000Y-18000000D02*
X122670000Y-18000000D01*
X118560000Y-15710000D02*
X120850000Y-18000000D01*
X139190000Y-60980000D02*
X139190000Y-68600000D01*
X111398000Y-82490100D02*
X106009900Y-77102000D01*
X106009900Y-75429900D02*
X106009900Y-77102000D01*
X101000000Y-70420000D02*
X106009900Y-75429900D01*
X117259900Y-31102000D02*
X122648000Y-36490100D01*
X139190000Y-50820000D02*
X139190000Y-43200000D01*
X127102000Y-73509900D02*
X132490100Y-78898000D01*
X137000000Y-83407900D02*
X137000000Y-83580000D01*
X132490100Y-78898000D02*
X137000000Y-83407900D01*
X63040000Y-90060000D02*
X63040000Y-82440000D01*
X117453900Y-88546000D02*
X114759900Y-88546000D01*
X120148000Y-91240100D02*
X117453900Y-88546000D01*
X113784000Y-88546000D02*
X112330000Y-90000000D01*
X114759900Y-88546000D02*
X113784000Y-88546000D01*
X63790000Y-26560000D02*
X63790000Y-18940000D01*
X120148000Y-73740100D02*
X114759900Y-68352000D01*
X114500000Y-68092100D02*
X114500000Y-61830000D01*
X114759900Y-68352000D02*
X114500000Y-68092100D01*
M02*
