M48
;DRILL file {KiCad (2015-12-28 BZR 6407, Git 3dff6c0)-product} date Sat 06 Feb 2016 03:03:56 PM EST
;FORMAT={-:-/ absolute / metric / decimal}
FMAT,2
METRIC,TZ
T1C0.800
T2C0.813
T3C1.001
T4C1.016
%
G90
G05
M71
T1
X40.91Y-51.92
X40.91Y-59.54
X43.45Y-51.92
X43.45Y-59.54
X45.99Y-51.92
X45.99Y-59.54
X48.53Y-51.92
X48.53Y-59.54
T2
X57.96Y-82.44
X57.96Y-90.06
X58.71Y-18.94
X58.71Y-26.56
X63.04Y-82.44
X63.04Y-90.06
X63.79Y-18.94
X63.79Y-26.56
X99.51Y-25.852
X103.102Y-22.26
X104.898Y-31.24
X106.01Y-77.102
X106.26Y-39.352
X108.49Y-27.648
X109.602Y-73.51
X109.852Y-35.76
X110.94Y-15.71
X110.94Y-20.79
X111.398Y-82.49
X111.648Y-44.74
X114.76Y-68.352
X114.76Y-85.852
X114.99Y-78.898
X115.24Y-41.148
X117.26Y-31.102
X118.352Y-64.76
X118.352Y-82.26
X118.56Y-15.71
X118.56Y-20.79
X120.148Y-73.74
X120.148Y-91.24
X120.852Y-27.51
X122.648Y-36.49
X123.51Y-77.102
X123.74Y-70.148
X123.74Y-87.648
X126.24Y-32.898
X127.102Y-73.51
X128.898Y-82.49
X132.49Y-78.898
X139.19Y-43.2
X139.19Y-50.82
X139.19Y-60.98
X139.19Y-68.6
X144.27Y-43.2
X144.27Y-50.82
X144.27Y-60.98
X144.27Y-68.6
T3
X37.67Y-44.75
X38.75Y-88.
X38.75Y-90.54
X42.42Y-17.5
X46.5Y-81.67
X46.5Y-91.83
X47.83Y-44.75
X52.58Y-17.5
X62.92Y-76.
X73.08Y-76.
X87.67Y-35.25
X97.83Y-35.25
X101.Y-70.42
X101.Y-80.58
X102.17Y-90.
X106.5Y-45.92
X106.5Y-56.08
X112.33Y-90.
X114.5Y-51.67
X114.5Y-61.83
X122.67Y-18.
X126.42Y-37.
X131.5Y-43.17
X131.5Y-53.33
X132.83Y-18.
X133.25Y-59.42
X133.25Y-69.58
X136.58Y-37.
X137.Y-73.42
X137.Y-83.58
T4
X22.67Y-29.75
X22.67Y-32.29
X22.67Y-34.83
X22.67Y-37.37
X22.67Y-39.91
X22.67Y-42.45
X22.67Y-44.99
X22.67Y-47.53
X22.67Y-50.07
X22.67Y-52.61
X22.67Y-55.15
X22.67Y-57.69
X22.67Y-60.23
X22.67Y-62.77
X22.67Y-65.31
X22.67Y-67.85
X22.67Y-70.39
X22.67Y-72.93
X22.67Y-75.47
X22.67Y-78.01
X25.21Y-29.75
X25.21Y-32.29
X25.21Y-34.83
X25.21Y-37.37
X25.21Y-39.91
X25.21Y-42.45
X25.21Y-44.99
X25.21Y-47.53
X25.21Y-50.07
X25.21Y-52.61
X25.21Y-55.15
X25.21Y-57.69
X25.21Y-60.23
X25.21Y-62.77
X25.21Y-65.31
X25.21Y-67.85
X25.21Y-70.39
X25.21Y-72.93
X25.21Y-75.47
X25.21Y-78.01
T0
M30
